<?xml version="1.0" standalone="no"?>
<!DOCTYPE svg PUBLIC "-//W3C//DTD SVG 1.1//EN" "http://www.w3.org/Graphics/SVG/1.1/DTD/svg11.dtd">
<svg xmlns="http://www.w3.org/2000/svg">
<defs >
<font id="Gluten" horiz-adv-x="1008" ><font-face
    font-family="Gluten Thin"
    units-per-em="2000"
    panose-1="0 0 0 0 0 0 0 0 0 0"
    ascent="1290"
    descent="-475"
    alphabetic="0" />
<glyph unicode=" " horiz-adv-x="675" />
<glyph unicode="!" horiz-adv-x="535" d="M234 292Q197 292 169 302T120 334T86 394T64 484T51 607T46 769T44 972Q44 1021 45 1062T51 1136T63 1197T84 1244T118 1277T167 1296T232 1303Q270 1303 297 1294T343 1266T375 1223T394 1165T404 1094T407 1012T408
921Q408 821 404 739T392 592T372 478T346 393T314 335T277 303T234 292ZM217 -74Q179 -74 138 -65T68 -31T40 41Q40 87 66 119T134 169T219 187Q255 187 292 176T355 139T381 73Q381 21 358 -11T297 -59T217 -74Z" />
<glyph unicode="&quot;" horiz-adv-x="702" d="M538 801Q512 801 491 815T453 854T425 913T408 988T402 1075Q402 1113 406 1144T421 1201T449 1243T490 1270T546 1279Q571 1279 591 1272T627 1250T653 1214T669 1166T675 1107Q675 1053 670 1007T654 922T626
858T587 816T538 801ZM176 786Q146 786 123 802T81 847T51 912T33 990T27 1073Q27 1113 33 1143T53 1197T85 1234T128 1256T180 1264Q202 1264 220 1254T253 1227T277 1188T292 1139T297 1087Q297 1034 294 989T282 906T259 842T225 800T176 786Z" />
<glyph unicode="#" horiz-adv-x="1879" d="M1236 -66Q1169 -66 1139 -44T1101 20Q1100 35 1100 53T1099 91T1099 127T1098 154Q1098 193 1087 205T1032 218Q974 218 931 218T845 218T742 217Q720 217 705 207T680 175Q676 165 673 149T666 115T661 79T658 45Q656
-8 620 -35T501 -63Q436 -63 408 -42T377 38Q376 59 376 81T374 126T370 163Q358 214 312 216Q299 217 279 217T237 218T198 218T170 218Q96 218 53 243T9 340Q9 391 37 415T126 443Q169 445 211 449T282 458Q308 462 323 472T341 501Q343 521 345 540T348 581T351
625T352 670Q352 692 337 704T297 720Q276 723 230 727T133 732Q72 732 51 764T30 840Q30 883 60 914T160 952Q201 955 247 960T324 971Q366 981 391 1007T424 1080Q433 1112 441 1139T459 1189Q479 1232 513 1252T617 1273Q676 1273 712 1254T748 1193Q748 1172
748 1153T747 1115T746 1082T747 1057Q749 1016 769 999T840 982Q893 982 949 984T1053 988T1124 993Q1164 997 1185 1016T1209 1084Q1211 1116 1214 1139T1231 1182Q1252 1216 1291 1231T1377 1247Q1438 1247 1476 1209T1514 1119Q1514 1106 1514 1092T1513 1063T1514
1036T1515 1012Q1522 961 1568 958Q1609 956 1654 954T1752 952Q1811 952 1833 926T1856 853Q1856 806 1822 777T1709 747Q1667 747 1626 747T1551 744Q1541 744 1534 738T1523 717T1515 673Q1513 660 1512 645T1508 614T1505 582T1504 552Q1504 514 1520 495T1582
473Q1618 473 1648 470T1703 459Q1752 445 1777 417T1802 352Q1802 295 1772 264T1695 223Q1642 214 1590 211T1481 206Q1441 205 1426 161Q1423 148 1420 134T1414 103T1408 72T1401 40Q1393 6 1379 -18T1332 -54T1236 -66ZM929 455Q958 455 981 456T1026 458T1072
460Q1120 464 1137 480T1158 527Q1160 545 1162 567T1167 613T1170 657T1171 694Q1171 726 1154 738T1091 750Q1040 750 995 749T905 747T809 742Q762 740 742 728T717 691Q716 675 714 653T709 608T706 562T704 522Q704 481 725 468T780 455Q814 455 852 455T929
455Z" />
<glyph unicode="$" horiz-adv-x="1135" d="M537 909Q489 909 460 924T417 966T403 1031Q403 1089 411 1132T437 1203T480 1244T542 1258Q569 1258 590 1248T627 1213T650 1150T658 1052Q658 1006 648 974T611 926T537 909ZM534 -61Q503 -61 478 -50T436 -16T409
41T400 124Q400 169 407 203T431 263T475 300T543 313Q573 313 596 302T637 271T662 223T671 158Q671 100 663 59T637 -9T594 -48T534 -61ZM534 118Q454 118 384 123T255 138T151 163Q94 182 57 208T20 286Q20 342 57 375T166 409Q207 409 252 400T352 382T472
373Q520 373 559 378T622 397T645 436Q645 460 628 475T565 501T429 526Q313 544 230 577T103 663T59 792Q59 860 104 908T226 986T402 1031T605 1045Q675 1045 747 1038T882 1015T981 974T1019 913Q1019 867 995 840T932 800T854 788Q799 788 744 797T646 806Q611
806 584 801T541 784T525 753Q525 734 545 721T610 697T723 675Q824 659 901 627T1021 542T1065 407Q1065 333 1025 279T914 189T746 136T534 118Z" />
<glyph unicode="%" horiz-adv-x="1554" d="M332 671Q249 671 183 699T78 780T39 903Q39 993 86 1062T214 1170T391 1209Q472 1209 542 1185T654 1110T697 977Q697 906 669 850T590 753T473 692T332 671ZM357 852Q389 852 420 865T472 903T493 957Q493 990 480
1013T439 1050T367 1063Q327 1063 298 1044T254 995T239 938Q239 906 256 887T300 860T357 852ZM1154 160Q1189 160 1217 173T1261 210T1278 267Q1278 295 1263 315T1223 346T1163 357Q1134 357 1104 344T1054 307T1034 245Q1034 216 1052 197T1098 169T1154 160ZM1162
-18Q1079 -18 1002 1T875 77T824 241Q824 344 882 410T1029 508T1212 540Q1293 540 1355 508T1452 416T1487 280Q1487 192 1444 125T1327 20T1162 -18ZM306 35Q252 35 222 65T191 145Q191 176 217 214T287 298T386 395Q428 433 476 479T576 576T681 682T788 790T891
895T986 992T1069 1075Q1122 1130 1173 1168T1276 1207Q1320 1207 1349 1188T1378 1120Q1378 1067 1337 1015T1231 904Q1165 844 1098 777T962 637T826 492T690 349T557 213Q521 177 476 136T386 65T306 35Z" />
<glyph unicode="&amp;" horiz-adv-x="1518" d="M602 -116Q452 -116 332 -74T141 53T70 272Q70 361 96 426T166 538T261 616T360 667Q407 687 436 700T480 723T494 739Q494 746 488 752T470 765Q438 785 404 823T347 914T323 1026Q323 1126 378 1185T526 1271T727
1297Q827 1297 912 1264T1051 1167T1104 1010Q1104 942 1078 892T1009 807T912 745Q893 735 885 726T876 709Q876 699 902 667T960 599Q981 576 1002 555T1042 521T1073 507Q1087 507 1101 530T1130 585Q1160 644 1196 665T1274 686Q1316 686 1346 660T1376 591Q1376
567 1368 538T1341 476T1296 409Q1276 383 1270 370T1263 342Q1263 326 1277 312T1326 273Q1366 248 1401 216T1459 148T1482 76Q1482 2 1434 -29T1324 -60Q1270 -60 1235 -39T1171 22Q1150 50 1134 67T1103 84Q1091 84 1079 75T1044 40Q1018 10 979 -18T885 -68T760
-103T602 -116ZM644 174Q690 174 734 187T815 221T872 266T893 311Q893 322 881 340T846 383T796 436Q772 461 749 483T706 520T674 534Q656 534 626 524T563 494T500 449T451 390T432 322Q432 270 463 237T542 189T644 174ZM705 838Q727 838 750 852T792 890T824
941T836 996Q836 1050 807 1080T718 1110Q689 1110 661 1098T615 1063T597 1005Q597 978 608 949T638 895T674 854T705 838Z" />
<glyph unicode="&apos;" horiz-adv-x="381" d="M182 809Q150 809 126 833T84 898T59 989T50 1094Q50 1144 55 1179T76 1235T118 1267T190 1278Q222 1278 247 1268T289 1238T314 1189T323 1120Q323 1034 315 975T288 879T244 826T182 809Z" />
<glyph unicode="(" horiz-adv-x="760" d="M584 -430Q485 -430 406 -379T267 -243Q216 -177 177 -95T111 78T70 264T56 451Q56 580 80 700T153 926T272 1114Q318 1167 370 1207T473 1270T565 1293Q621 1293 665 1265T709 1164Q709 1126 694 1088T649 1001T573 886Q526
818 499 744T459 593T447 439Q447 341 469 251T534 77T640 -87Q673 -130 695 -179T717 -276Q717 -337 687 -383T584 -430Z" />
<glyph unicode=")" horiz-adv-x="706" d="M188 -413Q146 -413 108 -395T47 -342T23 -261Q23 -193 50 -129T132 4Q164 38 194 82T251 176T297 282T328 396T339 514Q339 622 308 721T212 890Q164 940 122 981T54 1058T28 1131Q28 1187 50 1223T112 1276T199 1293Q245
1293 298 1272T405 1212T503 1123Q567 1051 608 966T669 781T690 566Q690 467 671 357T615 136T530 -71T421 -243Q370 -318 310 -365T188 -413Z" />
<glyph unicode="*" horiz-adv-x="1080" d="M530 439Q484 439 454 464T423 544Q423 562 423 582T423 623T423 660T420 688Q417 714 411 724T391 734Q383 734 357 718T295 679T225 632T163 594Q131 578 102 578Q63 578 41 604T18 662Q18 682 27 701T57 734Q82 750
122 770T203 810T272 845T301 869Q301 877 285 885T241 905T178 927T104 948Q71 956 52 981T33 1035Q33 1066 48 1091T88 1130T142 1145Q157 1145 175 1141T215 1123Q244 1107 283 1086T356 1048T402 1032Q414 1032 419 1045T426 1082Q427 1093 427 1106T427 1133T428
1161T427 1190Q427 1237 454 1266T549 1295Q597 1295 612 1270T628 1201Q628 1186 628 1169T628 1134T631 1100Q635 1075 645 1058T678 1041Q691 1041 712 1051T760 1077T816 1109T878 1139Q906 1150 932 1150Q963 1150 987 1134T1026 1091T1041 1037Q1041 1015
1029 996T990 964Q969 954 930 942T851 918T783 895T755 875Q755 867 772 856T816 831T872 803T927 776T965 751Q993 728 1005 705T1017 644Q1017 613 987 590T917 566Q893 566 871 577T832 602Q807 623 782 650T732 704T687 748T649 766Q634 766 631 751T628 707Q628
694 629 677T631 641T634 604T636 571Q636 507 613 473T530 439Z" />
<glyph unicode="+" horiz-adv-x="1165" d="M586 174Q531 174 504 208T457 298Q454 309 452 319T448 338T445 357T441 375Q433 422 419 444T381 473T315 480Q298 480 277 480T232 482T186 485T147 491Q93 503 59 533T24 619Q24 656 50 681T118 720T211 738Q251
741 285 744T346 752T388 764Q408 773 416 792T427 850Q428 865 429 879T432 907T436 936T442 965Q463 1034 496 1058T604 1083Q646 1083 679 1057T727 999Q733 983 736 968T742 936T745 904T746 872Q747 824 760 794T802 762Q828 760 862 757T933 750T1002 739T1055
726Q1105 708 1124 679T1144 616Q1144 573 1118 550T1040 513Q1003 504 963 499T884 492T810 489Q777 488 755 466T732 382Q732 367 731 353T728 324T723 298T717 275Q703 233 668 204T586 174Z" />
<glyph unicode="," horiz-adv-x="563" d="M238 -295Q184 -291 171 -271T162 -223Q170 -199 183 -167T208 -107Q220 -82 227 -62T231 -33Q228 -26 221 -23T198 -20Q175 -20 154 -18T117 -2Q95 7 74 23T43 67T43 134Q55 192 96 225T190 267T295 266Q393 247 443
181T484 -2Q480 -43 466 -83T429 -159T381 -222Q349 -256 312 -276T238 -295Z" />
<glyph unicode="-" horiz-adv-x="1311" d="M552 435Q442 435 344 441T170 466T51 517T8 602Q8 668 45 706T159 764T349 789T617 795Q766 795 887 791T1094 770T1227 713T1273 604Q1273 544 1222 510T1075 459T848 439T552 435Z" />
<glyph unicode="." horiz-adv-x="544" d="M261 -36Q185 -36 133 -10T53 59T26 148Q26 211 68 253T172 319T295 342Q350 342 392 321T459 260T484 166Q484 108 455 62T375 -10T261 -36Z" />
<glyph unicode="/" horiz-adv-x="1277" d="M151 35Q98 35 68 65T37 145Q37 176 63 214T133 298T232 395Q274 433 321 479T421 576T527 682T634 790T737 895T832 992T914 1075Q968 1130 1019 1168T1122 1207Q1165 1207 1194 1188T1224 1120Q1224 1067 1183 1015T1077
904Q1010 844 943 777T807 637T671 492T535 349T403 213Q366 177 321 136T232 65T151 35Z" />
<glyph unicode="0" horiz-adv-x="1072" d="M481 -47Q392 -47 321 -18T196 66T107 194T53 356T34 541Q34 690 65 819T161 1047T320 1200T544 1255Q658 1255 745 1213T891 1094T981 912T1011 679Q1011 569 994 464T939 266T839 103T689 -7T481 -47ZM507 368Q542
368 571 384T621 430T658 495T680 572T688 649Q688 691 680 730T656 801T614 852T553 871Q509 871 476 848T420 785T386 698T375 598Q375 563 380 530T397 468T424 416T460 381T507 368Z" />
<glyph unicode="1" horiz-adv-x="802" d="M432 -67Q332 -67 274 -15T215 129Q215 160 218 206T226 308T237 424T248 544T259 656T267 752T270 821Q270 850 262 863T227 885Q208 891 187 891T148 893T114 900Q84 916 69 937T53 989Q53 1035 94 1080T199 1161T331
1220T455 1242Q537 1242 585 1192T656 1059T687 878T694 686Q694 647 693 604T690 517T685 427T679 338T671 253T661 175T649 105Q624 18 574 -24T432 -67Z" />
<glyph unicode="2" horiz-adv-x="1162" d="M304 -34Q230 -23 173 -4T83 55T50 165Q50 226 72 281T175 380Q224 412 283 450T405 531T522 616Q565 648 596 680T644 746T662 810Q662 864 629 888T539 912Q478 912 428 890T343 836Q320 815 295 796T243 766T190 755Q141
755 99 789T57 885Q57 960 98 1023T211 1133T372 1206T562 1232Q658 1232 745 1215T902 1157T1012 1048T1053 876Q1053 816 1035 764T985 666T911 578Q881 548 845 519T770 462T697 413T633 374Q606 360 594 349T582 324Q582 316 592 312T619 305T659 303Q696 303
749 311T855 328T944 337Q1012 337 1054 305T1096 215Q1096 137 1060 87T957 9T801 -32T602 -46Q527 -47 450 -46T304 -34Z" />
<glyph unicode="3" horiz-adv-x="1206" d="M544 -84Q443 -84 352 -69T189 -24T78 49T37 149Q37 199 53 230T92 279T142 302T189 309Q245 309 300 290T414 250T536 230Q580 230 617 235T683 253T726 284T742 329Q742 364 719 387T657 426T567 455Q523 467 486 485T428
530T406 595Q406 645 441 671T526 714Q568 727 603 743T660 783T682 838Q682 875 663 895T605 923T512 932Q452 932 393 922T285 902T205 892Q132 892 92 933T51 1031Q51 1084 92 1123T203 1189T363 1228T550 1241Q725 1241 840 1201T1011 1084T1067 902Q1067 856
1052 816T1009 744T949 689Q921 662 910 645T898 612Q898 595 917 582T969 550Q1010 531 1050 499T1116 416T1143 290Q1143 202 1106 133T994 15T807 -59T544 -84Z" />
<glyph unicode="4" horiz-adv-x="1172" d="M736 -41Q673 -41 626 -12T578 93Q578 109 578 127T579 165T578 202T575 233Q569 275 544 295T444 319Q380 322 314 327T195 341Q142 351 111 386T68 474T55 592Q55 642 63 699T84 813T112 922T143 1014Q159 1060 183
1099T243 1163T334 1188Q369 1188 394 1177T432 1144T445 1084Q445 1055 440 1022T426 953T410 878T396 802T390 727Q390 685 394 663T408 630T432 614Q453 606 484 604T549 602Q583 602 600 618T617 685Q617 702 618 731T621 797T625 873T630 950T635 1018T641
1067Q652 1132 685 1172T780 1212Q822 1212 850 1197T896 1149T922 1064Q926 1042 929 1014T933 952T935 883T936 807T937 727T936 646Q936 613 948 598T988 582Q1018 582 1041 581T1085 574Q1112 565 1127 544T1143 474Q1143 404 1121 381T1061 348Q1042 345 1014
339T961 328Q937 323 928 308T915 255Q912 229 909 198T902 136T891 76Q878 18 840 -11T736 -41Z" />
<glyph unicode="5" horiz-adv-x="1085" d="M318 -26Q267 -26 223 -21T142 -5Q89 12 56 45T22 135Q22 214 72 254T215 294Q241 294 288 293T371 292Q422 292 472 297T563 317T628 357T652 420Q652 476 620 498T520 520Q459 520 400 507T262 493Q162 493 103 539T43
684Q43 741 52 801T77 919T117 1024Q150 1094 189 1133T291 1189T450 1206Q507 1206 558 1205T666 1203T789 1202Q842 1202 892 1193T975 1153T1008 1064Q1008 1006 968 978T861 940T719 930Q677 930 616 932T511 934Q468 934 449 922T420 883Q416 870 411 853T403
816T399 779Q399 761 404 753T421 742T450 739Q470 739 499 744T566 755T652 760Q774 760 862 723T996 610T1043 421Q1043 298 987 213T830 75T599 -2T318 -26Z" />
<glyph unicode="6" horiz-adv-x="1172" d="M603 -35Q460 -35 357 0T186 109T87 295T54 564Q54 663 74 759T130 940T214 1086Q261 1146 322 1181T457 1216Q528 1216 567 1185T606 1081Q606 1037 588 1002T548 932Q532 909 516 880T487 819T466 757T457 700Q457
689 461 684T471 679Q481 679 502 694T560 728Q606 752 659 763T766 775Q872 775 951 729T1073 601T1117 417Q1117 319 1080 237T974 93T811 -1T603 -35ZM584 225Q635 225 675 245T738 301T761 377Q761 424 740 454T686 498T614 513Q573 513 535 499T473 454T449
377Q449 341 458 313T484 266T527 236T584 225Z" />
<glyph unicode="7" horiz-adv-x="1062" d="M369 -30Q321 -30 279 -17T210 31T183 125Q183 217 200 295T249 440T320 561T404 658Q451 707 493 747T567 819T617 879T635 929Q635 957 607 967T528 978Q466 978 395 970T261 955T159 947Q97 947 63 965T28 1051Q28
1106 71 1150T193 1222Q236 1235 298 1245T428 1260T556 1265Q663 1265 751 1256T904 1220T1003 1140T1038 997Q1038 937 1011 878T940 761T848 651T755 549Q690 481 639 380T567 147Q557 94 534 54T471 -8T369 -30Z" />
<glyph unicode="8" horiz-adv-x="1312" d="M655 -25Q525 -25 413 -9T218 48T88 157T41 333Q41 397 61 453T117 552T196 610Q222 620 233 626T244 641Q244 648 234 656T204 672Q149 696 121 751T93 862Q93 955 141 1023T271 1136T455 1201T666 1223Q769 1223 867
1199T1046 1128T1174 1012T1222 854Q1222 806 1207 764T1163 690T1099 636Q1086 628 1080 623T1073 607Q1073 600 1078 594T1101 578Q1150 553 1182 516T1230 433T1247 330Q1247 233 1198 165T1065 55T875 -6T655 -25ZM648 246Q711 246 757 260T827 303T852 372Q852
424 828 457T760 505T658 521Q588 521 538 506T461 459T434 374Q434 331 462 303T540 260T648 246ZM641 733Q684 733 720 742T785 768T828 808T844 859Q844 889 829 914T788 958T727 987T652 998Q595 998 549 980T474 929T445 857Q445 831 459 809T499 770T562
743T641 733Z" />
<glyph unicode="9" horiz-adv-x="1124" d="M399 -42Q328 -42 288 -24T231 25T215 98Q215 157 248 191T350 243Q381 253 420 269T500 307T574 351T629 400T650 451Q650 466 645 474T629 482Q616 482 588 469Q567 458 525 446T424 434Q316 434 233 476T103 599T55
799Q55 897 97 971T211 1094T374 1168T565 1194Q717 1194 832 1144T1013 993T1078 735Q1078 588 1029 459T889 225T671 43Q608 4 539 -19T399 -42ZM555 679Q588 679 618 690T671 722T707 771T720 835Q720 877 699 906T642 950T563 966Q515 966 478 948T420 897T398
816Q398 775 420 744T479 696T555 679Z" />
<glyph unicode=":" horiz-adv-x="483" d="M217 53Q172 53 130 71T60 122T33 197Q33 239 58 272T123 324T206 343Q255 343 301 325T376 274T406 192Q406 146 377 115T305 69T217 53ZM228 645Q187 645 151 660T93 700T71 760Q71 794 90 825T151 877T257 897Q294
897 330 883T392 843T417 782Q417 739 390 708T320 661T228 645Z" />
<glyph unicode=";" horiz-adv-x="510" d="M221 636Q148 636 95 672T41 764Q41 814 87 854T221 894Q301 894 349 854T398 754Q398 711 370 685T300 648T221 636ZM211 -222Q168 -220 158 -200T151 -153Q157 -130 167 -100T187 -42Q198 -18 203 1T206 31Q204 38 198
41T179 44Q160 44 144 45T115 57Q88 69 66 98T55 189Q64 246 97 280T173 325T257 327Q336 311 376 247T408 69Q404 9 381 -50T326 -148Q301 -183 271 -203T211 -222Z" />
<glyph unicode="&lt;" horiz-adv-x="827" d="M647 200Q596 200 530 220T397 266Q333 292 265 328T140 408T48 501T12 600Q12 649 34 696T94 789T180 878T281 958Q315 983 363 1009T465 1060T567 1098T652 1113Q705 1113 734 1097T763 1024Q763 981 734 944T658
872T557 804Q527 786 497 764T443 721T403 678T388 640Q388 625 403 607T446 569T506 533T573 501Q686 457 737 416T788 328Q788 266 752 233T647 200Z" />
<glyph unicode="=" horiz-adv-x="1025" d="M310 703Q232 703 165 718T58 766T17 848Q17 883 51 910T140 954T261 980T391 989Q434 989 487 989T597 985T709 977T809 962Q880 947 922 921T964 855Q964 818 920 792T810 747Q755 734 691 725T558 712T427 705T310
703ZM369 246Q311 246 251 255T142 282T62 330T31 399Q31 460 79 489T205 527T369 537Q413 537 467 537T577 533T687 524T781 508Q859 487 895 460T932 402Q932 361 870 326T698 268Q666 261 624 257T537 251T449 247T369 246Z" />
<glyph unicode="&gt;" horiz-adv-x="807" d="M238 211Q183 211 147 241T111 315Q111 352 141 389T235 466Q262 482 294 504T360 550T421 600T466 647T483 687Q483 707 465 729T415 773T343 816T259 858T172 894Q127 913 94 934T42 984T24 1052Q24 1103 63 1119T152
1136Q191 1136 247 1120T365 1078T482 1025T576 974Q626 944 670 906T743 820T771 716Q771 668 749 619T694 524T624 442Q570 389 502 336T365 247T238 211Z" />
<glyph unicode="?" horiz-adv-x="1075" d="M446 288Q401 288 367 299T313 342T294 435Q294 495 317 545T387 640T501 723Q557 756 602 787T673 850T699 917Q699 954 678 976T617 1008T524 1018Q488 1018 442 1009T354 984T286 947Q245 926 210 913T134 899Q99
899 73 917T46 988Q46 1023 65 1055T117 1114Q167 1162 237 1196T385 1249T538 1268Q644 1268 732 1247T886 1182T988 1074T1024 923Q1024 849 993 792T908 691T785 614Q741 592 699 567T628 508T588 428Q571 357 545 323T446 288ZM407 -70Q340 -70 300 -40T260
48Q260 113 305 148T407 184Q450 184 489 174T553 136T578 58Q578 4 539 -33T407 -70Z" />
<glyph unicode="@" horiz-adv-x="2005" d="M857 -83Q688 -83 537 -45T269 72T86 267T19 540Q19 673 69 788T211 997T427 1156T702 1257T1018 1292Q1233 1292 1406 1249T1704 1118T1894 892T1961 567Q1961 460 1921 388T1806 280T1626 244Q1525 244 1456 283T1335
409Q1320 433 1307 449T1281 465Q1267 465 1248 442T1189 388T1074 334T873 310Q782 310 708 340T591 426T548 558Q548 637 589 698T701 802T860 866T1042 888Q1166 888 1253 860T1399 761T1502 563Q1514 515 1538 490T1596 465Q1624 465 1642 477T1669 512T1678
564Q1678 644 1654 717T1579 854T1453 963T1272 1036T1035 1062Q916 1062 813 1040T626 973T483 866T391 721T359 540Q359 439 398 364T506 237T667 161T864 135Q944 135 1011 152T1134 187Q1183 203 1222 214T1291 225Q1337 225 1362 199T1388 125Q1388 92 1363
62T1289 6T1173 -41Q1101 -62 1021 -72T857 -83ZM965 499Q998 499 1028 510T1082 539T1121 582T1135 634Q1135 685 1101 712T991 740Q956 740 923 730T864 702T823 661T808 609Q808 575 826 550T879 512T965 499Z" />
<glyph unicode="A" horiz-adv-x="1599" d="M1308 -40Q1245 -40 1196 -20T1110 50Q1100 68 1092 88T1075 129T1055 173T1028 219Q1009 248 987 264T933 287Q920 291 897 293T846 297T792 299Q752 299 712 297T640 289Q610 284 592 272T559 239Q545 218 533 191T507
135T478 78Q449 34 404 6T272 -23Q200 -23 152 -2T79 68T55 200Q55 256 68 320T104 453T155 588T213 714T268 821T315 899Q348 950 394 1003T499 1101T633 1173T796 1201Q930 1201 1047 1138T1259 960Q1298 917 1334 856T1401 722T1459 572T1504 419T1534 275T1544
152Q1544 46 1480 3T1308 -40ZM954 562Q974 571 980 586T987 631Q987 653 981 683T963 746T936 805Q914 845 885 870T823 895Q780 895 743 860T680 778Q671 762 661 740T643 695T630 650T624 612Q624 578 653 564T726 549Q782 549 825 550T900 555T954 562Z" />
<glyph unicode="B" horiz-adv-x="1345" d="M593 -70Q473 -70 385 -60T238 -21T146 64T102 213Q98 256 95 308T89 416T85 530T84 640T86 737Q89 911 147 1010T325 1152T633 1194Q729 1194 825 1179T1002 1127T1131 1031T1180 878Q1180 816 1160 775T1111 710T1050
672Q1015 656 992 645T968 627Q968 620 993 614T1060 595Q1129 574 1181 535T1263 441T1293 312Q1293 245 1263 184T1184 80Q1144 44 1078 16T929 -31T761 -60T593 -70ZM603 218Q660 218 712 226T806 251T872 294T897 356Q897 383 877 401T823 431T749 449T669
457T596 460Q581 460 565 456T533 440T509 407T500 348Q500 318 503 294T517 253T548 227T603 218ZM533 722Q573 722 609 725T677 736T739 752Q782 766 807 790T833 856Q833 884 814 905T763 942T694 965T620 973Q591 973 566 968T522 950T494 921Q490 913 487
899T482 869T479 837T478 806Q478 765 490 744T533 722Z" />
<glyph unicode="C" horiz-adv-x="1268" d="M672 -71Q535 -71 422 -35T227 73T100 247T55 483Q55 641 104 770T245 992T467 1135T760 1185Q834 1185 901 1170T1019 1127T1100 1060T1130 972Q1130 903 1097 867T1005 830Q973 830 948 836T897 849T840 863T764 869Q721
869 684 849T617 791T572 697T555 571Q555 515 566 466T603 379T671 319T775 297Q814 297 848 308T913 334T974 360T1036 372Q1130 372 1164 329T1198 214Q1198 144 1157 91T1042 2T874 -52T672 -71Z" />
<glyph unicode="D" horiz-adv-x="1434" d="M393 -31Q290 -31 229 -4T136 78T92 219Q83 276 79 348T75 505Q75 637 82 750T112 952Q145 1081 222 1154T450 1227Q605 1227 744 1188T1000 1081T1201 930T1332 753T1379 570Q1379 471 1329 381T1186 216T971 86T701
0T393 -31ZM589 384Q653 384 705 398T798 435T865 488T907 548T921 608Q921 634 906 664T862 723T791 775T697 813T584 827Q559 827 544 811T520 765Q514 742 511 712T508 646Q508 581 511 534T521 454Q538 384 589 384Z" />
<glyph unicode="E" horiz-adv-x="1159" d="M539 -50Q421 -50 326 -7T170 126T89 360Q85 391 83 423T79 491T76 563T75 640Q75 822 115 941T234 1129T429 1226T695 1255Q771 1255 839 1248T958 1223T1039 1179T1068 1111Q1068 1064 1042 1036T977 996Q945 989 897
986T795 981T696 978Q646 977 614 969T562 945T535 901T527 837Q527 813 534 797T565 774T634 767Q657 767 681 767T729 769T777 772T822 773Q895 773 930 741T965 650Q965 562 919 528T806 494Q781 494 756 494T707 494T661 495T622 495Q571 495 544 489T508 470T498
432Q498 401 503 376T520 332T552 302T603 283T678 277Q724 277 772 278T862 281T931 283Q998 283 1031 250T1064 156Q1064 92 1015 51T886 -12T714 -42T539 -50Z" />
<glyph unicode="F" horiz-adv-x="1195" d="M364 -32Q316 -32 280 -13T216 41T169 115Q151 153 137 205T111 316T91 438T79 558T75 665Q75 775 96 865T157 1025T256 1144Q332 1208 436 1239T669 1270Q750 1270 834 1255T990 1210T1105 1140T1149 1047Q1149 1001
1129 977T1070 940Q1029 931 966 931T826 932Q744 932 695 913T620 861Q607 847 599 827T587 783T583 730Q583 711 587 696T601 671T625 655T656 649Q691 649 729 650T805 651T873 649T922 641Q952 631 967 611T983 558Q983 537 977 516T956 476Q933 446 893 430T784
402T611 375Q564 370 549 342T533 271Q533 255 533 232T533 184T532 134T529 88T521 54Q499 6 457 -13T364 -32Z" />
<glyph unicode="G" horiz-adv-x="1570" d="M771 -80Q613 -80 482 -39T255 86T107 297T55 597Q55 747 102 858T230 1047T417 1171T641 1239T878 1260Q951 1260 1023 1247T1156 1206T1252 1140T1288 1051Q1288 983 1244 949T1133 915Q1096 915 1066 921T1005 935T937
949T850 955Q773 955 713 929T611 855T547 741T525 592Q525 481 564 405T679 290T865 251Q902 251 935 257T993 276T1032 310T1046 361Q1046 388 1029 408T975 443T884 466Q815 477 772 509T728 614Q728 672 769 706T878 756T1028 771Q1136 771 1224 750T1375 686T1472
573T1506 409Q1506 263 1450 168T1294 18T1060 -58T771 -80Z" />
<glyph unicode="H" horiz-adv-x="1524" d="M1164 -35Q1088 -35 1055 -14T1009 54Q1006 75 1004 99T1002 148T1000 197T999 242T998 281Q996 330 988 360T959 403Q935 419 897 426T780 433Q738 433 710 432T663 427T631 418T606 407Q593 400 581 388T562 354Q557
342 553 326T546 292T539 250T533 200T527 141Q518 80 496 45T433 -4T333 -19Q243 -19 192 33T114 168Q103 206 96 252T84 350T77 453T75 551Q75 612 77 670T84 782T96 886T115 980Q135 1059 167 1117T249 1206T365 1238Q442 1238 481 1207T539 1110Q542 1091 546
1070T554 1027T561 985T567 948T574 920Q583 884 594 858T626 819Q651 805 691 799T778 793Q821 793 855 794T915 800T957 817Q975 830 987 856T1006 936Q1009 961 1012 988T1019 1043T1030 1099T1046 1157Q1064 1209 1101 1236T1196 1263Q1282 1263 1330 1219T1404
1090Q1415 1055 1423 1010T1437 909T1446 793T1449 668Q1449 613 1447 557T1439 446T1428 341T1413 247T1394 165Q1367 68 1309 17T1164 -35Z" />
<glyph unicode="I" horiz-adv-x="668" d="M328 -20Q210 -20 153 52T95 245Q95 291 95 347T97 466T101 595T108 727T117 854T131 968Q152 1083 201 1138T359 1194Q447 1194 491 1142T548 1008Q552 972 556 924T562 818T567 702T570 586T571 477T571 386Q571 240
551 151T478 21T328 -20Z" />
<glyph unicode="J" horiz-adv-x="1293" d="M565 -83Q474 -83 392 -69T241 -23T123 56Q85 95 61 143T26 244T14 349Q14 401 32 442T81 512T152 556T239 571Q279 571 309 553T356 495Q367 460 377 430T400 374Q417 339 445 323T511 307Q548 307 569 315T608 342Q627
363 640 394T659 470T666 576Q666 614 665 662T661 762T655 863T651 955T649 1026Q649 1089 666 1136T737 1211T894 1238Q972 1238 1029 1208T1125 1123Q1142 1098 1156 1066T1180 996T1198 913T1208 820T1212 715Q1212 596 1198 502T1159 334T1099 202T1023 101Q934
4 813 -39T565 -83Z" />
<glyph unicode="K" horiz-adv-x="1494" d="M353 -21Q233 -21 175 31T95 178Q89 213 85 255T79 343T77 433T78 519Q79 624 90 732T129 939T201 1116Q244 1182 311 1212T470 1242Q551 1242 598 1195T645 1069Q645 1033 644 998T640 929T637 869T636 823T636 795Q642
778 652 771T688 764Q703 764 723 775T767 813Q816 864 887 933T1025 1056Q1097 1115 1157 1143T1288 1172Q1349 1172 1385 1148T1439 1087T1457 1007Q1457 984 1449 960T1425 911T1386 862T1333 812Q1297 783 1253 754T1163 698T1075 649Q1026 626 1004 611T981
582Q981 569 989 557T1024 523Q1042 509 1069 487T1127 439T1189 388T1244 343T1279 312Q1334 262 1358 223T1383 146Q1383 86 1357 49T1284 -5T1179 -22Q1125 -22 1064 2T939 78Q890 119 855 154T792 221T744 278T705 327Q676 369 659 391T630 422T604 431Q589
431 583 417T576 378Q576 371 576 355T575 319T574 277T572 237T569 206Q557 88 504 34T353 -21Z" />
<glyph unicode="L" horiz-adv-x="1265" d="M375 -56Q205 -25 140 82T75 373Q75 416 78 469T87 580T99 693T114 799T129 885Q162 1040 231 1127T414 1215Q492 1215 529 1185T578 1102T590 977Q590 950 590 920T589 856T588 789T587 722T588 658T592 597Q595 546
604 510T633 449T684 413T765 399Q849 391 922 382T1042 364Q1079 362 1114 354T1171 331Q1192 315 1202 290T1213 224Q1213 154 1177 105T1082 24T954 -30Q890 -48 799 -59T617 -70Q574 -70 530 -70T446 -66T375 -56Z" />
<glyph unicode="M" horiz-adv-x="1892" d="M335 -48Q251 -48 209 -11T135 103Q119 145 108 193T90 294T80 403T76 516Q76 575 81 639T97 765T122 880T154 969Q195 1052 255 1097T387 1161T532 1179Q602 1179 660 1159T757 1101Q778 1080 797 1049T833 982T865
906T891 825Q902 783 916 751T957 719Q987 719 1003 751T1030 825Q1040 864 1052 902T1078 975T1108 1041T1142 1097Q1180 1140 1233 1161T1377 1183Q1454 1183 1516 1161T1626 1096T1710 995Q1744 941 1767 869T1803 713T1816 541Q1816 489 1815 436T1810 331T1798
230T1777 136Q1750 57 1696 21T1549 -15Q1493 -15 1462 7T1417 64Q1413 83 1409 107T1401 157T1393 209T1386 261Q1383 304 1377 348T1365 428T1352 487Q1340 529 1322 553T1272 577Q1239 577 1217 548T1183 471Q1180 457 1175 435T1164 388T1152 334T1138 279T1125
228Q1104 166 1064 133T949 100Q867 100 830 137T758 244Q752 261 744 287T728 346T710 411T692 474T676 529Q664 572 649 591T608 611Q577 611 562 581T539 492Q536 474 534 451T530 398T528 336T527 264Q527 224 526 191T522 130T513 79T498 37Q475 -4 434 -26T335
-48Z" />
<glyph unicode="N" horiz-adv-x="1646" d="M335 -48Q269 -48 226 -22T154 51Q139 76 127 117T107 210T92 319T83 432T77 539T75 626Q75 795 100 916T189 1103T371 1168Q443 1168 499 1139T616 1046T762 883Q859 761 931 689T1042 617Q1059 617 1070 622T1088 643T1100
689Q1102 703 1105 729T1110 789T1116 857T1122 926T1129 985T1137 1024Q1161 1095 1207 1125T1335 1155Q1399 1155 1442 1134T1511 1072T1550 972T1562 836Q1563 799 1562 749T1558 641T1551 523T1540 406T1524 299T1503 210Q1479 130 1443 78T1352 1T1219 -25Q1155
-25 1087 17T949 131T805 294Q757 354 721 398T659 472T614 516T582 531Q552 531 539 501T526 381Q526 352 526 321T526 256T527 192T524 131T520 78T512 34Q488 -9 444 -28T335 -48Z" />
<glyph unicode="O" horiz-adv-x="1640" d="M728 -106Q584 -106 461 -66T247 51T106 240T55 493Q55 631 96 742T213 938T387 1079T604 1164T846 1193Q999 1193 1132 1151T1368 1029T1527 834T1585 576Q1585 417 1516 291T1327 76T1052 -59T728 -106ZM813 349Q922
349 987 384T1083 477T1113 596Q1113 655 1092 703T1034 786T948 840T841 859Q787 859 737 843T648 796T586 722T563 625Q563 567 581 517T633 430T713 371T813 349Z" />
<glyph unicode="P" horiz-adv-x="1337" d="M411 -23Q355 -23 306 1T217 72T146 183Q136 210 127 245T109 322T95 408T85 496T78 582T75 661Q75 861 132 978T312 1147T633 1198Q764 1198 883 1175T1095 1101T1242 967T1296 766Q1296 677 1263 609T1170 496T1026
426T844 399Q780 397 727 405T631 413Q598 413 590 390T582 327Q582 314 582 298T583 265T585 229T586 196T587 167Q587 73 545 25T411 -23ZM635 641Q672 641 709 646T778 661T836 689T875 729T890 783Q890 817 878 840T845 880T799 906T749 920T702 925Q664 925
635 919T585 901T554 869T543 818Q543 784 546 756T555 707T573 671T599 649T635 641Z" />
<glyph unicode="Q" horiz-adv-x="1600" d="M1316 -199Q1248 -199 1187 -160Q1157 -137 1124 -100T1061 -18Q1046 7 1030 16T994 25Q966 25 926 12T828 -14T685 -28Q544 -28 429 14T230 136T101 325T55 571Q55 717 111 834T265 1035T494 1163T772 1207Q908 1207
1030 1168T1247 1053T1396 875T1451 643Q1451 579 1440 517T1405 403T1343 315Q1316 291 1316 270Q1316 256 1344 240T1424 200Q1448 183 1472 163T1515 119T1546 65T1558 -2Q1558 -61 1523 -105T1433 -174T1316 -199ZM754 405Q828 405 886 431T977 508T1011 627Q1011
697 985 746T905 823T766 851Q712 851 665 834T583 786T528 712T508 618Q508 568 526 528T578 461T657 420T754 405Z" />
<glyph unicode="R" horiz-adv-x="1325" d="M328 -42Q242 -42 182 -4T89 108Q78 136 69 176T54 263T45 360T40 458T39 547Q39 708 67 825T149 1021T281 1148T458 1217T676 1239Q783 1239 883 1214T1063 1139T1191 1018T1238 853Q1238 778 1214 729T1150 650T1062
602T968 575Q942 570 927 561T911 537Q911 526 933 505T989 456T1057 396T1118 334Q1136 314 1156 291T1195 244T1230 197T1255 156T1265 126Q1265 77 1234 43T1154 -8T1049 -25Q1003 -25 959 -10T875 34T798 102T728 194Q687 252 651 298T588 371T548 398Q541
398 537 392T532 373T530 338T529 287Q529 272 529 251T530 205T529 159T527 116T522 84Q507 12 452 -15T328 -42ZM616 694Q639 694 668 699T727 717T781 748T820 794T835 857Q835 892 820 917T777 959T717 984T650 992Q611 992 586 982T546 951T522 902Q516 883
512 863T505 822T503 775Q503 746 516 728T554 702T616 694Z" />
<glyph unicode="S" horiz-adv-x="1250" d="M521 -49Q430 -49 342 -39T180 -4T64 61T20 163Q20 225 48 259T123 307T225 321Q238 321 263 315T322 302T391 295Q443 295 483 299T551 313T593 344T608 395Q608 421 593 441T549 478T484 511T401 543Q333 567 273 599T166
672T94 765T67 882Q67 962 106 1023T213 1127T364 1196T537 1235T708 1247Q785 1247 855 1238T983 1209T1073 1156T1106 1076Q1106 1022 1081 989T1014 939T927 923Q906 923 884 930T835 944T766 951Q738 951 712 947T664 934T631 909T618 867Q618 840 634 818T678
778T744 744T829 709Q892 685 954 650T1068 569T1149 462T1180 328Q1180 227 1126 155T979 38T768 -28T521 -49Z" />
<glyph unicode="T" horiz-adv-x="1457" d="M692 -54Q600 -54 553 -10T494 120Q491 148 489 188T485 274T482 372T481 476T480 580T480 677Q480 751 466 781T398 812Q344 812 291 804T182 796Q137 796 102 816T48 873T28 962Q28 1021 74 1063T199 1134T377 1178T583
1200T790 1207Q881 1207 971 1204T1141 1189T1284 1152T1383 1083T1419 973Q1419 913 1400 872T1342 808T1247 786Q1190 786 1164 787T1098 789Q1044 789 1018 776T984 728T971 632Q969 595 966 556T959 475T949 391T937 309T924 232T909 163T892 104Q867 47 843
12T784 -38T692 -54Z" />
<glyph unicode="U" horiz-adv-x="1484" d="M709 -40Q471 -40 313 80T83 402Q72 437 63 473T47 546T36 624T29 705T27 788Q27 918 54 1003T142 1130T304 1173Q372 1173 416 1144T483 1048T505 868Q505 835 506 802T509 737T514 675T523 618T537 566Q558 497 598
455T709 413Q755 413 790 432T850 485T892 564Q904 595 912 630T925 704T932 783T935 862Q935 973 961 1040T1040 1137T1168 1168Q1255 1168 1301 1129T1365 1007T1383 799Q1383 754 1381 712T1373 628T1361 548T1343 471T1320 398Q1272 263 1187 165T981 14T709
-40Z" />
<glyph unicode="V" horiz-adv-x="1625" d="M774 -27Q714 -27 657 2T546 79T446 181Q401 231 354 295T262 431T177 579T107 729T59 871T42 995Q42 1094 115 1149T295 1204Q388 1204 454 1165T552 1036Q567 986 584 931T620 821T655 717T688 630Q717 561 742 522T789
482Q815 482 844 519T907 625Q924 656 942 697T980 783T1018 876T1055 969Q1088 1058 1133 1102T1236 1161T1360 1176Q1426 1176 1476 1151T1556 1085T1585 991Q1585 943 1563 878T1502 738T1415 586T1315 434T1212 296T1118 184Q1060 121 1004 74T892 0T774 -27Z"
/>
<glyph unicode="W" horiz-adv-x="2035" d="M482 4Q399 4 334 37T222 131T143 275Q124 324 109 382T84 504T67 635T58 768T55 897Q55 951 62 1008T93 1114T161 1193T285 1223Q404 1223 454 1176T515 1050Q518 1011 520 972T525 894T531 817T538 741T546 666Q553
603 568 568T617 532Q648 532 667 571T702 679Q710 718 719 761T737 848T755 933T772 1010Q797 1108 854 1163T1014 1219Q1074 1219 1116 1195T1187 1127T1236 1026Q1245 997 1253 965T1269 897T1284 827T1299 757T1312 691Q1325 617 1341 579T1396 540Q1430 540
1447 581T1475 685Q1482 716 1487 752T1498 827T1509 904T1520 976T1529 1039Q1539 1079 1563 1113T1635 1168T1764 1190Q1826 1190 1867 1170T1934 1112T1969 1028T1980 927Q1980 864 1974 792T1957 644T1927 495T1884 355T1828 236Q1769 130 1672 70T1467 10Q1350
10 1272 50T1145 181Q1135 205 1126 231T1108 285T1091 343T1077 406T1064 472Q1053 537 1039 580T999 623Q972 623 956 580T925 473Q908 391 887 318T836 186Q797 118 746 78T629 21T482 4Z" />
<glyph unicode="X" horiz-adv-x="1463" d="M230 -48Q167 -48 119 -25T43 43T16 148Q16 212 36 256T95 338Q113 357 140 380T201 430T270 480T340 523Q396 548 425 569T454 615Q454 635 435 650T368 686Q339 701 306 719T240 758T174 800T114 841Q73 868 49 912T24
1015Q24 1094 58 1141T143 1208T242 1229Q310 1229 356 1211T451 1144Q488 1109 522 1068T589 984T648 898Q673 855 690 836T731 816Q752 816 767 834T795 871Q810 894 829 924T871 989T916 1057T960 1118Q1005 1176 1063 1203T1186 1231Q1296 1231 1340 1182T1385
1054Q1385 1012 1364 964T1295 865Q1264 831 1228 796T1154 729T1083 674Q1035 646 1017 629T999 598Q999 586 1015 573T1058 545Q1142 497 1204 453T1312 363T1395 269Q1414 244 1423 212T1433 151Q1433 99 1399 58T1314 -7T1207 -31Q1143 -31 1099 -14T1024 31Q1004
52 980 83T930 150T881 217T841 274Q811 320 789 336T743 352Q720 352 695 332T630 252Q603 217 578 185T529 123T477 64T418 6Q388 -16 346 -32T230 -48Z" />
<glyph unicode="Y" horiz-adv-x="1427" d="M691 -20Q596 -20 554 16T493 129Q490 148 487 170T482 217T477 269T473 322Q468 394 457 449T404 530Q356 560 311 583T224 633Q174 664 137 703T75 786T38 878T26 977Q26 1047 57 1096T143 1171T264 1198Q317 1198
358 1175T434 1091Q453 1056 475 1019T522 947Q547 909 576 879T639 831T711 813Q750 813 785 835T853 893Q894 936 929 988T991 1080Q1031 1130 1070 1155T1157 1181Q1222 1181 1274 1148T1357 1061T1388 944Q1388 912 1381 876T1358 801T1318 726T1261 657Q1204
601 1151 567T1037 501Q998 481 976 467T942 436T917 396Q913 381 908 356T897 299T887 230T877 155Q867 75 819 28T691 -20Z" />
<glyph unicode="Z" horiz-adv-x="1259" d="M542 -57Q418 -57 304 -40T116 17Q64 43 37 80T10 165Q10 221 39 275T126 381Q163 414 212 455T317 541T426 630T527 713T609 782Q646 813 664 833T682 866Q682 881 661 887T599 894Q576 894 539 890T457 881T369 872T291
868Q202 868 145 881T61 923T33 1003Q33 1070 76 1113T195 1182T370 1217T582 1228Q690 1228 783 1221T946 1201T1055 1166Q1114 1136 1143 1095T1173 1002Q1173 955 1150 913T1092 831T1019 757Q998 735 968 706T904 641T832 568T758 495T689 427Q642 385 621
362T600 324Q600 316 611 311T651 302T732 299Q771 299 819 304T915 315T996 321Q1041 321 1078 309T1139 267T1163 182Q1163 134 1126 96T1024 29T879 -19T712 -47T542 -57Z" />
<glyph unicode="[" horiz-adv-x="769" d="M455 -431Q339 -431 251 -397T111 -286Q79 -239 59 -174T27 -16T11 201T6 495Q6 649 14 753T35 927T68 1044T111 1129Q146 1183 201 1214T337 1258T524 1272Q595 1272 649 1263T735 1232T767 1169Q767 1105 728 1078T618
1051Q542 1051 499 1043T432 1012T393 945Q376 893 359 772T342 485Q342 405 345 321T354 159T367 21T381 -73Q395 -138 429 -169T538 -212Q588 -218 623 -226T676 -249T694 -296Q694 -341 676 -371T607 -416T455 -431Z" />
<glyph unicode="\" horiz-adv-x="1077" d="M833 -2Q816 8 790 30T734 83T673 151T610 223T553 292T506 349Q455 399 405 462T310 591T231 708Q196 761 167 819T117 935T83 1043T72 1130Q74 1178 103 1203T186 1224Q210 1218 240 1196T303 1142T371 1071T439 990T502
908T555 834Q615 750 675 660T791 482T888 315T954 175Q966 144 971 119T975 76Q971 47 954 28T907 2T833 -2Z" />
<glyph unicode="]" horiz-adv-x="800" d="M416 -442Q303 -442 229 -429T118 -387T81 -308Q81 -266 106 -243T175 -206T279 -184Q343 -173 374 -150T417 -82T438 33Q441 57 443 93T447 172T452 265T455 364T456 465Q456 593 445 691T418 854Q398 942 354 978T229
1036Q170 1050 134 1063T80 1098T62 1156Q62 1205 96 1232T183 1269T293 1280Q425 1280 508 1245T641 1146Q687 1095 710 1000T743 783T752 528Q752 455 751 382T747 238T742 103T734 -16T725 -111Q709 -245 670 -317T567 -415T416 -442Z" />
<glyph unicode="^" horiz-adv-x="966" d="M118 730Q71 730 45 758T18 835Q18 866 30 906T65 991T119 1080Q163 1143 218 1195T337 1278T466 1310Q525 1310 575 1286T677 1222Q724 1185 771 1136T858 1033T922 926T946 832Q946 783 910 761T833 739Q811 739 789
750T746 779T707 817T673 855Q646 888 622 928T573 1007T524 1069T468 1093Q441 1093 416 1067T365 1001T316 920T270 849Q252 825 225 797T170 750T118 730Z" />
<glyph unicode="_" horiz-adv-x="1403" d="M721 -297Q501 -297 362 -292T148 -275T44 -241T15 -185Q15 -148 49 -123T164 -83T380 -62T721 -56Q975 -56 1120 -65T1325 -102T1385 -181Q1385 -231 1327 -256T1124 -289T721 -297Z" />
<glyph unicode="`" horiz-adv-x="660" d="M499 907Q441 907 366 928T221 984Q147 1020 99 1064T51 1159Q51 1209 78 1231T152 1253Q197 1253 258 1230T379 1173Q462 1124 520 1070T579 972Q579 937 556 922T499 907Z" />
<glyph unicode="a" horiz-adv-x="1342" d="M528 -126Q443 -126 361 -111T214 -59T109 39T70 190Q70 279 115 338T238 432T412 481T614 496Q640 496 666 495T714 492T749 490Q772 490 780 497T789 523Q789 542 784 557T770 584T748 604Q724 621 687 629T606 637Q550
637 495 625T387 601T279 589Q187 589 136 619T85 714Q85 774 126 819T237 894T394 938T574 953Q765 953 896 913T1095 776T1164 506Q1164 468 1161 439T1153 389T1145 350T1141 318Q1141 290 1160 263T1205 207T1250 144T1269 67Q1269 4 1229 -26T1135 -56Q1093
-56 1068 -35T1025 7T985 28Q969 28 950 18T904 -10Q873 -31 824 -58T702 -106T528 -126ZM562 120Q599 120 635 130T701 160T749 207T767 267Q767 292 751 304T705 321T630 326Q580 326 534 316T459 280T429 211Q429 179 446 159T494 130T562 120Z" />
<glyph unicode="b" horiz-adv-x="1372" d="M623 -43Q435 -43 305 9T108 172T41 463Q41 545 48 625T69 780T102 922T145 1046T196 1146Q240 1209 299 1243T429 1278Q512 1278 557 1236T602 1122Q602 1100 601 1076T597 1027T593 978T589 931T587 888Q587 829 590
804T611 778Q629 778 658 788T722 812Q749 825 787 833T871 842Q1000 842 1091 790T1231 643T1280 423Q1280 297 1228 209T1085 65T876 -17T623 -43ZM668 209Q700 209 733 221T794 256T839 312T857 389Q857 448 832 491T764 557T665 581Q615 581 577 560T517 499T495
408Q495 347 511 302T566 233T668 209Z" />
<glyph unicode="c" horiz-adv-x="1231" d="M657 -74Q531 -74 419 -44T219 49T83 213T33 456Q33 602 76 712T202 898T404 1011T675 1049Q796 1049 874 1024T991 957T1030 867Q1030 831 1012 802T964 756T903 739Q874 739 847 746T785 761T695 769Q642 769 599 752T524
704T475 628T457 531Q457 452 485 401T563 326T684 301Q738 301 785 311T871 335T940 359T990 369Q1045 369 1076 344T1121 283T1134 211Q1134 142 1098 89T998 0T846 -55T657 -74Z" />
<glyph unicode="d" horiz-adv-x="1282" d="M540 -59Q388 -59 274 -15T97 125T33 372Q33 512 82 607T229 751T467 799Q534 799 577 784T649 755Q664 747 676 741T696 735Q712 735 712 759Q712 774 709 805T700 875T689 954T680 1031T677 1090Q677 1286 880 1286Q950
1286 1010 1261T1109 1182Q1127 1151 1142 1108T1168 1015T1188 910T1200 803T1204 704Q1204 442 1141 273T933 23T540 -59ZM553 185Q615 185 659 208T726 273T750 369Q750 422 731 459T676 515T593 534Q536 534 490 510T416 443T389 343Q389 294 409 259T467 204T553
185Z" />
<glyph unicode="e" horiz-adv-x="1214" d="M620 -83Q446 -83 314 -30T109 134T36 414Q36 553 84 658T216 835T411 943T647 980Q733 980 814 965T962 917T1068 827T1108 691Q1108 625 1085 580T1022 506T929 457T817 425Q775 411 712 400T587 382T481 375Q451 375
439 368T426 342Q426 326 434 308T459 274Q484 246 520 237T607 227Q670 227 735 246T868 285T1002 304Q1072 304 1113 279T1155 177Q1155 113 1112 64T993 -18T821 -67T620 -83ZM564 542Q610 542 656 553T733 591T765 660Q765 711 726 731T628 752Q592 752 557
740T493 705T447 655T430 594Q430 571 444 560T489 545T564 542Z" />
<glyph unicode="f" horiz-adv-x="1088" d="M584 -55Q499 -55 454 -30T387 49Q381 70 375 100T363 167T352 241T343 317T335 387Q333 419 317 430T278 441Q264 441 246 438T202 429Q175 423 155 419T117 415Q85 415 63 430T28 470T16 525Q16 559 38 591T113 646Q133
655 164 665T230 685T296 702Q312 705 316 718T321 753Q321 778 316 808T305 875T299 951Q299 1061 353 1134T500 1243T713 1280Q763 1280 813 1273T906 1250T973 1208T999 1143Q999 1118 987 1097T948 1062Q929 1053 902 1049T837 1044Q760 1042 726 1006T691
908Q691 899 691 890T693 871T696 853Q700 832 709 822T736 812Q749 812 773 818T829 836Q849 843 869 848T908 858T937 862Q980 862 1004 833T1028 758Q1028 715 1013 684T961 626Q936 609 901 593T817 557Q770 538 752 506T734 428Q734 396 735 357T738 276T739
194T738 119T730 58Q715 2 682 -26T584 -55Z" />
<glyph unicode="g" horiz-adv-x="1376" d="M542 -456Q391 -456 297 -438T151 -389T80 -320T61 -245Q61 -202 90 -174T168 -132T278 -117Q317 -117 362 -121T454 -129T549 -134T642 -130Q680 -128 706 -114T750 -77T775 -30T783 22Q783 29 781 34T776 44T766 48Q754
48 734 39T682 18T610 -3T516 -13Q358 -13 250 37T87 187T31 436Q31 561 85 654T230 809T436 901T671 932Q803 932 912 893T1103 779T1228 592T1272 337Q1272 146 1227 -2T1090 -252T862 -404T542 -456ZM642 260Q690 260 729 273T797 312T840 372T856 449Q856 504
834 544T769 607T666 629Q626 629 587 618T516 583T464 522T444 434Q444 384 467 345T535 283T642 260Z" />
<glyph unicode="h" horiz-adv-x="1366" d="M227 -50Q162 -50 127 -22T71 58Q64 80 58 117T46 205T39 314T36 437Q36 508 41 581T59 725T90 864T135 991T193 1104Q240 1175 302 1213T444 1252Q525 1252 574 1203T623 1067Q623 1036 618 1002T606 933T592 868T581
812T576 774Q576 753 589 753Q603 753 623 768T676 803T759 838T883 853Q995 853 1070 815T1190 710T1254 561T1273 388Q1273 346 1269 302T1258 217T1240 141T1216 82Q1187 27 1135 0T1005 -28Q942 -28 907 -5T854 61Q847 82 844 112T839 178T836 253T831 333Q828
372 821 406T799 467T759 508T695 523Q653 523 621 510T565 473T528 422T506 364Q495 314 487 274T469 199T450 134T425 70Q398 12 348 -19T227 -50Z" />
<glyph unicode="i" horiz-adv-x="748" d="M278 -38Q192 -38 145 -8T79 82T61 227Q61 258 62 295T66 370T73 447T83 522T94 588T108 642Q143 729 211 775T388 821Q488 821 535 750T582 555Q582 519 580 476T574 387T563 296T547 210T528 135T504 79Q468 20 413
-9T278 -38ZM363 925Q238 925 185 966T131 1060Q131 1129 180 1177T304 1251T454 1276Q510 1276 557 1259T632 1205T661 1108Q661 1041 620 1001T511 943T363 925Z" />
<glyph unicode="j" horiz-adv-x="766" d="M55 -465Q-17 -465 -80 -452T-181 -406T-220 -319Q-220 -262 -187 -229T-105 -182Q-69 -172 -22 -171T73 -170Q131 -170 154 -104T177 80Q177 113 175 153T169 238T161 328T154 415T149 492T146 551Q146 690 210 753T386
816Q471 816 520 784T593 694T624 557T632 381Q633 362 634 337T636 283T637 227T638 173T639 128Q639 -78 569 -209T369 -402T55 -465ZM431 943Q382 943 329 950T231 974T158 1021T130 1098Q130 1156 160 1191T246 1242T373 1259Q419 1259 469 1249T564 1218T637
1163T665 1083Q665 1035 633 1004T547 958T431 943Z" />
<glyph unicode="k" horiz-adv-x="1278" d="M244 -48Q172 -48 133 -14T79 81T64 223Q64 268 69 328T83 459T102 608Q113 689 126 763T154 901T184 1018T217 1108Q252 1182 300 1224T413 1266Q500 1266 529 1208T559 1051Q559 1023 558 992T553 928T547 863T540
799T536 739T534 685Q534 653 538 631T553 608Q565 608 579 618T609 646Q622 660 641 680T683 723T729 769T774 811T812 841Q844 862 883 873T960 885Q1027 885 1069 851T1111 759Q1111 719 1087 676T1010 596Q969 561 933 534T866 478Q838 454 838 438Q838 429
846 421T871 404Q893 390 927 369T1001 324T1078 273T1142 223Q1166 201 1180 177T1195 125Q1195 85 1172 49T1110 -9T1021 -31Q975 -31 937 -13T864 36Q829 64 789 100T705 177T620 257Q597 280 576 296T533 312Q510 312 497 298T479 263Q460 193 444 143T410
57Q381 2 344 -23T244 -48Z" />
<glyph unicode="l" horiz-adv-x="921" d="M501 -56Q382 -56 304 -18T181 102T114 310Q104 354 97 412T85 534T77 661T73 774T73 859Q75 986 92 1076T156 1213T295 1260Q406 1260 448 1197T490 996Q490 972 489 934T485 848T481 750T477 649T474 555T472 479Q472
407 478 357T498 276T532 231T578 217Q610 217 639 230T696 256T754 270Q791 270 813 243T836 168Q836 117 805 76T722 5T613 -40T501 -56Z" />
<glyph unicode="m" horiz-adv-x="1711" d="M210 -29Q143 -29 104 4T47 96T30 229Q30 266 32 308T40 395T55 483T77 568T108 647Q173 778 265 842T484 906Q566 906 619 874T705 790T759 683Q775 638 797 604T849 570Q883 570 909 595T966 674Q999 735 1041 784T1145
863T1295 892Q1423 892 1500 830T1611 656T1645 402Q1645 360 1643 319T1637 238T1626 162T1609 95Q1586 32 1545 1T1433 -31Q1368 -31 1327 -2T1263 75Q1259 91 1256 109T1251 150T1247 196T1244 248T1241 305Q1238 355 1229 391T1205 446T1168 466Q1144 466 1123
441T1082 377T1044 296Q1007 204 961 164T830 123Q744 123 701 169T638 284Q623 339 610 377T580 434T541 454Q519 454 499 435T460 376Q444 337 433 295T414 211T401 131Q383 42 342 7T210 -29Z" />
<glyph unicode="n" horiz-adv-x="1417" d="M241 -22Q166 -22 117 6T44 99Q37 121 34 149T29 210T29 283Q33 489 114 634T339 855T670 932Q860 932 1005 858T1233 639T1316 285Q1316 251 1313 221T1305 165T1290 115Q1263 48 1213 13T1091 -22Q1009 -22 964 0T898
65T870 167Q865 224 860 268T849 349T837 414T822 470Q804 532 771 561T681 591Q628 591 593 560T534 468Q523 441 515 408T499 336T486 250T473 151Q465 82 432 45T349 -7T241 -22Z" />
<glyph unicode="o" horiz-adv-x="1426" d="M680 -58Q555 -58 439 -31T232 53T87 203T33 428Q33 573 84 684T225 872T435 986T691 1025Q823 1025 939 993T1144 894T1283 725T1334 483Q1334 371 1283 273T1141 101T933 -15T680 -58ZM659 316Q722 316 766 334T838
385T880 455T894 532Q894 582 874 617T821 675T746 707T662 718Q603 718 553 695T473 625T443 509Q443 450 469 407T543 340T659 316Z" />
<glyph unicode="p" horiz-adv-x="1354" d="M266 -471Q220 -471 183 -451T119 -393T72 -300Q62 -265 55 -227T41 -149T31 -66T25 18T23 102Q23 333 96 513T315 795T682 898Q810 898 917 864T1102 764T1222 604T1265 391Q1265 280 1229 197T1124 59T956 -25T728
-53Q665 -53 623 -44T556 -25T515 -16Q496 -16 485 -29T467 -72Q461 -92 457 -123T450 -188T445 -255T441 -312Q434 -406 388 -438T266 -471ZM652 241Q741 241 797 266T879 334T906 434Q906 480 886 522T819 590T693 617Q644 617 606 603T543 560T504 491T490 398Q490
345 506 310T558 258T652 241Z" />
<glyph unicode="q" horiz-adv-x="1396" d="M1083 -432Q1026 -432 981 -405T906 -343Q883 -315 865 -281T833 -208T813 -135Q804 -93 794 -62T764 -31Q745 -31 704 -35T582 -40Q489 -40 392 -16T213 61T81 199T30 408Q30 556 82 664T228 844T448 950T724 986Q889
986 1021 924T1230 748T1307 481Q1307 343 1274 255T1178 106Q1142 70 1125 45T1107 -2Q1107 -15 1119 -34T1154 -78Q1178 -108 1202 -139T1253 -203Q1268 -222 1275 -242T1283 -282Q1283 -332 1253 -366T1176 -416T1083 -432ZM683 291Q746 291 797 314T878 380T908
486Q908 537 891 573T844 630T780 661T707 671Q667 671 627 660T553 625T500 563T479 469Q479 423 497 390T544 334T610 302T683 291Z" />
<glyph unicode="r" horiz-adv-x="1148" d="M381 -38Q332 -38 295 -26T228 10T177 66Q152 103 133 150T101 250T82 358T75 466Q75 634 148 751T351 931T656 993Q739 993 818 980T960 938T1062 866T1100 763Q1100 706 1077 674T1018 630T943 617Q883 617 831 631T710
645Q631 645 586 599T541 461Q541 426 544 392T553 327T563 266T571 210T575 162Q575 61 529 12T381 -38Z" />
<glyph unicode="s" horiz-adv-x="1106" d="M527 -39Q449 -39 380 -34T254 -17T153 10Q96 32 60 62T23 150Q23 215 59 253T168 291Q208 291 252 281T349 261T466 251Q512 251 549 256T609 277T631 319Q631 345 615 361T554 390T423 418Q309 438 228 475T104 572T61
715Q61 792 105 846T226 934T399 984T598 1000Q667 1000 738 992T870 966T968 920T1005 850Q1005 798 981 766T919 721T841 707Q787 707 734 717T639 728Q606 728 580 722T540 704T525 670Q525 639 570 622T716 586Q814 569 889 534T1006 438T1049 286Q1049 203
1010 142T901 41T736 -19T527 -39Z" />
<glyph unicode="t" horiz-adv-x="1183" d="M712 -25Q627 -25 551 -2T427 73T376 216Q375 239 375 266T374 323T373 382T373 441T373 498Q373 542 350 555T290 572Q270 574 247 576T199 580T148 585Q96 592 66 629T35 734Q35 781 53 806T101 844T167 864Q211 871
245 877T307 890Q335 896 352 909T374 955Q378 978 381 1001T387 1046T396 1085Q416 1143 450 1168T556 1193Q613 1193 646 1180T698 1138T729 1062Q733 1038 736 1020T741 986T746 955T751 920Q755 890 776 875T827 854Q853 850 877 847T924 840T970 834Q1021
827 1062 799T1104 703Q1104 645 1070 609T984 566Q939 563 897 561T829 556Q807 554 789 542T767 491Q767 470 766 448T765 404T766 361T767 320T770 283Q773 246 790 229T850 212Q881 212 902 224T943 248T987 260Q1027 260 1044 239T1062 177Q1062 130 1030
93T947 29T834 -11T712 -25Z" />
<glyph unicode="u" horiz-adv-x="1434" d="M683 -73Q525 -73 404 -33T200 85T75 280T32 552Q32 593 36 632T50 707T71 773Q103 848 160 888T299 928Q379 928 418 903T471 840T486 766Q488 742 488 718T490 669T493 623T497 581Q506 490 528 428T590 333T696 301Q754
301 795 326T862 404T905 538Q911 567 914 595T920 652T927 708T939 765Q959 831 1006 872T1143 913Q1221 913 1262 871T1322 756Q1328 727 1331 696T1335 631T1337 564T1336 496Q1331 298 1250 172T1024 -13T683 -73Z" />
<glyph unicode="v" horiz-adv-x="1495" d="M745 -70Q675 -70 594 -26T430 92Q392 126 351 172T270 270T192 376T125 483T72 580Q50 627 38 669T25 748Q25 800 53 840T130 902T234 924Q311 924 365 895T461 809Q477 787 495 755T533 682T575 598T616 511T655 429Q673
390 692 366T728 342Q745 342 766 366T806 432Q848 520 890 614T983 795Q1024 852 1074 881T1200 911Q1287 911 1342 868T1397 740Q1397 699 1385 653T1349 558Q1331 516 1305 466T1247 364T1181 261T1111 165T1040 86Q966 16 890 -27T745 -70Z" />
<glyph unicode="w" horiz-adv-x="1806" d="M426 -11Q325 -11 255 34T135 151Q114 183 97 229T66 331T44 443T31 557T26 661Q26 745 50 812T123 919T246 959Q320 959 355 925T410 834Q417 811 422 782T434 721T446 658T457 599T467 553Q476 519 492 495T532 471Q553
471 567 496T591 557Q599 587 607 623T624 697T645 771T670 839Q695 886 741 918T875 951Q953 951 995 925T1059 859Q1069 839 1079 810T1098 749T1116 684T1131 623T1143 574Q1153 535 1165 508T1199 480Q1225 480 1239 505T1265 569Q1272 592 1280 626T1297 700T1315
779T1335 850Q1359 901 1398 931T1508 962Q1556 962 1600 946T1679 893T1734 797T1754 647Q1754 602 1749 554T1735 457T1713 361T1684 272T1650 195T1613 134Q1556 66 1477 30T1297 -7Q1201 -7 1130 39T1025 145Q1012 178 1000 216T978 292T959 364T944 426Q936
466 924 493T881 520Q848 520 833 489T808 421Q803 401 797 373T783 313T767 249T749 189T730 139Q697 79 614 34T426 -11Z" />
<glyph unicode="x" horiz-adv-x="1418" d="M258 -72Q204 -72 157 -57T79 -4T49 97Q49 135 60 167T95 228Q117 256 153 284T233 336T327 380Q366 397 403 414T465 447T490 477Q490 490 462 504T390 533T302 561Q247 576 199 600T116 655Q82 683 64 722T45 810Q45
861 74 902T152 969T264 995Q305 995 342 984T413 951Q463 921 508 875T590 773Q629 719 658 684T704 649Q714 649 730 665T766 707T809 764Q845 814 881 850T958 914Q999 941 1045 957T1141 973Q1229 973 1280 927T1331 801Q1331 744 1307 700T1240 624Q1211 602
1174 584T1091 549Q1035 528 1001 516T951 496T935 479Q935 468 986 449T1129 397Q1163 384 1194 368T1251 334T1295 300Q1328 270 1345 232T1362 145Q1362 97 1341 63T1286 8T1212 -22T1133 -32Q1086 -32 1043 -16T958 34Q927 60 894 98T820 192Q788 233 761 267T710
302Q694 302 678 289T638 244T579 151Q557 115 531 81T478 20T423 -25Q389 -47 348 -59T258 -72Z" />
<glyph unicode="y" horiz-adv-x="1387" d="M315 -425Q239 -425 193 -384T146 -284Q146 -223 183 -181T290 -113Q334 -92 384 -66T479 -11T550 46T578 102Q578 124 546 149T432 208Q367 236 308 273T198 354T110 450T52 556T31 668Q31 726 58 773T134 849T244 877Q333
877 394 843T501 732Q539 653 570 585T638 470Q659 443 683 425T726 406Q754 406 778 429T815 484Q846 544 876 623T939 766Q972 819 1021 854T1141 889Q1255 889 1300 834T1345 687Q1345 632 1326 566T1273 426T1199 282T1114 147T1028 32Q953 -60 869 -142T694
-288T508 -388T315 -425Z" />
<glyph unicode="z" horiz-adv-x="1162" d="M598 -47Q486 -47 370 -39T168 -4Q86 20 47 65T7 186Q7 220 20 261T67 346T169 430Q202 450 240 474T320 523T402 572T479 616T545 651Q603 675 617 690T631 717Q631 731 610 735T554 739Q514 739 468 736T373 729T282
722T203 719Q165 719 135 731T86 769T68 830Q68 876 104 907T200 957T334 987T481 1003Q518 1006 563 1008T658 1013T752 1017T832 1018Q975 1018 1037 971T1099 840Q1099 778 1066 720T946 607Q895 574 837 537T721 465T615 402T536 356Q503 339 492 326T480 298Q480
283 496 276T549 266T645 263Q719 263 788 268T936 273Q1012 273 1051 241T1091 151Q1091 96 1052 59T945 -2T788 -36T598 -47Z" />
<glyph unicode="{" horiz-adv-x="734" d="M600 -409Q574 -409 547 -405T493 -394T444 -378Q392 -355 353 -316T291 -227T264 -120Q261 -70 256 -20T242 77T218 164T178 236Q156 269 133 287T89 320T57 351T44 399Q44 429 56 449T88 486T127 518T158 555Q177 579
184 614T191 686Q191 707 190 732T187 786T184 840T183 890Q183 997 218 1066T316 1195Q355 1232 406 1253T510 1284T600 1294Q652 1294 685 1270T718 1192Q718 1156 698 1136T650 1098T595 1056T555 988Q549 967 544 946T537 902T534 856Q534 836 535 803T537
735T538 676Q538 627 527 596T497 544T458 508Q428 485 408 467T388 429Q388 412 400 400T447 370Q498 346 534 299T573 179Q574 146 573 114T571 51T569 -11T572 -70Q577 -133 594 -169T648 -225Q674 -238 692 -256T711 -305Q711 -357 683 -383T600 -409Z" />
<glyph unicode="|" horiz-adv-x="482" d="M188 -391Q139 -391 109 -357T62 -266T40 -137T34 8Q34 60 35 143T39 328T45 532T51 729T58 892T65 992Q76 1089 99 1163T162 1280T255 1323Q304 1323 331 1291T369 1203T384 1071T387 909Q387 869 386 808T384 673T380
518T376 356T372 202T367 69T363 -28Q359 -115 340 -198T284 -336T188 -391Z" />
<glyph unicode="}" horiz-adv-x="734" d="M185 -399Q154 -399 123 -389T70 -355T49 -293Q49 -265 72 -245T124 -207Q179 -169 206 -133T234 -21Q234 15 232 58T227 145T228 222Q232 292 259 332T320 394T379 431T404 466Q404 480 385 492T340 522T295 571T275
657Q275 684 280 719T291 794T297 874Q297 953 269 998T175 1064Q128 1077 94 1102T60 1185Q60 1235 100 1255T184 1275Q258 1275 312 1260T425 1209Q474 1181 514 1129T578 1012T603 883Q603 857 600 831T594 778T587 722T584 661Q584 627 600 608T637 574T674
538T690 481Q690 441 671 418T626 372T578 319T553 233Q551 196 551 156T553 81T555 19Q555 -65 523 -146T435 -284Q385 -337 317 -368T185 -399Z" />
<glyph unicode="~" horiz-adv-x="1022" d="M254 934Q230 934 214 947T197 995Q197 1044 223 1088T294 1161T390 1190Q433 1190 462 1171T515 1127T558 1083T602 1064Q629 1064 646 1077T681 1128Q695 1157 709 1169T748 1181Q768 1181 784 1168T800 1116Q800 1069
773 1027T702 960T611 934Q569 934 538 952T483 993T439 1034T398 1052Q376 1052 358 1035T324 986Q309 953 292 944T254 934Z" />
<glyph unicode="&#xa0;" horiz-adv-x="675" />
<glyph unicode="&#xa1;" horiz-adv-x="495" d="M213 546Q251 546 279 536T328 503T362 443T384 354T397 230T402 69T404 -135Q404 -183 403 -224T397 -299T385 -360T363 -406T330 -439T281 -458T216 -465Q178 -465 151 -456T104 -428T73 -385T54 -327T44 -257T41
-175T40 -83Q40 16 44 98T56 245T75 359T102 444T134 502T171 535T213 546ZM230 911Q270 911 311 902T379 869T407 797Q407 751 381 718T314 668T228 650Q193 650 156 662T93 699T67 764Q67 817 90 849T152 896T230 911Z" />
<glyph unicode="&#xa2;" horiz-adv-x="1005" d="M551 907Q502 907 473 922T431 966T417 1031Q417 1089 425 1132T451 1203T494 1244T556 1258Q583 1258 604 1248T641 1212T664 1147T672 1049Q672 1004 662 972T625 923T551 907ZM548 -61Q517 -61 492 -50T450 -16T423
41T414 124Q414 168 421 202T445 261T489 297T557 310Q587 310 610 300T651 269T676 221T685 158Q685 100 677 59T651 -9T608 -48T548 -61ZM568 111Q430 111 314 155T126 295T55 546Q55 666 90 757T194 910T360 1003T582 1034Q682 1034 746 1013T842 958T874 885Q874
856 859 833T821 795T770 781Q747 781 725 787T674 800T599 807Q541 807 496 782T426 711T400 607Q400 542 423 499T489 436T589 415Q635 415 674 423T745 444T802 464T842 473Q887 473 913 453T949 403T960 344Q960 287 930 244T847 172T723 127T568 111Z" />
<glyph unicode="&#xa3;" horiz-adv-x="1084" d="M368 503Q293 503 226 507T107 522T25 554T-5 607Q-5 661 41 686T180 719T412 726Q513 726 596 724T738 711T830 676T862 608Q862 571 827 550T726 518T569 506T368 503ZM180 -63Q117 -63 79 -27T41 59Q41 110 61
143T108 210T154 290T175 419Q175 447 175 483T176 561T179 648T183 737Q191 886 238 1005T388 1193T664 1263Q746 1263 813 1246T929 1194T1004 1111T1031 999Q1031 953 1002 935T933 917Q895 917 867 932T812 968T755 1004T679 1019Q620 1019 586 981T537 878T523
729Q523 692 523 655T523 583T521 515T519 456T515 409Q512 355 503 320T486 263T478 231Q478 210 500 210Q515 210 540 216T595 227T654 233Q706 233 747 230T824 222T893 216Q963 207 998 180T1034 98Q1034 30 990 1T896 -28Q842 -28 789 -24T668 -15T499 -10Q434
-10 383 -23T283 -49T180 -63Z" />
<glyph unicode="&#xa4;" horiz-adv-x="1163" d="M598 132Q498 132 406 156T241 230T126 357T83 539Q83 655 123 739T235 878T403 959T607 985Q711 985 803 959T967 880T1078 746T1119 552Q1119 464 1079 387T967 253T801 164T598 132ZM156 53Q121 53 94 80T67
143Q67 173 87 208T152 287Q192 328 228 350T296 372Q332 372 361 346T390 281Q390 253 374 222T327 160Q272 104 230 79T156 53ZM244 732Q220 732 194 749T137 796Q82 851 57 891T32 959Q32 989 58 1013T117 1037Q150 1037 194 1009T295 924Q317 902 329 880T341
835Q341 812 326 788T289 748T244 732ZM1046 26Q1013 26 972 51T875 133Q844 164 828 195T811 254Q811 292 840 318T905 345Q937 345 973 323T1050 260Q1094 216 1114 181T1135 116Q1135 80 1108 53T1046 26ZM582 408Q632 408 668 423T727 464T761 521T772 584Q772
637 744 670T673 719T584 734Q548 734 517 724T460 692T421 638T407 564Q407 517 428 482T488 427T582 408ZM885 780Q863 780 841 795T803 835T788 883Q788 905 799 927T833 971Q890 1028 934 1056T1012 1084Q1044 1084 1070 1061T1097 1006Q1097 979 1072 939T991
843Q961 814 935 797T885 780Z" />
<glyph unicode="&#xa5;" horiz-adv-x="1427" d="M603 203Q503 203 414 206T258 217T152 240T113 278Q113 308 146 325T248 352T419 363T661 366Q795 366 904 365T1090 355T1210 329T1252 280Q1252 253 1206 237T1074 214T869 205T603 203ZM603 421Q497 421 404
424T238 435T126 458T85 497Q85 526 120 543T228 570T409 582T665 585Q807 585 922 583T1120 573T1246 547T1290 498Q1290 471 1242 455T1103 432T886 423T603 421ZM691 -20Q596 -20 554 16T493 129Q490 148 487 170T482 217T477 269T473 322Q468 394 457 449T404
530Q356 560 311 583T224 633Q174 664 137 703T75 786T38 878T26 977Q26 1047 57 1096T143 1171T264 1198Q317 1198 358 1175T434 1091Q453 1056 475 1019T522 947Q547 909 576 879T639 831T711 813Q750 813 785 835T853 893Q894 936 929 988T991 1080Q1031 1130
1070 1155T1157 1181Q1222 1181 1274 1148T1357 1061T1388 944Q1388 912 1381 876T1358 801T1318 726T1261 657Q1204 601 1151 567T1037 501Q998 481 976 467T942 436T917 396Q913 381 908 356T897 299T887 230T877 155Q867 75 819 28T691 -20Z" />
<glyph unicode="&#xa6;" horiz-adv-x="482" d="M203 544Q137 544 104 575T60 653T49 743Q49 771 50 814T52 907T56 1004T62 1087T69 1140Q79 1183 101 1225T160 1295T251 1323Q323 1323 357 1270T391 1139Q391 1115 391 1073T389 982T386 882T382 792T378 727Q374
688 355 646T298 574T203 544ZM205 -403Q155 -403 125 -379T77 -319T54 -244T48 -174Q48 -139 48 -90T48 12T49 111T52 186Q56 271 104 323T234 376Q306 376 340 321T374 185Q374 154 375 112T376 24T377 -63T378 -134Q378 -201 359 -262T302 -363T205 -403Z" />
<glyph unicode="&#xa7;" horiz-adv-x="1088" d="M517 -216Q440 -216 375 -209T257 -191T160 -166Q105 -148 73 -112T40 -32Q40 9 71 34T154 59Q193 59 245 44T356 14T479 -1Q540 -1 598 8T694 38T732 97Q732 122 712 141T653 175T561 204T441 231Q331 253 251
287T126 376T82 514Q82 579 120 631T226 720T383 776T574 796L572 640Q530 640 492 625T431 584T407 525Q407 490 436 468T517 431T640 406Q712 395 783 375T911 322T1003 239T1038 115Q1038 45 999 -15T889 -120T723 -190T517 -216ZM516 260L479 415Q540 415 598
424T694 454T732 513Q732 540 706 561T633 598T527 629T401 656Q291 678 221 716T116 809T82 936Q82 1001 122 1054T233 1146T394 1206T587 1227Q655 1227 725 1214T854 1177T950 1119T986 1044Q986 986 949 967T871 947Q829 947 790 959T703 985T592 998Q550 998
516 988T463 961T443 918Q443 892 463 872T526 838T640 812Q712 802 783 782T911 730T1003 647T1038 524Q1038 454 999 404T888 322T722 275T516 260Z" />
<glyph unicode="&#xa8;" horiz-adv-x="928" d="M272 879Q180 879 139 917T97 1009Q97 1080 146 1115T247 1151Q288 1151 325 1139T386 1095T410 1007Q410 953 381 916T272 879ZM717 881Q649 881 606 918T562 1012Q562 1078 612 1121T736 1164Q802 1164 834 1124T867
1033Q867 971 826 926T717 881Z" />
<glyph unicode="&#xa9;" horiz-adv-x="1605" d="M821 -106Q627 -106 477 -65T224 63T68 280T15 591Q15 767 73 901T237 1127T487 1265T802 1312Q977 1312 1112 1268T1341 1134T1482 912T1530 602Q1530 353 1453 197T1219 -32T821 -106ZM757 118Q941 118 1063 167T1247
326T1308 614Q1308 759 1248 868T1074 1039T803 1100Q696 1100 598 1062T424 956T303 800T258 611Q258 496 294 405T397 250T555 152T757 118ZM815 238Q706 238 614 274T465 387T409 586Q409 713 459 799T603 931T828 976Q905 976 956 960T1033 918T1059 862Q1059
829 1035 807T981 784Q963 784 946 789T904 800T841 805Q790 805 751 783T690 722T667 631Q667 576 687 539T745 484T831 466Q872 466 905 474T964 492T1010 510T1042 518Q1092 518 1111 486T1130 422Q1130 380 1107 346T1041 288T942 251T815 238Z" />
<glyph unicode="&#xaa;" horiz-adv-x="553" d="M212 808Q166 808 124 819T56 858T30 935Q30 984 60 1011T139 1050T246 1061Q262 1061 274 1060T294 1059Q303 1059 306 1062T310 1072Q310 1081 308 1089T297 1102Q287 1109 274 1111T244 1114Q212 1114 178 1104T110
1093Q71 1093 50 1105T28 1146Q28 1181 57 1202T134 1234T232 1244Q349 1244 411 1208T474 1066Q474 1040 471 1025T468 996Q468 981 481 964T507 929T520 886Q520 860 503 847T463 834Q437 834 425 851T401 869Q394 869 387 865T368 854Q348 840 313 824T212 808ZM229
915Q254 915 277 927T300 963Q300 976 288 980T254 984Q228 984 205 976T182 944Q182 928 196 922T229 915Z" />
<glyph unicode="&#xab;" horiz-adv-x="828" d="M733 239Q716 239 680 258T608 304T551 348Q506 388 467 431T404 524T379 632Q379 674 391 712T423 787T468 859T521 928Q544 958 579 990T651 1045T711 1068Q750 1068 769 1045T789 987Q789 958 777 926T741 857T678
777Q658 755 641 731T614 684T604 642Q604 626 616 605T648 562T691 519Q728 487 754 454T793 389T806 330Q806 286 787 263T733 239ZM374 239Q357 239 321 258T249 304T192 348Q147 388 108 431T45 524T20 632Q20 674 32 712T64 787T109 859T162 928Q185 958 220
990T292 1045T352 1068Q391 1068 410 1045T430 987Q430 958 418 926T382 857T319 777Q299 755 282 731T255 684T245 642Q245 626 257 605T289 562T332 519Q369 487 395 454T434 389T447 330Q447 286 428 263T374 239Z" />
<glyph unicode="&#xac;" horiz-adv-x="996" d="M780 234Q711 234 686 268T661 347Q661 358 662 374T664 410T667 446T668 477Q668 503 642 513T563 525Q552 526 518 526T439 528T345 530T257 532T195 534Q148 536 108 548T44 584T20 641Q20 674 37 703T103 754T242
790T482 803Q636 803 732 789T880 749T951 691T971 622Q971 573 968 531T961 453T951 389T937 337Q930 316 914 292T866 251T780 234Z" />
<glyph unicode="&#xad;" horiz-adv-x="950" d="M397 450Q321 450 252 456T129 479T44 526T13 603Q13 683 62 720T206 768T442 779Q547 779 632 776T778 756T872 705T906 604Q906 550 870 519T767 473T607 454T397 450Z" />
<glyph unicode="&#xae;" horiz-adv-x="1637" d="M793 -111Q616 -111 473 -66T227 69T70 289T15 590Q15 762 76 895T246 1121T502 1260T819 1308Q986 1308 1122 1263T1356 1129T1508 912T1561 614Q1561 436 1506 301T1348 74T1105 -64T793 -111ZM763 99Q905 99
1012 134T1193 237T1303 401T1340 622Q1340 780 1282 890T1111 1059T836 1118Q711 1118 605 1087T421 992T299 834T255 613Q255 488 292 392T398 231T559 133T763 99ZM596 236Q547 236 513 259T460 324Q452 345 446 377T437 446T433 521T431 589Q431 707 456 786T529
912T646 979T802 1000Q887 1000 962 974T1086 896T1134 772Q1134 727 1119 697T1078 649T1024 621T965 604Q949 601 940 596T931 582Q931 574 952 556T1002 513T1051 464Q1065 449 1081 430T1113 391T1138 356T1148 332Q1148 290 1111 269T1026 247Q1000 247 974
256T923 282T875 324T831 379Q806 414 784 442T745 487T722 503Q718 503 716 496T713 474T712 432Q712 420 712 403T713 368T712 334T709 309Q700 267 669 252T596 236ZM767 677Q784 677 806 682T850 699T886 728T900 774Q900 802 884 820T842 846T788 855Q753
855 736 841T711 801Q706 784 704 766T701 725Q701 699 718 688T767 677Z" />
<glyph unicode="&#xaf;" horiz-adv-x="944" d="M481 932Q367 932 281 937T146 963T98 1026Q98 1067 129 1088T248 1116T505 1124Q627 1124 707 1117T827 1093T867 1041Q867 990 824 967T695 938T481 932Z" />
<glyph unicode="&#xb0;" horiz-adv-x="632" d="M309 808Q215 808 147 837T42 916T6 1023Q6 1101 45 1157T153 1242T304 1272Q390 1272 458 1251T566 1179T606 1039Q606 968 563 916T452 836T309 808ZM318 956Q375 956 404 981T434 1059Q434 1088 417 1105T374
1131T318 1140Q291 1140 264 1129T220 1097T202 1044Q202 1015 219 995T262 966T318 956Z" />
<glyph unicode="&#xb1;" horiz-adv-x="1161" d="M510 34Q418 34 338 39T196 59T101 99T66 166Q66 217 96 247T188 292T343 312T564 317Q687 317 786 314T955 298T1062 253T1100 167Q1100 120 1059 93T940 53T754 37T510 34ZM586 381Q531 381 504 415T457 505Q454
516 452 526T448 545T445 564T441 582Q433 629 419 651T381 680T315 687Q298 687 277 687T232 689T186 692T147 698Q93 711 59 741T24 826Q24 863 50 888T118 927T211 945Q251 948 285 951T346 959T388 971Q408 980 416 999T427 1058Q428 1072 429 1086T432 1115T436
1143T442 1172Q463 1242 496 1266T604 1290Q646 1290 679 1264T727 1206Q733 1190 736 1175T742 1143T745 1111T746 1079Q747 1031 760 1001T802 969Q828 967 862 964T933 957T1002 946T1055 933Q1105 915 1124 886T1144 823Q1144 780 1118 757T1040 721Q1003 712
963 707T884 699T810 696Q777 695 755 673T732 589Q732 574 731 560T728 531T723 505T717 483Q703 440 668 411T586 381Z" />
<glyph unicode="&#xb2;" horiz-adv-x="511" d="M136 667Q90 673 58 688T25 748Q25 772 34 794T78 835Q111 854 156 878T238 926Q268 945 285 964T303 1003Q303 1023 287 1032T242 1042Q212 1042 189 1033T150 1012Q133 998 116 989T82 980Q62 980 45 994T28 1034Q28
1075 59 1106T140 1155T251 1173Q307 1173 355 1161T434 1117T464 1029Q464 993 446 965T396 911Q375 893 352 879T306 853T267 832Q243 822 243 813Q243 807 255 806T282 805Q308 805 349 811T416 818Q445 818 462 805T479 768Q479 726 452 703T378 671T267 661Q234
661 200 661T136 667Z" />
<glyph unicode="&#xb3;" horiz-adv-x="531" d="M239 647Q180 647 129 658T47 690T16 741Q16 782 39 794T79 807Q113 807 152 791T236 775Q280 775 309 784T339 813Q339 832 316 843T256 862Q224 869 203 882T181 918Q181 939 197 949T237 965Q269 974 290 985T311
1014Q311 1034 289 1042T226 1050Q184 1050 145 1042T86 1034Q56 1034 40 1051T23 1091Q23 1120 54 1139T136 1167T242 1176Q358 1176 414 1140T470 1040Q470 1014 454 993T410 955Q397 946 390 939T383 925Q383 918 394 913T420 900Q450 888 477 864T504 797Q504
750 475 716T386 665T239 647Z" />
<glyph unicode="&#xb4;" horiz-adv-x="653" d="M146 907Q112 907 89 922T66 972Q66 1016 125 1070T266 1173Q326 1207 387 1230T493 1253Q541 1253 567 1231T594 1159Q594 1108 547 1064T425 984Q355 950 280 929T146 907Z" />
<glyph unicode="&#xb5;" horiz-adv-x="1499" d="M303 -461Q259 -461 216 -443T140 -380T91 -258Q86 -229 81 -181T70 -71T59 65T49 218T42 383T40 552Q40 655 69 740T158 877T307 928Q386 928 425 903T478 840T494 766Q494 742 495 718T497 669T501 623T505 581Q514
490 535 428T598 333T704 301Q762 301 809 326T884 403T912 538Q912 575 914 606T919 665T928 718T940 768Q963 834 1009 873T1145 913Q1223 913 1265 871T1325 756Q1329 737 1332 717T1337 675T1340 632T1342 588T1343 543T1344 496Q1344 385 1347 316T1357 214T1379
181Q1399 181 1409 186T1436 191Q1450 191 1466 179T1493 138T1504 63Q1504 2 1479 -33T1414 -85T1331 -108T1254 -114Q1176 -114 1120 -80T1028 15T976 154L1052 100Q1019 24 935 -24T707 -73Q627 -73 566 -40T467 39T417 121L495 146Q495 104 496 62T499 -23T503
-103T506 -174T509 -233T510 -276Q510 -370 457 -415T303 -461Z" />
<glyph unicode="&#xb6;" horiz-adv-x="1072" d="M608 -190Q537 -190 520 -142T503 -5Q503 14 503 58T505 160T506 279T507 395T508 488T509 535Q509 550 503 559T481 569Q465 569 437 561T373 545T296 536Q227 536 171 572T81 677T48 840Q48 957 97 1030T222 1142T385
1197T544 1212Q589 1212 646 1208T763 1191T870 1152Q934 1117 978 1036T1022 795Q1022 742 1020 668T1016 508T1010 338T1005 178T1000 48T998 -31Q998 -118 971 -153T892 -189Q858 -189 836 -161T814 -45Q814 -20 814 31T816 152T819 298T822 454T824 602T826
725T827 807Q827 911 811 956T762 1001Q740 1001 728 982T709 931T702 866T700 802Q700 755 700 698T698 577T696 445T694 308T693 170T692 38Q692 -84 679 -137T608 -190Z" />
<glyph unicode="&#xb7;" horiz-adv-x="386" d="M205 512Q134 512 77 548T19 653Q19 690 45 720T112 767T194 785Q238 785 278 764T343 709T369 630Q369 566 322 539T205 512Z" />
<glyph unicode="&#xb8;" horiz-adv-x="772" d="M357 -458Q300 -458 244 -452T152 -425T115 -363Q115 -324 138 -306T198 -287Q229 -287 249 -295T293 -311T354 -319Q404 -319 438 -311T491 -287T509 -246Q509 -220 496 -211T453 -202Q426 -202 402 -210T351 -227T289
-236Q243 -236 208 -218T172 -138Q172 -111 177 -84T192 -34T210 5Q226 29 254 49T340 69Q380 69 401 50T423 4Q423 -22 413 -50T403 -104Q403 -124 420 -124Q435 -124 455 -112T503 -88T571 -76Q608 -76 640 -90T694 -139T715 -232Q715 -346 619 -402T357 -458Z"
/>
<glyph unicode="&#xb9;" horiz-adv-x="344" d="M186 653Q145 653 121 674T97 733Q97 750 99 778T105 840T113 905T119 964T122 1005Q122 1025 103 1031Q89 1034 73 1034T49 1038Q37 1044 31 1053T24 1075Q24 1099 54 1122T126 1161T197 1177Q242 1177 263 1142T290
1053T296 948Q296 927 295 902T292 853T288 804T282 759T274 721Q256 653 186 653Z" />
<glyph unicode="&#xba;" horiz-adv-x="623" d="M295 829Q213 829 152 854T58 923T24 1018Q24 1079 57 1128T154 1207T313 1237Q402 1237 460 1206T546 1123T574 1011Q574 953 531 912T423 850T295 829ZM304 965Q354 965 385 986T416 1042Q416 1076 384 1100T298
1125Q262 1125 231 1106T199 1047Q199 1019 214 1001T254 974T304 965Z" />
<glyph unicode="&#xbb;" horiz-adv-x="828" d="M488 237Q449 237 429 260T409 318Q409 346 421 378T458 448T521 527Q542 550 558 574T584 621T594 663Q594 678 582 699T551 743T508 786Q452 834 423 883T393 975Q393 1065 466 1065Q483 1065 518 1046T590 1001T648
957Q692 917 731 874T795 781T820 672Q820 631 808 593T776 518T731 446T678 377Q655 348 619 315T548 260T488 237ZM369 237Q330 237 310 260T290 318Q290 346 302 378T339 448T402 527Q423 550 439 574T465 621T475 663Q475 678 463 699T432 743T389 786Q333
834 304 883T274 975Q274 1065 347 1065Q364 1065 399 1046T471 1001T529 957Q573 917 612 874T676 781T701 672Q701 631 689 593T657 518T612 446T559 377Q536 348 500 315T429 260T369 237Z" />
<glyph unicode="&#xbc;" horiz-adv-x="1169" d="M186 653Q145 653 121 674T97 733Q97 750 99 778T105 840T113 905T119 964T122 1005Q122 1025 103 1031Q89 1034 73 1034T49 1038Q37 1044 31 1053T24 1075Q24 1099 54 1122T126 1161T197 1177Q242 1177 263 1142T290
1053T296 948Q296 927 295 902T292 853T288 804T282 759T274 721Q256 653 186 653ZM-21 -2Q-36 -2 -50 4T-72 22T-81 54Q-81 80 -54 117T20 200T120 298Q162 336 210 382T311 481T418 589T527 699T631 807T727 907T810 992Q846 1029 889 1069T973 1137T1045 1166Q1056
1166 1063 1164T1076 1156T1084 1144T1087 1125Q1087 1098 1056 1055T982 964T900 877Q837 812 772 744T639 607T504 467T369 329T236 195Q200 159 150 113T53 32T-21 -2ZM979 -16Q953 -16 934 -4T914 39Q914 48 914 58T914 78T913 94Q911 110 900 118T855 128Q819
129 792 130T740 137Q706 142 693 170T679 237Q679 277 692 326T719 406Q731 432 749 453T801 475Q822 475 834 465T846 433Q846 419 842 403T832 368T822 331T818 293Q818 268 823 260T838 249Q851 245 867 244T898 243Q914 243 922 250T930 277Q930 287 931 308T934
353T937 397T940 427Q945 454 959 469T998 484Q1026 484 1039 469T1056 427Q1059 413 1060 395T1061 355T1062 310T1062 261Q1062 235 1085 235Q1099 235 1110 235T1131 232Q1144 228 1150 218T1157 191Q1157 167 1149 156T1119 139Q1112 138 1100 136T1073 132Q1062
130 1058 123T1053 101Q1051 87 1049 67T1043 31Q1031 -16 979 -16Z" />
<glyph unicode="&#xbd;" horiz-adv-x="1165" d="M186 653Q145 653 121 674T97 733Q97 750 99 778T105 840T113 905T119 964T122 1005Q122 1025 103 1031Q89 1034 73 1034T49 1038Q37 1044 31 1053T24 1075Q24 1099 54 1122T126 1161T197 1177Q242 1177 263 1142T290
1053T296 948Q296 927 295 902T292 853T288 804T282 759T274 721Q256 653 186 653ZM-21 -2Q-36 -2 -50 4T-72 22T-81 54Q-81 80 -54 117T20 200T120 298Q162 336 210 382T311 481T418 589T527 699T631 807T727 907T810 992Q846 1029 889 1069T973 1137T1045 1166Q1056
1166 1063 1164T1076 1156T1084 1144T1087 1125Q1087 1098 1056 1055T982 964T900 877Q837 812 772 744T639 607T504 467T369 329T236 195Q200 159 150 113T53 32T-21 -2ZM790 -13Q744 -7 712 8T679 68Q679 92 688 114T732 155Q765 174 810 198T892 246Q922 265
939 284T957 323Q957 343 941 352T896 362Q866 362 843 353T804 332Q787 318 770 309T736 300Q716 300 699 314T682 354Q682 395 713 426T794 475T905 493Q961 493 1009 481T1088 437T1118 349Q1118 313 1100 285T1050 231Q1029 213 1006 199T960 173T921 152Q897
142 897 133Q897 127 909 126T936 125Q962 125 1003 131T1070 138Q1099 138 1116 125T1133 88Q1133 46 1106 23T1032 -9T921 -19Q888 -19 854 -19T790 -13Z" />
<glyph unicode="&#xbe;" horiz-adv-x="1356" d="M239 647Q180 647 129 658T47 690T16 741Q16 782 39 794T79 807Q113 807 152 791T236 775Q280 775 309 784T339 813Q339 832 316 843T256 862Q224 869 203 882T181 918Q181 939 197 949T237 965Q269 974 290 985T311
1014Q311 1034 289 1042T226 1050Q184 1050 145 1042T86 1034Q56 1034 40 1051T23 1091Q23 1120 54 1139T136 1167T242 1176Q358 1176 414 1140T470 1040Q470 1014 454 993T410 955Q397 946 390 939T383 925Q383 918 394 913T420 900Q450 888 477 864T504 797Q504
750 475 716T386 665T239 647ZM166 -2Q151 -2 137 4T115 22T106 54Q106 80 133 117T207 200T307 298Q349 336 397 382T498 481T605 589T714 699T818 807T914 907T997 992Q1033 1029 1076 1069T1160 1137T1232 1166Q1243 1166 1250 1164T1263 1156T1271 1144T1274
1125Q1274 1098 1243 1055T1169 964T1087 877Q1024 812 959 744T826 607T691 467T556 329T423 195Q387 159 337 113T240 32T166 -2ZM1165 -16Q1139 -16 1120 -4T1100 39Q1100 48 1100 58T1100 78T1099 94Q1097 110 1086 118T1041 128Q1005 129 978 130T926 137Q892
142 879 170T865 237Q865 277 878 326T905 406Q917 432 935 453T987 475Q1008 475 1020 465T1032 433Q1032 419 1028 403T1018 368T1008 331T1004 293Q1004 268 1009 260T1024 249Q1037 245 1053 244T1084 243Q1100 243 1108 250T1116 277Q1116 287 1117 308T1120
353T1123 397T1126 427Q1131 454 1145 469T1184 484Q1212 484 1225 469T1242 427Q1245 413 1246 395T1247 355T1248 310T1248 261Q1248 235 1271 235Q1285 235 1296 235T1317 232Q1330 228 1336 218T1343 191Q1343 167 1335 156T1305 139Q1298 138 1286 136T1259
132Q1248 130 1244 123T1239 101Q1237 87 1235 67T1229 31Q1217 -16 1165 -16Z" />
<glyph unicode="&#xbf;" horiz-adv-x="1068" d="M627 522Q673 522 707 511T760 468T779 374Q779 315 756 265T686 171T572 87Q516 54 471 23T401 -40T375 -108Q375 -145 396 -166T457 -198T549 -208Q585 -208 631 -199T720 -174T787 -138Q829 -115 864 -102T939
-89Q975 -89 1001 -107T1027 -179Q1027 -214 1008 -245T957 -305Q907 -352 837 -387T689 -440T535 -459Q430 -459 341 -437T187 -372T86 -265T50 -114Q50 -39 81 18T166 119T289 196Q333 218 374 243T445 302T485 382Q502 452 528 487T627 522ZM667 880Q733 880
773 850T813 761Q813 696 769 661T666 625Q624 625 585 636T520 674T495 751Q495 805 534 842T667 880Z" />
<glyph unicode="&#xc0;" horiz-adv-x="1599" d="M1308 -40Q1245 -40 1196 -20T1110 50Q1100 68 1092 88T1075 129T1055 173T1028 219Q1009 248 987 264T933 287Q920 291 897 293T846 297T792 299Q752 299 712 297T640 289Q610 284 592 272T559 239Q545 218 533
191T507 135T478 78Q449 34 404 6T272 -23Q200 -23 152 -2T79 68T55 200Q55 256 68 320T104 453T155 588T213 714T268 821T315 899Q348 950 394 1003T499 1101T633 1173T796 1201Q930 1201 1047 1138T1259 960Q1298 917 1334 856T1401 722T1459 572T1504 419T1534
275T1544 152Q1544 46 1480 3T1308 -40ZM954 562Q974 571 980 586T987 631Q987 653 981 683T963 746T936 805Q914 845 885 870T823 895Q780 895 743 860T680 778Q671 762 661 740T643 695T630 650T624 612Q624 578 653 564T726 549Q782 549 825 550T900 555T954
562ZM838 1277Q780 1277 705 1298T560 1354Q486 1390 438 1434T390 1529Q390 1579 417 1601T491 1623Q536 1623 597 1600T718 1543Q801 1494 859 1440T918 1342Q918 1307 895 1292T838 1277Z" />
<glyph unicode="&#xc1;" horiz-adv-x="1618" d="M1308 -40Q1245 -40 1196 -20T1110 50Q1100 68 1092 88T1075 129T1055 173T1028 219Q1009 248 987 264T933 287Q920 291 897 293T846 297T792 299Q752 299 712 297T640 289Q610 284 592 272T559 239Q545 218 533
191T507 135T478 78Q449 34 404 6T272 -23Q200 -23 152 -2T79 68T55 200Q55 256 68 320T104 453T155 588T213 714T268 821T315 899Q348 950 394 1003T499 1101T633 1173T796 1201Q930 1201 1047 1138T1259 960Q1298 917 1334 856T1401 722T1459 572T1504 419T1534
275T1544 152Q1544 46 1480 3T1308 -40ZM954 562Q974 571 980 586T987 631Q987 653 981 683T963 746T936 805Q914 845 885 870T823 895Q780 895 743 860T680 778Q671 762 661 740T643 695T630 650T624 612Q624 578 653 564T726 549Q782 549 825 550T900 555T954
562ZM636 1312Q602 1312 579 1327T556 1377Q556 1421 615 1475T756 1578Q816 1612 877 1635T983 1658Q1031 1658 1057 1636T1084 1564Q1084 1513 1037 1469T915 1389Q845 1355 770 1334T636 1312Z" />
<glyph unicode="&#xc2;" horiz-adv-x="1599" d="M1308 -40Q1245 -40 1196 -20T1110 50Q1100 68 1092 88T1075 129T1055 173T1028 219Q1009 248 987 264T933 287Q920 291 897 293T846 297T792 299Q752 299 712 297T640 289Q610 284 592 272T559 239Q545 218 533
191T507 135T478 78Q449 34 404 6T272 -23Q200 -23 152 -2T79 68T55 200Q55 256 68 320T104 453T155 588T213 714T268 821T315 899Q348 950 394 1003T499 1101T633 1173T796 1201Q930 1201 1047 1138T1259 960Q1298 917 1334 856T1401 722T1459 572T1504 419T1534
275T1544 152Q1544 46 1480 3T1308 -40ZM954 562Q974 571 980 586T987 631Q987 653 981 683T963 746T936 805Q914 845 885 870T823 895Q780 895 743 860T680 778Q671 762 661 740T643 695T630 650T624 612Q624 578 653 564T726 549Q782 549 825 550T900 555T954
562ZM522 1269Q441 1269 441 1350Q441 1390 479 1441T577 1540T700 1619T814 1651Q859 1651 918 1619T1033 1538T1124 1440T1161 1354Q1161 1317 1140 1296T1084 1275Q1038 1275 1011 1300T955 1369Q938 1396 912 1424T859 1472T813 1491Q797 1491 769 1470T710
1418T657 1359Q624 1318 595 1294T522 1269Z" />
<glyph unicode="&#xc3;" horiz-adv-x="1599" d="M1308 -40Q1245 -40 1196 -20T1110 50Q1100 68 1092 88T1075 129T1055 173T1028 219Q1009 248 987 264T933 287Q920 291 897 293T846 297T792 299Q752 299 712 297T640 289Q610 284 592 272T559 239Q545 218 533
191T507 135T478 78Q449 34 404 6T272 -23Q200 -23 152 -2T79 68T55 200Q55 256 68 320T104 453T155 588T213 714T268 821T315 899Q348 950 394 1003T499 1101T633 1173T796 1201Q930 1201 1047 1138T1259 960Q1298 917 1334 856T1401 722T1459 572T1504 419T1534
275T1544 152Q1544 46 1480 3T1308 -40ZM954 562Q974 571 980 586T987 631Q987 653 981 683T963 746T936 805Q914 845 885 870T823 895Q780 895 743 860T680 778Q671 762 661 740T643 695T630 650T624 612Q624 578 653 564T726 549Q782 549 825 550T900 555T954
562ZM573 1284Q549 1284 533 1297T516 1345Q516 1394 542 1438T613 1511T709 1540Q752 1540 781 1521T834 1477T877 1433T921 1414Q948 1414 965 1427T1000 1478Q1014 1507 1028 1519T1067 1531Q1087 1531 1103 1518T1119 1466Q1119 1419 1092 1377T1021 1310T930
1284Q888 1284 857 1302T802 1343T758 1384T717 1402Q695 1402 677 1385T643 1336Q628 1303 611 1294T573 1284Z" />
<glyph unicode="&#xc4;" horiz-adv-x="1599" d="M1308 -40Q1245 -40 1196 -20T1110 50Q1100 68 1092 88T1075 129T1055 173T1028 219Q1009 248 987 264T933 287Q920 291 897 293T846 297T792 299Q752 299 712 297T640 289Q610 284 592 272T559 239Q545 218 533
191T507 135T478 78Q449 34 404 6T272 -23Q200 -23 152 -2T79 68T55 200Q55 256 68 320T104 453T155 588T213 714T268 821T315 899Q348 950 394 1003T499 1101T633 1173T796 1201Q930 1201 1047 1138T1259 960Q1298 917 1334 856T1401 722T1459 572T1504 419T1534
275T1544 152Q1544 46 1480 3T1308 -40ZM954 562Q974 571 980 586T987 631Q987 653 981 683T963 746T936 805Q914 845 885 870T823 895Q780 895 743 860T680 778Q671 762 661 740T643 695T630 650T624 612Q624 578 653 564T726 549Q782 549 825 550T900 555T954
562ZM607 1249Q515 1249 474 1287T432 1379Q432 1450 481 1485T582 1521Q623 1521 660 1509T721 1465T745 1377Q745 1323 716 1286T607 1249ZM1052 1251Q984 1251 941 1288T897 1382Q897 1448 947 1491T1071 1534Q1137 1534 1169 1494T1202 1403Q1202 1341 1161
1296T1052 1251Z" />
<glyph unicode="&#xc5;" horiz-adv-x="1599" d="M1308 -40Q1245 -40 1196 -20T1110 50Q1100 68 1092 88T1075 129T1055 173T1028 219Q1009 248 987 264T933 287Q920 291 897 293T846 297T792 299Q752 299 712 297T640 289Q610 284 592 272T559 239Q545 218 533
191T507 135T478 78Q449 34 404 6T272 -23Q200 -23 152 -2T79 68T55 200Q55 256 68 320T104 453T155 588T213 714T268 821T315 899Q348 950 394 1003T499 1101T633 1173T796 1201Q930 1201 1047 1138T1259 960Q1298 917 1334 856T1401 722T1459 572T1504 419T1534
275T1544 152Q1544 46 1480 3T1308 -40ZM954 562Q974 571 980 586T987 631Q987 653 981 683T963 746T936 805Q914 845 885 870T823 895Q780 895 743 860T680 778Q671 762 661 740T643 695T630 650T624 612Q624 578 653 564T726 549Q782 549 825 550T900 555T954
562ZM793 1265Q690 1265 629 1309T567 1430Q567 1506 628 1555T807 1605Q917 1605 971 1561T1025 1442Q1025 1378 989 1340T900 1283T793 1265ZM800 1382Q839 1382 857 1400T875 1446Q875 1474 854 1491T794 1508Q765 1508 745 1493T724 1446Q724 1414 746 1398T800
1382Z" />
<glyph unicode="&#xc6;" horiz-adv-x="2103" d="M186 -23Q145 -23 116 -10T71 35T55 118Q55 165 67 224T103 350T156 484T220 616T292 735Q375 865 476 970T690 1138T916 1201Q1029 1201 1106 1160T1232 1048T1307 882T1343 678T1353 455Q1353 416 1329 381T1245
324T1083 302Q1015 302 935 306T778 314T649 318Q612 318 573 281T495 196T418 111Q373 61 333 32T257 -10T186 -23ZM816 559Q865 559 901 560T962 565T1000 577T1013 599Q1013 638 1009 685T992 775T956 845T890 873Q861 873 834 859T781 822T734 771T698 712T674
654T665 607Q665 590 671 581T694 567T740 561T816 559ZM1483 -17Q1365 -17 1270 26T1114 159T1033 393Q1029 424 1027 456T1022 524T1020 596T1019 673Q1019 855 1059 974T1178 1162T1373 1259T1639 1288Q1715 1288 1782 1281T1901 1256T1982 1212T2012 1144Q2012
1097 1986 1069T1921 1029Q1889 1022 1840 1019T1739 1014T1639 1011Q1590 1010 1558 1002T1506 978T1479 934T1471 870Q1471 846 1478 830T1508 807T1578 800Q1600 800 1624 800T1673 802T1721 805T1765 806Q1839 806 1874 774T1909 683Q1909 595 1862 561T1750
527Q1725 527 1700 527T1651 527T1605 528T1565 528Q1515 528 1488 522T1452 503T1442 465Q1442 434 1447 409T1464 365T1496 335T1547 316T1621 310Q1668 310 1716 311T1805 314T1874 316Q1942 316 1975 283T2008 189Q2008 125 1958 84T1829 21T1658 -9T1483 -17Z"
/>
<glyph unicode="&#xc7;" horiz-adv-x="1268" d="M672 -56Q535 -56 422 -22T227 80T100 249T55 483Q55 641 104 770T245 992T467 1135T760 1185Q834 1185 901 1170T1019 1127T1100 1060T1130 972Q1130 903 1097 867T1005 830Q973 830 948 836T897 849T840 863T764
869Q721 869 684 849T617 791T572 697T555 571Q555 515 566 466T603 379T671 319T775 297Q814 297 848 308T913 334T974 360T1036 372Q1130 372 1164 329T1198 214Q1198 144 1157 93T1042 10T874 -39T672 -56ZM743 -469Q686 -469 630 -463T538 -436T501 -374Q501
-335 524 -317T584 -298Q615 -298 635 -306T679 -322T740 -330Q790 -330 824 -322T877 -298T895 -257Q895 -231 882 -222T839 -213Q812 -213 788 -221T737 -238T675 -247Q629 -247 594 -229T558 -149Q558 -122 563 -95T578 -45T596 -6Q612 18 640 38T726 58Q766
58 787 39T809 -7Q809 -33 799 -61T789 -115Q789 -135 806 -135Q821 -135 841 -123T889 -99T957 -87Q994 -87 1026 -101T1080 -150T1101 -243Q1101 -357 1005 -413T743 -469Z" />
<glyph unicode="&#xc8;" horiz-adv-x="1159" d="M539 -50Q421 -50 326 -7T170 126T89 360Q85 391 83 423T79 491T76 563T75 640Q75 822 115 941T234 1129T429 1226T695 1255Q771 1255 839 1248T958 1223T1039 1179T1068 1111Q1068 1064 1042 1036T977 996Q945
989 897 986T795 981T696 978Q646 977 614 969T562 945T535 901T527 837Q527 813 534 797T565 774T634 767Q657 767 681 767T729 769T777 772T822 773Q895 773 930 741T965 650Q965 562 919 528T806 494Q781 494 756 494T707 494T661 495T622 495Q571 495 544 489T508
470T498 432Q498 401 503 376T520 332T552 302T603 283T678 277Q724 277 772 278T862 281T931 283Q998 283 1031 250T1064 156Q1064 92 1015 51T886 -12T714 -42T539 -50ZM626 1345Q568 1345 493 1366T348 1422Q274 1458 226 1502T178 1597Q178 1647 205 1669T279
1691Q324 1691 385 1668T506 1611Q589 1562 647 1508T706 1410Q706 1375 683 1360T626 1345Z" />
<glyph unicode="&#xc9;" horiz-adv-x="1159" d="M539 -50Q421 -50 326 -7T170 126T89 360Q85 391 83 423T79 491T76 563T75 640Q75 822 115 941T234 1129T429 1226T695 1255Q771 1255 839 1248T958 1223T1039 1179T1068 1111Q1068 1064 1042 1036T977 996Q945
989 897 986T795 981T696 978Q646 977 614 969T562 945T535 901T527 837Q527 813 534 797T565 774T634 767Q657 767 681 767T729 769T777 772T822 773Q895 773 930 741T965 650Q965 562 919 528T806 494Q781 494 756 494T707 494T661 495T622 495Q571 495 544 489T508
470T498 432Q498 401 503 376T520 332T552 302T603 283T678 277Q724 277 772 278T862 281T931 283Q998 283 1031 250T1064 156Q1064 92 1015 51T886 -12T714 -42T539 -50ZM536 1313Q502 1313 479 1328T456 1378Q456 1421 515 1475T656 1579Q716 1613 777 1636T883
1659Q931 1659 957 1637T984 1565Q984 1514 937 1470T815 1389Q745 1356 670 1335T536 1313Z" />
<glyph unicode="&#xca;" horiz-adv-x="1159" d="M539 -50Q421 -50 326 -7T170 126T89 360Q85 391 83 423T79 491T76 563T75 640Q75 822 115 941T234 1129T429 1226T695 1255Q771 1255 839 1248T958 1223T1039 1179T1068 1111Q1068 1064 1042 1036T977 996Q945
989 897 986T795 981T696 978Q646 977 614 969T562 945T535 901T527 837Q527 813 534 797T565 774T634 767Q657 767 681 767T729 769T777 772T822 773Q895 773 930 741T965 650Q965 562 919 528T806 494Q781 494 756 494T707 494T661 495T622 495Q571 495 544 489T508
470T498 432Q498 401 503 376T520 332T552 302T603 283T678 277Q724 277 772 278T862 281T931 283Q998 283 1031 250T1064 156Q1064 92 1015 51T886 -12T714 -42T539 -50ZM310 1337Q229 1337 229 1418Q229 1458 267 1509T365 1608T488 1687T602 1719Q647 1719 706
1687T821 1606T912 1508T949 1422Q949 1385 928 1364T872 1343Q826 1343 799 1368T743 1437Q726 1464 700 1492T647 1540T601 1559Q585 1559 557 1538T498 1486T445 1427Q412 1386 383 1362T310 1337Z" />
<glyph unicode="&#xcb;" horiz-adv-x="1159" d="M539 -50Q421 -50 326 -7T170 126T89 360Q85 391 83 423T79 491T76 563T75 640Q75 822 115 941T234 1129T429 1226T695 1255Q771 1255 839 1248T958 1223T1039 1179T1068 1111Q1068 1064 1042 1036T977 996Q945
989 897 986T795 981T696 978Q646 977 614 969T562 945T535 901T527 837Q527 813 534 797T565 774T634 767Q657 767 681 767T729 769T777 772T822 773Q895 773 930 741T965 650Q965 562 919 528T806 494Q781 494 756 494T707 494T661 495T622 495Q571 495 544 489T508
470T498 432Q498 401 503 376T520 332T552 302T603 283T678 277Q724 277 772 278T862 281T931 283Q998 283 1031 250T1064 156Q1064 92 1015 51T886 -12T714 -42T539 -50ZM395 1317Q303 1317 262 1355T220 1447Q220 1518 269 1553T370 1589Q411 1589 448 1577T509
1533T533 1445Q533 1391 504 1354T395 1317ZM840 1319Q772 1319 729 1356T685 1450Q685 1516 735 1559T859 1602Q925 1602 957 1562T990 1471Q990 1409 949 1364T840 1319Z" />
<glyph unicode="&#xcc;" horiz-adv-x="668" d="M328 -20Q210 -20 153 52T95 245Q95 291 95 347T97 466T101 595T108 727T117 854T131 968Q152 1083 201 1138T359 1194Q447 1194 491 1142T548 1008Q552 972 556 924T562 818T567 702T570 586T571 477T571 386Q571
240 551 151T478 21T328 -20ZM645 1228Q588 1228 513 1249T367 1305Q293 1341 246 1385T198 1481Q198 1530 224 1552T298 1574Q343 1574 404 1552T525 1494Q608 1446 666 1392T725 1293Q725 1258 703 1243T645 1228Z" />
<glyph unicode="&#xcd;" horiz-adv-x="668" d="M328 -20Q210 -20 153 52T95 245Q95 291 95 347T97 466T101 595T108 727T117 854T131 968Q152 1083 201 1138T359 1194Q447 1194 491 1142T548 1008Q552 972 556 924T562 818T567 702T570 586T571 477T571 386Q571
240 551 151T478 21T328 -20ZM327 1202Q293 1202 270 1217T247 1267Q247 1311 305 1365T447 1468Q506 1502 567 1525T674 1548Q722 1548 748 1526T775 1454Q775 1403 727 1359T605 1279Q536 1245 461 1224T327 1202Z" />
<glyph unicode="&#xce;" horiz-adv-x="668" d="M328 -20Q210 -20 153 52T95 245Q95 291 95 347T97 466T101 595T108 727T117 854T131 968Q152 1083 201 1138T359 1194Q447 1194 491 1142T548 1008Q552 972 556 924T562 818T567 702T570 586T571 477T571 386Q571
240 551 151T478 21T328 -20ZM78 1227Q-2 1227 -2 1309Q-2 1348 36 1399T133 1498T257 1577T370 1609Q416 1609 475 1577T589 1497T680 1398T717 1312Q717 1275 696 1254T640 1233Q594 1233 567 1258T512 1327Q494 1355 468 1383T415 1431T370 1450Q353 1450 325
1428T267 1376T213 1317Q180 1276 151 1252T78 1227Z" />
<glyph unicode="&#xcf;" horiz-adv-x="668" d="M328 -20Q210 -20 153 52T95 245Q95 291 95 347T97 466T101 595T108 727T117 854T131 968Q152 1083 201 1138T359 1194Q447 1194 491 1142T548 1008Q552 972 556 924T562 818T567 702T570 586T571 477T571 386Q571
240 551 151T478 21T328 -20ZM400 1206Q308 1206 267 1244T225 1336Q225 1407 274 1442T375 1478Q416 1478 453 1466T514 1422T538 1334Q538 1280 509 1243T400 1206ZM845 1208Q777 1208 734 1245T690 1339Q690 1405 740 1448T864 1491Q930 1491 962 1451T995 1360Q995
1298 954 1253T845 1208Z" />
<glyph unicode="&#xd0;" horiz-adv-x="1434" d="M238 537Q139 537 78 542T-12 563T-41 608Q-41 646 -10 664T92 687T282 693Q382 693 463 691T604 682T694 657T726 610Q726 584 691 569T591 547T437 539T238 537ZM393 -31Q290 -31 229 -4T136 78T92 219Q83 276
79 348T75 505Q75 637 82 750T112 952Q145 1081 222 1154T450 1227Q605 1227 744 1188T1000 1081T1201 930T1332 753T1379 570Q1379 471 1329 381T1186 216T971 86T701 0T393 -31ZM589 384Q653 384 705 398T798 435T865 488T907 548T921 608Q921 634 906 664T862
723T791 775T697 813T584 827Q559 827 544 811T520 765Q514 742 511 712T508 646Q508 581 511 534T521 454Q538 384 589 384Z" />
<glyph unicode="&#xd1;" horiz-adv-x="1646" d="M335 -48Q269 -48 226 -22T154 51Q139 76 127 117T107 210T92 319T83 432T77 539T75 626Q75 795 100 916T189 1103T371 1168Q443 1168 499 1139T616 1046T762 883Q859 761 931 689T1042 617Q1059 617 1070 622T1088
643T1100 689Q1102 703 1105 729T1110 789T1116 857T1122 926T1129 985T1137 1024Q1161 1095 1207 1125T1335 1155Q1399 1155 1442 1134T1511 1072T1550 972T1562 836Q1563 799 1562 749T1558 641T1551 523T1540 406T1524 299T1503 210Q1479 130 1443 78T1352 1T1219
-25Q1155 -25 1087 17T949 131T805 294Q757 354 721 398T659 472T614 516T582 531Q552 531 539 501T526 381Q526 352 526 321T526 256T527 192T524 131T520 78T512 34Q488 -9 444 -28T335 -48ZM596 1260Q572 1260 556 1273T539 1321Q539 1370 565 1414T636 1487T732
1516Q775 1516 804 1497T857 1453T900 1409T944 1390Q971 1390 988 1403T1023 1454Q1037 1483 1051 1495T1090 1507Q1110 1507 1126 1494T1142 1442Q1142 1395 1115 1353T1044 1286T953 1260Q911 1260 880 1278T825 1319T781 1360T740 1378Q718 1378 700 1361T666
1312Q651 1279 634 1270T596 1260Z" />
<glyph unicode="&#xd2;" horiz-adv-x="1640" d="M728 -106Q584 -106 461 -66T247 51T106 240T55 493Q55 631 96 742T213 938T387 1079T604 1164T846 1193Q999 1193 1132 1151T1368 1029T1527 834T1585 576Q1585 417 1516 291T1327 76T1052 -59T728 -106ZM813 349Q922
349 987 384T1083 477T1113 596Q1113 655 1092 703T1034 786T948 840T841 859Q787 859 737 843T648 796T586 722T563 625Q563 567 581 517T633 430T713 371T813 349ZM883 1286Q825 1286 750 1307T605 1363Q531 1399 483 1443T435 1538Q435 1588 462 1610T536 1632Q581
1632 642 1609T763 1552Q846 1503 904 1449T963 1351Q963 1316 940 1301T883 1286Z" />
<glyph unicode="&#xd3;" horiz-adv-x="1640" d="M728 -106Q584 -106 461 -66T247 51T106 240T55 493Q55 631 96 742T213 938T387 1079T604 1164T846 1193Q999 1193 1132 1151T1368 1029T1527 834T1585 576Q1585 417 1516 291T1327 76T1052 -59T728 -106ZM813 349Q922
349 987 384T1083 477T1113 596Q1113 655 1092 703T1034 786T948 840T841 859Q787 859 737 843T648 796T586 722T563 625Q563 567 581 517T633 430T713 371T813 349ZM794 1254Q760 1254 737 1269T714 1319Q714 1362 773 1416T914 1520Q974 1554 1035 1577T1141
1600Q1189 1600 1215 1578T1242 1506Q1242 1455 1195 1411T1073 1330Q1003 1297 928 1276T794 1254Z" />
<glyph unicode="&#xd4;" horiz-adv-x="1640" d="M728 -106Q584 -106 461 -66T247 51T106 240T55 493Q55 631 96 742T213 938T387 1079T604 1164T846 1193Q999 1193 1132 1151T1368 1029T1527 834T1585 576Q1585 417 1516 291T1327 76T1052 -59T728 -106ZM813 349Q922
349 987 384T1083 477T1113 596Q1113 655 1092 703T1034 786T948 840T841 859Q787 859 737 843T648 796T586 722T563 625Q563 567 581 517T633 430T713 371T813 349ZM567 1278Q486 1278 486 1359Q486 1399 524 1450T622 1549T745 1628T859 1660Q904 1660 963 1628T1078
1547T1169 1449T1206 1363Q1206 1326 1185 1305T1129 1284Q1083 1284 1056 1309T1000 1378Q983 1405 957 1433T904 1481T858 1500Q842 1500 814 1479T755 1427T702 1368Q669 1327 640 1303T567 1278Z" />
<glyph unicode="&#xd5;" horiz-adv-x="1640" d="M728 -106Q584 -106 461 -66T247 51T106 240T55 493Q55 631 96 742T213 938T387 1079T604 1164T846 1193Q999 1193 1132 1151T1368 1029T1527 834T1585 576Q1585 417 1516 291T1327 76T1052 -59T728 -106ZM813 349Q922
349 987 384T1083 477T1113 596Q1113 655 1092 703T1034 786T948 840T841 859Q787 859 737 843T648 796T586 722T563 625Q563 567 581 517T633 430T713 371T813 349ZM618 1293Q594 1293 578 1306T561 1354Q561 1403 587 1447T658 1520T754 1549Q797 1549 826 1530T879
1486T922 1442T966 1423Q993 1423 1010 1436T1045 1487Q1059 1516 1073 1528T1112 1540Q1132 1540 1148 1527T1164 1475Q1164 1428 1137 1386T1066 1319T975 1293Q933 1293 902 1311T847 1352T803 1393T762 1411Q740 1411 722 1394T688 1345Q673 1312 656 1303T618
1293Z" />
<glyph unicode="&#xd6;" horiz-adv-x="1640" d="M728 -106Q584 -106 461 -66T247 51T106 240T55 493Q55 631 96 742T213 938T387 1079T604 1164T846 1193Q999 1193 1132 1151T1368 1029T1527 834T1585 576Q1585 417 1516 291T1327 76T1052 -59T728 -106ZM813 349Q922
349 987 384T1083 477T1113 596Q1113 655 1092 703T1034 786T948 840T841 859Q787 859 737 843T648 796T586 722T563 625Q563 567 581 517T633 430T713 371T813 349ZM652 1258Q560 1258 519 1296T477 1388Q477 1459 526 1494T627 1530Q668 1530 705 1518T766 1474T790
1386Q790 1332 761 1295T652 1258ZM1097 1260Q1029 1260 986 1297T942 1391Q942 1457 992 1500T1116 1543Q1182 1543 1214 1503T1247 1412Q1247 1350 1206 1305T1097 1260Z" />
<glyph unicode="&#xd7;" horiz-adv-x="986" d="M61 217Q25 256 25 308Q25 334 37 363T81 427Q126 476 181 531T294 644T408 756T513 858T597 942Q653 999 697 1027T779 1055Q829 1055 877 1008Q922 964 922 908Q922 865 893 817T809 717Q776 685 726 637T618 532T504
419T401 316T330 240Q294 199 257 179T184 158Q153 158 122 172T61 217ZM888 202Q867 174 842 161T789 147Q752 147 708 175T615 254Q584 287 533 337T423 444T305 559T199 665T124 744Q87 788 66 829T45 907Q45 935 57 963T97 1019Q113 1034 132 1042T175 1050Q202
1050 236 1034T307 982Q357 937 412 885T525 776T636 667T738 566T823 483Q880 429 906 388T932 308Q932 283 921 257T888 202Z" />
<glyph unicode="&#xd8;" horiz-adv-x="1641" d="M99 -196Q66 -196 38 -183T-8 -145T-26 -88Q-26 -45 10 10T104 124T227 238T353 338T453 409L640 183Q610 149 560 101T449 1T323 -95T201 -168T99 -196ZM1202 749L1002 942Q1024 967 1067 1011T1163 1107T1273
1204T1379 1279T1463 1308Q1496 1308 1525 1290T1573 1240T1592 1173Q1592 1124 1550 1061T1446 934T1317 821T1202 749ZM728 -106Q584 -106 461 -66T247 51T106 240T55 493Q55 631 96 742T213 938T387 1079T604 1164T846 1193Q999 1193 1132 1151T1368 1029T1527
834T1585 576Q1585 417 1516 291T1327 76T1052 -59T728 -106ZM813 349Q922 349 987 384T1083 477T1113 596Q1113 655 1092 703T1034 786T948 840T841 859Q787 859 737 843T648 796T586 722T563 625Q563 567 581 517T633 430T713 371T813 349Z" />
<glyph unicode="&#xd9;" horiz-adv-x="1484" d="M709 -40Q471 -40 313 80T83 402Q72 437 63 473T47 546T36 624T29 705T27 788Q27 918 54 1003T142 1130T304 1173Q372 1173 416 1144T483 1048T505 868Q505 835 506 802T509 737T514 675T523 618T537 566Q558 497
598 455T709 413Q755 413 790 432T850 485T892 564Q904 595 912 630T925 704T932 783T935 862Q935 973 961 1040T1040 1137T1168 1168Q1255 1168 1301 1129T1365 1007T1383 799Q1383 754 1381 712T1373 628T1361 548T1343 471T1320 398Q1272 263 1187 165T981 14T709
-40ZM787 1287Q729 1287 654 1308T509 1364Q435 1400 387 1444T339 1539Q339 1589 366 1611T440 1633Q485 1633 546 1610T667 1553Q750 1504 808 1450T867 1352Q867 1317 844 1302T787 1287Z" />
<glyph unicode="&#xda;" horiz-adv-x="1484" d="M709 -40Q471 -40 313 80T83 402Q72 437 63 473T47 546T36 624T29 705T27 788Q27 918 54 1003T142 1130T304 1173Q372 1173 416 1144T483 1048T505 868Q505 835 506 802T509 737T514 675T523 618T537 566Q558 497
598 455T709 413Q755 413 790 432T850 485T892 564Q904 595 912 630T925 704T932 783T935 862Q935 973 961 1040T1040 1137T1168 1168Q1255 1168 1301 1129T1365 1007T1383 799Q1383 754 1381 712T1373 628T1361 548T1343 471T1320 398Q1272 263 1187 165T981 14T709
-40ZM698 1255Q664 1255 641 1270T618 1320Q618 1363 677 1417T818 1521Q878 1555 939 1578T1045 1601Q1093 1601 1119 1579T1146 1507Q1146 1456 1099 1412T977 1331Q907 1298 832 1277T698 1255Z" />
<glyph unicode="&#xdb;" horiz-adv-x="1484" d="M709 -40Q471 -40 313 80T83 402Q72 437 63 473T47 546T36 624T29 705T27 788Q27 918 54 1003T142 1130T304 1173Q372 1173 416 1144T483 1048T505 868Q505 835 506 802T509 737T514 675T523 618T537 566Q558 497
598 455T709 413Q755 413 790 432T850 485T892 564Q904 595 912 630T925 704T932 783T935 862Q935 973 961 1040T1040 1137T1168 1168Q1255 1168 1301 1129T1365 1007T1383 799Q1383 754 1381 712T1373 628T1361 548T1343 471T1320 398Q1272 263 1187 165T981 14T709
-40ZM471 1279Q390 1279 390 1360Q390 1400 428 1451T526 1550T649 1629T763 1661Q808 1661 867 1629T982 1548T1073 1450T1110 1364Q1110 1327 1089 1306T1033 1285Q987 1285 960 1310T904 1379Q887 1406 861 1434T808 1482T762 1501Q746 1501 718 1480T659 1428T606
1369Q573 1328 544 1304T471 1279Z" />
<glyph unicode="&#xdc;" horiz-adv-x="1484" d="M709 -40Q471 -40 313 80T83 402Q72 437 63 473T47 546T36 624T29 705T27 788Q27 918 54 1003T142 1130T304 1173Q372 1173 416 1144T483 1048T505 868Q505 835 506 802T509 737T514 675T523 618T537 566Q558 497
598 455T709 413Q755 413 790 432T850 485T892 564Q904 595 912 630T925 704T932 783T935 862Q935 973 961 1040T1040 1137T1168 1168Q1255 1168 1301 1129T1365 1007T1383 799Q1383 754 1381 712T1373 628T1361 548T1343 471T1320 398Q1272 263 1187 165T981 14T709
-40ZM556 1259Q464 1259 423 1297T381 1389Q381 1460 430 1495T531 1531Q572 1531 609 1519T670 1475T694 1387Q694 1333 665 1296T556 1259ZM1001 1261Q933 1261 890 1298T846 1392Q846 1458 896 1501T1020 1544Q1086 1544 1118 1504T1151 1413Q1151 1351 1110
1306T1001 1261Z" />
<glyph unicode="&#xdd;" horiz-adv-x="1427" d="M691 -20Q596 -20 554 16T493 129Q490 148 487 170T482 217T477 269T473 322Q468 394 457 449T404 530Q356 560 311 583T224 633Q174 664 137 703T75 786T38 878T26 977Q26 1047 57 1096T143 1171T264 1198Q317
1198 358 1175T434 1091Q453 1056 475 1019T522 947Q547 909 576 879T639 831T711 813Q750 813 785 835T853 893Q894 936 929 988T991 1080Q1031 1130 1070 1155T1157 1181Q1222 1181 1274 1148T1357 1061T1388 944Q1388 912 1381 876T1358 801T1318 726T1261 657Q1204
601 1151 567T1037 501Q998 481 976 467T942 436T917 396Q913 381 908 356T897 299T887 230T877 155Q867 75 819 28T691 -20ZM679 1247Q645 1247 622 1262T599 1312Q599 1355 658 1409T799 1513Q859 1547 920 1570T1026 1593Q1074 1593 1100 1571T1127 1499Q1127
1448 1080 1404T958 1323Q888 1290 813 1269T679 1247Z" />
<glyph unicode="&#xde;" horiz-adv-x="1188" d="M259 -48Q222 -48 179 -27T100 33T51 122Q36 178 28 245T16 384T12 518Q12 603 15 700T25 881T42 1007Q55 1065 88 1104T165 1162T251 1182Q313 1182 361 1162T438 1084T468 917Q469 890 492 887T552 890T629 900Q772
911 863 891T1009 827T1094 725Q1114 690 1122 631T1125 512T1099 414Q1060 340 994 298T841 240T649 223Q595 223 554 226T490 224T467 192Q467 93 447 42T381 -29T259 -48ZM570 434Q638 435 694 447T783 486T816 563Q816 633 754 665T596 694Q573 694 549 692T507
681T481 658Q471 642 465 617T456 563T455 509T466 467Q471 456 483 450T510 440T542 435T570 434Z" />
<glyph unicode="&#xdf;" horiz-adv-x="1286" d="M264 -51Q189 -51 143 -24T74 55T42 181T33 350Q33 419 37 483T52 610T76 728T110 836T155 931T210 1012Q288 1114 402 1167T675 1221Q756 1221 832 1202T968 1142T1064 1038T1100 887Q1100 798 1066 744T1004 658Q985
638 976 625T967 602Q967 589 984 578T1042 548Q1097 526 1138 486T1203 393T1226 278Q1226 200 1190 137T1093 27T956 -44T798 -69Q747 -69 691 -60T597 -21T558 67Q558 109 578 130T632 161T708 179Q750 187 786 204T843 245T865 295Q865 336 829 357T742 395Q684
415 652 445T619 527Q619 574 639 603T699 663Q729 687 740 710T751 766Q751 805 735 832T689 874T622 889Q580 889 546 855T489 756T463 599Q463 533 461 475T456 362T448 257T434 152T412 43Q394 -10 360 -30T264 -51Z" />
<glyph unicode="&#xe0;" horiz-adv-x="1342" d="M528 -126Q443 -126 361 -111T214 -59T109 39T70 190Q70 279 115 338T238 432T412 481T614 496Q640 496 666 495T714 492T749 490Q772 490 780 497T789 523Q789 542 784 557T770 584T748 604Q724 621 687 629T606
637Q550 637 495 625T387 601T279 589Q187 589 136 619T85 714Q85 774 126 819T237 894T394 938T574 953Q765 953 896 913T1095 776T1164 506Q1164 468 1161 439T1153 389T1145 350T1141 318Q1141 290 1160 263T1205 207T1250 144T1269 67Q1269 4 1229 -26T1135
-56Q1093 -56 1068 -35T1025 7T985 28Q969 28 950 18T904 -10Q873 -31 824 -58T702 -106T528 -126ZM562 120Q599 120 635 130T701 160T749 207T767 267Q767 292 751 304T705 321T630 326Q580 326 534 316T459 280T429 211Q429 179 446 159T494 130T562 120ZM641
1024Q583 1024 508 1045T363 1101Q289 1137 241 1181T193 1276Q193 1326 220 1348T294 1370Q339 1370 400 1347T521 1290Q604 1241 662 1187T721 1089Q721 1054 698 1039T641 1024Z" />
<glyph unicode="&#xe1;" horiz-adv-x="1342" d="M528 -126Q443 -126 361 -111T214 -59T109 39T70 190Q70 279 115 338T238 432T412 481T614 496Q640 496 666 495T714 492T749 490Q772 490 780 497T789 523Q789 542 784 557T770 584T748 604Q724 621 687 629T606
637Q550 637 495 625T387 601T279 589Q187 589 136 619T85 714Q85 774 126 819T237 894T394 938T574 953Q765 953 896 913T1095 776T1164 506Q1164 468 1161 439T1153 389T1145 350T1141 318Q1141 290 1160 263T1205 207T1250 144T1269 67Q1269 4 1229 -26T1135
-56Q1093 -56 1068 -35T1025 7T985 28Q969 28 950 18T904 -10Q873 -31 824 -58T702 -106T528 -126ZM562 120Q599 120 635 130T701 160T749 207T767 267Q767 292 751 304T705 321T630 326Q580 326 534 316T459 280T429 211Q429 179 446 159T494 130T562 120ZM552
992Q518 992 495 1007T472 1057Q472 1100 531 1154T672 1258Q732 1292 793 1315T899 1338Q947 1338 973 1316T1000 1244Q1000 1193 953 1149T831 1068Q761 1035 686 1014T552 992Z" />
<glyph unicode="&#xe2;" horiz-adv-x="1342" d="M528 -126Q443 -126 361 -111T214 -59T109 39T70 190Q70 279 115 338T238 432T412 481T614 496Q640 496 666 495T714 492T749 490Q772 490 780 497T789 523Q789 542 784 557T770 584T748 604Q724 621 687 629T606
637Q550 637 495 625T387 601T279 589Q187 589 136 619T85 714Q85 774 126 819T237 894T394 938T574 953Q765 953 896 913T1095 776T1164 506Q1164 468 1161 439T1153 389T1145 350T1141 318Q1141 290 1160 263T1205 207T1250 144T1269 67Q1269 4 1229 -26T1135
-56Q1093 -56 1068 -35T1025 7T985 28Q969 28 950 18T904 -10Q873 -31 824 -58T702 -106T528 -126ZM562 120Q599 120 635 130T701 160T749 207T767 267Q767 292 751 304T705 321T630 326Q580 326 534 316T459 280T429 211Q429 179 446 159T494 130T562 120ZM325
1016Q244 1016 244 1097Q244 1137 282 1188T380 1287T503 1366T617 1398Q662 1398 721 1366T836 1285T927 1187T964 1101Q964 1064 943 1043T887 1022Q841 1022 814 1047T758 1116Q741 1143 715 1171T662 1219T616 1238Q600 1238 572 1217T513 1165T460 1106Q427
1065 398 1041T325 1016Z" />
<glyph unicode="&#xe3;" horiz-adv-x="1342" d="M528 -126Q443 -126 361 -111T214 -59T109 39T70 190Q70 279 115 338T238 432T412 481T614 496Q640 496 666 495T714 492T749 490Q772 490 780 497T789 523Q789 542 784 557T770 584T748 604Q724 621 687 629T606
637Q550 637 495 625T387 601T279 589Q187 589 136 619T85 714Q85 774 126 819T237 894T394 938T574 953Q765 953 896 913T1095 776T1164 506Q1164 468 1161 439T1153 389T1145 350T1141 318Q1141 290 1160 263T1205 207T1250 144T1269 67Q1269 4 1229 -26T1135
-56Q1093 -56 1068 -35T1025 7T985 28Q969 28 950 18T904 -10Q873 -31 824 -58T702 -106T528 -126ZM562 120Q599 120 635 130T701 160T749 207T767 267Q767 292 751 304T705 321T630 326Q580 326 534 316T459 280T429 211Q429 179 446 159T494 130T562 120ZM377
1031Q353 1031 337 1044T320 1092Q320 1141 346 1185T417 1258T513 1287Q556 1287 585 1268T638 1224T681 1180T725 1161Q752 1161 769 1174T804 1225Q818 1254 832 1266T871 1278Q891 1278 907 1265T923 1213Q923 1166 896 1124T825 1057T734 1031Q692 1031 661
1049T606 1090T562 1131T521 1149Q499 1149 481 1132T447 1083Q432 1050 415 1041T377 1031Z" />
<glyph unicode="&#xe4;" horiz-adv-x="1342" d="M528 -126Q443 -126 361 -111T214 -59T109 39T70 190Q70 279 115 338T238 432T412 481T614 496Q640 496 666 495T714 492T749 490Q772 490 780 497T789 523Q789 542 784 557T770 584T748 604Q724 621 687 629T606
637Q550 637 495 625T387 601T279 589Q187 589 136 619T85 714Q85 774 126 819T237 894T394 938T574 953Q765 953 896 913T1095 776T1164 506Q1164 468 1161 439T1153 389T1145 350T1141 318Q1141 290 1160 263T1205 207T1250 144T1269 67Q1269 4 1229 -26T1135
-56Q1093 -56 1068 -35T1025 7T985 28Q969 28 950 18T904 -10Q873 -31 824 -58T702 -106T528 -126ZM562 120Q599 120 635 130T701 160T749 207T767 267Q767 292 751 304T705 321T630 326Q580 326 534 316T459 280T429 211Q429 179 446 159T494 130T562 120ZM410
996Q318 996 277 1034T235 1126Q235 1197 284 1232T385 1268Q426 1268 463 1256T524 1212T548 1124Q548 1070 519 1033T410 996ZM855 998Q787 998 744 1035T700 1129Q700 1195 750 1238T874 1281Q940 1281 972 1241T1005 1150Q1005 1088 964 1043T855 998Z" />
<glyph unicode="&#xe5;" horiz-adv-x="1342" d="M528 -126Q443 -126 361 -111T214 -59T109 39T70 190Q70 279 115 338T238 432T412 481T614 496Q640 496 666 495T714 492T749 490Q772 490 780 497T789 523Q789 542 784 557T770 584T748 604Q724 621 687 629T606
637Q550 637 495 625T387 601T279 589Q187 589 136 619T85 714Q85 774 126 819T237 894T394 938T574 953Q765 953 896 913T1095 776T1164 506Q1164 468 1161 439T1153 389T1145 350T1141 318Q1141 290 1160 263T1205 207T1250 144T1269 67Q1269 4 1229 -26T1135
-56Q1093 -56 1068 -35T1025 7T985 28Q969 28 950 18T904 -10Q873 -31 824 -58T702 -106T528 -126ZM562 120Q599 120 635 130T701 160T749 207T767 267Q767 292 751 304T705 321T630 326Q580 326 534 316T459 280T429 211Q429 179 446 159T494 130T562 120ZM597
1012Q494 1012 433 1056T371 1177Q371 1253 432 1302T611 1352Q721 1352 775 1308T829 1189Q829 1125 793 1087T704 1030T597 1012ZM604 1129Q643 1129 661 1147T679 1193Q679 1221 658 1238T598 1255Q569 1255 549 1240T528 1193Q528 1161 550 1145T604 1129Z"
/>
<glyph unicode="&#xe6;" horiz-adv-x="2005" d="M610 1031Q785 1031 916 977T1121 813T1194 534Q1194 394 1146 289T1014 112T819 4T582 -33Q497 -33 415 -18T267 31T162 120T122 257Q122 322 145 367T208 442T301 490T412 522Q456 536 518 547T643 566T748 573Q780
573 791 580T803 606Q803 622 795 640T771 674Q745 701 710 710T623 720Q560 720 495 701T362 663T227 643Q158 643 117 669T75 770Q75 835 118 884T237 965T408 1014T610 1031ZM666 406Q620 406 574 394T496 356T465 288Q465 236 504 216T602 195Q638 195 673
207T737 242T783 292T800 353Q800 377 785 388T741 402T666 406ZM1410 -2Q1236 -2 1105 52T900 216T826 495Q826 634 874 739T1006 917T1201 1025T1438 1061Q1523 1061 1605 1047T1753 998T1859 909T1898 772Q1898 706 1875 661T1812 587T1719 539T1608 506Q1565
493 1502 482T1377 463T1272 456Q1241 456 1229 449T1217 423Q1217 407 1225 389T1249 355Q1275 327 1311 318T1397 309Q1460 309 1526 328T1658 366T1793 385Q1862 385 1904 360T1946 259Q1946 194 1902 145T1783 64T1612 15T1410 -2ZM1354 623Q1400 623 1446
635T1524 673T1555 741Q1555 793 1516 813T1419 833Q1382 833 1347 821T1283 786T1238 736T1221 676Q1221 652 1235 641T1280 627T1354 623Z" />
<glyph unicode="&#xe7;" horiz-adv-x="1231" d="M657 -44Q531 -44 419 -15T219 75T83 235T33 472Q33 613 76 721T202 902T404 1012T675 1049Q796 1049 874 1024T991 959T1030 872Q1030 837 1012 810T964 766T903 749Q874 749 847 756T785 771T695 778Q642 778
599 761T524 713T475 639T457 544Q457 466 485 417T563 343T684 318Q738 318 785 328T871 352T940 375T990 386Q1045 386 1076 362T1121 302T1134 232Q1134 165 1098 114T998 27T846 -26T657 -44ZM658 -461Q601 -461 545 -455T452 -428T415 -366Q415 -327 439 -308T499
-289Q530 -289 550 -297T594 -314T655 -322Q705 -322 739 -314T791 -289T809 -249Q809 -223 796 -214T754 -205Q727 -205 702 -213T651 -230T590 -239Q544 -239 509 -221T473 -140Q473 -114 478 -87T493 -37T511 2Q527 27 555 47T640 67Q681 67 702 47T724 2Q724
-25 714 -52T704 -107Q704 -126 721 -126Q736 -126 756 -114T804 -90T872 -78Q908 -78 941 -93T995 -142T1016 -235Q1016 -349 920 -405T658 -461Z" />
<glyph unicode="&#xe8;" horiz-adv-x="1214" d="M620 -83Q446 -83 314 -30T109 134T36 414Q36 553 84 658T216 835T411 943T647 980Q733 980 814 965T962 917T1068 827T1108 691Q1108 625 1085 580T1022 506T929 457T817 425Q775 411 712 400T587 382T481 375Q451
375 439 368T426 342Q426 326 434 308T459 274Q484 246 520 237T607 227Q670 227 735 246T868 285T1002 304Q1072 304 1113 279T1155 177Q1155 113 1112 64T993 -18T821 -67T620 -83ZM564 542Q610 542 656 553T733 591T765 660Q765 711 726 731T628 752Q592 752
557 740T493 705T447 655T430 594Q430 571 444 560T489 545T564 542ZM683 1128Q625 1128 550 1149T405 1205Q331 1241 283 1285T235 1380Q235 1430 262 1452T336 1474Q381 1474 442 1451T563 1394Q646 1345 704 1291T763 1193Q763 1158 740 1143T683 1128Z" />
<glyph unicode="&#xe9;" horiz-adv-x="1214" d="M620 -83Q446 -83 314 -30T109 134T36 414Q36 553 84 658T216 835T411 943T647 980Q733 980 814 965T962 917T1068 827T1108 691Q1108 625 1085 580T1022 506T929 457T817 425Q775 411 712 400T587 382T481 375Q451
375 439 368T426 342Q426 326 434 308T459 274Q484 246 520 237T607 227Q670 227 735 246T868 285T1002 304Q1072 304 1113 279T1155 177Q1155 113 1112 64T993 -18T821 -67T620 -83ZM564 542Q610 542 656 553T733 591T765 660Q765 711 726 731T628 752Q592 752
557 740T493 705T447 655T430 594Q430 571 444 560T489 545T564 542ZM593 1096Q559 1096 536 1111T513 1161Q513 1204 572 1258T713 1362Q773 1396 834 1419T940 1442Q988 1442 1014 1420T1041 1348Q1041 1297 994 1253T872 1172Q802 1139 727 1118T593 1096Z"
/>
<glyph unicode="&#xea;" horiz-adv-x="1214" d="M620 -83Q446 -83 314 -30T109 134T36 414Q36 553 84 658T216 835T411 943T647 980Q733 980 814 965T962 917T1068 827T1108 691Q1108 625 1085 580T1022 506T929 457T817 425Q775 411 712 400T587 382T481 375Q451
375 439 368T426 342Q426 326 434 308T459 274Q484 246 520 237T607 227Q670 227 735 246T868 285T1002 304Q1072 304 1113 279T1155 177Q1155 113 1112 64T993 -18T821 -67T620 -83ZM564 542Q610 542 656 553T733 591T765 660Q765 711 726 731T628 752Q592 752
557 740T493 705T447 655T430 594Q430 571 444 560T489 545T564 542ZM367 1120Q286 1120 286 1201Q286 1241 324 1292T422 1391T545 1470T659 1502Q704 1502 763 1470T878 1389T969 1291T1006 1205Q1006 1168 985 1147T929 1126Q883 1126 856 1151T800 1220Q783
1247 757 1275T704 1323T658 1342Q642 1342 614 1321T555 1269T502 1210Q469 1169 440 1145T367 1120Z" />
<glyph unicode="&#xeb;" horiz-adv-x="1214" d="M620 -83Q446 -83 314 -30T109 134T36 414Q36 553 84 658T216 835T411 943T647 980Q733 980 814 965T962 917T1068 827T1108 691Q1108 625 1085 580T1022 506T929 457T817 425Q775 411 712 400T587 382T481 375Q451
375 439 368T426 342Q426 326 434 308T459 274Q484 246 520 237T607 227Q670 227 735 246T868 285T1002 304Q1072 304 1113 279T1155 177Q1155 113 1112 64T993 -18T821 -67T620 -83ZM564 542Q610 542 656 553T733 591T765 660Q765 711 726 731T628 752Q592 752
557 740T493 705T447 655T430 594Q430 571 444 560T489 545T564 542ZM452 1100Q360 1100 319 1138T277 1230Q277 1301 326 1336T427 1372Q468 1372 505 1360T566 1316T590 1228Q590 1174 561 1137T452 1100ZM897 1102Q829 1102 786 1139T742 1233Q742 1299 792
1342T916 1385Q982 1385 1014 1345T1047 1254Q1047 1192 1006 1147T897 1102Z" />
<glyph unicode="&#xec;" horiz-adv-x="674" d="M270 -45Q183 -45 136 -12T70 83T51 226Q51 255 52 285T56 345T61 405T69 466T79 526T92 583Q127 705 195 774T375 844Q443 844 486 801T550 680T571 500Q571 458 569 417T563 337T553 262T539 193T520 132T497 79Q462
21 406 -12T270 -45ZM652 916Q594 916 519 937T374 993Q300 1029 252 1073T204 1168Q204 1218 231 1240T305 1262Q350 1262 411 1239T532 1182Q615 1133 673 1079T732 981Q732 946 709 931T652 916Z" />
<glyph unicode="&#xed;" horiz-adv-x="674" d="M270 -45Q183 -45 136 -12T70 83T51 226Q51 255 52 285T56 345T61 405T69 466T79 526T92 583Q127 705 195 774T375 844Q443 844 486 801T550 680T571 500Q571 458 569 417T563 337T553 262T539 193T520 132T497 79Q462
21 406 -12T270 -45ZM306 884Q272 884 249 899T226 949Q226 992 285 1046T426 1150Q486 1184 547 1207T653 1230Q701 1230 727 1208T754 1136Q754 1085 707 1041T585 960Q515 927 440 906T306 884Z" />
<glyph unicode="&#xee;" horiz-adv-x="674" d="M270 -45Q183 -45 136 -12T70 83T51 226Q51 255 52 285T56 345T61 405T69 466T79 526T92 583Q127 705 195 774T375 844Q443 844 486 801T550 680T571 500Q571 458 569 417T563 337T553 262T539 193T520 132T497 79Q462
21 406 -12T270 -45ZM80 908Q-1 908 -1 989Q-1 1029 37 1080T135 1179T258 1258T372 1290Q417 1290 476 1258T591 1177T682 1079T719 993Q719 956 698 935T642 914Q596 914 569 939T513 1008Q496 1035 470 1063T417 1111T371 1130Q355 1130 327 1109T268 1057T215
998Q182 957 153 933T80 908Z" />
<glyph unicode="&#xef;" horiz-adv-x="674" d="M270 -45Q183 -45 136 -12T70 83T51 226Q51 255 52 285T56 345T61 405T69 466T79 526T92 583Q127 705 195 774T375 844Q443 844 486 801T550 680T571 500Q571 458 569 417T563 337T553 262T539 193T520 132T497 79Q462
21 406 -12T270 -45ZM421 888Q329 888 288 926T246 1018Q246 1089 295 1124T396 1160Q437 1160 474 1148T535 1104T559 1016Q559 962 530 925T421 888ZM866 890Q798 890 755 927T711 1021Q711 1087 761 1130T885 1173Q951 1173 983 1133T1016 1042Q1016 980 975
935T866 890Z" />
<glyph unicode="&#xf0;" horiz-adv-x="1152" d="M521 -56Q423 -56 335 -27T179 57T73 191T34 368Q34 450 65 515T154 625T285 695T445 720Q494 720 529 711T591 689T637 663Q650 655 657 655Q664 655 664 663Q664 670 661 677Q654 691 635 718T588 779T525 845T452
899Q437 886 413 869T361 837T310 811T268 800Q222 800 207 820T192 868Q192 879 196 890T208 913Q221 934 245 956T293 996T331 1024Q296 1048 266 1061T208 1084Q174 1099 143 1120T111 1179Q111 1215 136 1233T207 1251Q229 1251 267 1241T348 1214T427 1180T482
1151Q503 1172 538 1199T608 1249Q629 1262 650 1269T689 1277Q738 1277 769 1257T801 1198Q801 1183 790 1163T762 1121T723 1077T679 1036Q764 973 833 894T953 726T1032 547T1060 366Q1060 220 989 127T796 -11T521 -56ZM534 194Q579 194 615 206T678 240T718
291T733 352Q733 383 717 410T674 459T613 493T540 505Q490 505 450 483T386 424T362 343Q362 301 384 267T446 214T534 194Z" />
<glyph unicode="&#xf1;" horiz-adv-x="1417" d="M241 -22Q166 -22 117 6T44 99Q37 121 34 149T29 210T29 283Q33 489 114 634T339 855T670 932Q860 932 1005 858T1233 639T1316 285Q1316 251 1313 221T1305 165T1290 115Q1263 48 1213 13T1091 -22Q1009 -22 964
0T898 65T870 167Q865 224 860 268T849 349T837 414T822 470Q804 532 771 561T681 591Q628 591 593 560T534 468Q523 441 515 408T499 336T486 250T473 151Q465 82 432 45T349 -7T241 -22ZM452 1047Q428 1047 412 1060T395 1108Q395 1157 421 1201T492 1274T588
1303Q631 1303 660 1284T713 1240T756 1196T800 1177Q827 1177 844 1190T879 1241Q893 1270 907 1282T946 1294Q966 1294 982 1281T998 1229Q998 1182 971 1140T900 1073T809 1047Q767 1047 736 1065T681 1106T637 1147T596 1165Q574 1165 556 1148T522 1099Q507
1066 490 1057T452 1047Z" />
<glyph unicode="&#xf2;" horiz-adv-x="1426" d="M680 -58Q555 -58 439 -31T232 53T87 203T33 428Q33 573 84 684T225 872T435 986T691 1025Q823 1025 939 993T1144 894T1283 725T1334 483Q1334 371 1283 273T1141 101T933 -15T680 -58ZM659 316Q722 316 766 334T838
385T880 455T894 532Q894 582 874 617T821 675T746 707T662 718Q603 718 553 695T473 625T443 509Q443 450 469 407T543 340T659 316ZM748 1116Q690 1116 615 1137T470 1193Q396 1229 348 1273T300 1368Q300 1418 327 1440T401 1462Q446 1462 507 1439T628 1382Q711
1333 769 1279T828 1181Q828 1146 805 1131T748 1116Z" />
<glyph unicode="&#xf3;" horiz-adv-x="1426" d="M680 -58Q555 -58 439 -31T232 53T87 203T33 428Q33 573 84 684T225 872T435 986T691 1025Q823 1025 939 993T1144 894T1283 725T1334 483Q1334 371 1283 273T1141 101T933 -15T680 -58ZM659 316Q722 316 766 334T838
385T880 455T894 532Q894 582 874 617T821 675T746 707T662 718Q603 718 553 695T473 625T443 509Q443 450 469 407T543 340T659 316ZM659 1084Q625 1084 602 1099T579 1149Q579 1192 638 1246T779 1350Q839 1384 900 1407T1006 1430Q1054 1430 1080 1408T1107
1336Q1107 1285 1060 1241T938 1160Q868 1127 793 1106T659 1084Z" />
<glyph unicode="&#xf4;" horiz-adv-x="1426" d="M680 -58Q555 -58 439 -31T232 53T87 203T33 428Q33 573 84 684T225 872T435 986T691 1025Q823 1025 939 993T1144 894T1283 725T1334 483Q1334 371 1283 273T1141 101T933 -15T680 -58ZM659 316Q722 316 766 334T838
385T880 455T894 532Q894 582 874 617T821 675T746 707T662 718Q603 718 553 695T473 625T443 509Q443 450 469 407T543 340T659 316ZM432 1108Q351 1108 351 1189Q351 1229 389 1280T487 1379T610 1458T724 1490Q769 1490 828 1458T943 1377T1034 1279T1071 1193Q1071
1156 1050 1135T994 1114Q948 1114 921 1139T865 1208Q848 1235 822 1263T769 1311T723 1330Q707 1330 679 1309T620 1257T567 1198Q534 1157 505 1133T432 1108Z" />
<glyph unicode="&#xf5;" horiz-adv-x="1426" d="M680 -58Q555 -58 439 -31T232 53T87 203T33 428Q33 573 84 684T225 872T435 986T691 1025Q823 1025 939 993T1144 894T1283 725T1334 483Q1334 371 1283 273T1141 101T933 -15T680 -58ZM659 316Q722 316 766 334T838
385T880 455T894 532Q894 582 874 617T821 675T746 707T662 718Q603 718 553 695T473 625T443 509Q443 450 469 407T543 340T659 316ZM483 1123Q459 1123 443 1136T426 1184Q426 1233 452 1277T523 1350T619 1379Q662 1379 691 1360T744 1316T787 1272T831 1253Q858
1253 875 1266T910 1317Q924 1346 938 1358T977 1370Q997 1370 1013 1357T1029 1305Q1029 1258 1002 1216T931 1149T840 1123Q798 1123 767 1141T712 1182T668 1223T627 1241Q605 1241 587 1224T553 1175Q538 1142 521 1133T483 1123Z" />
<glyph unicode="&#xf6;" horiz-adv-x="1426" d="M680 -58Q555 -58 439 -31T232 53T87 203T33 428Q33 573 84 684T225 872T435 986T691 1025Q823 1025 939 993T1144 894T1283 725T1334 483Q1334 371 1283 273T1141 101T933 -15T680 -58ZM659 316Q722 316 766 334T838
385T880 455T894 532Q894 582 874 617T821 675T746 707T662 718Q603 718 553 695T473 625T443 509Q443 450 469 407T543 340T659 316ZM517 1088Q425 1088 384 1126T342 1218Q342 1289 391 1324T492 1360Q533 1360 570 1348T631 1304T655 1216Q655 1162 626 1125T517
1088ZM962 1090Q894 1090 851 1127T807 1221Q807 1287 857 1330T981 1373Q1047 1373 1079 1333T1112 1242Q1112 1180 1071 1135T962 1090Z" />
<glyph unicode="&#xf7;" horiz-adv-x="1169" d="M566 132Q494 132 436 167T378 269Q378 306 404 335T471 381T555 398Q599 398 640 379T706 326T732 251Q732 209 710 183T651 145T566 132ZM482 489Q390 489 309 494T167 511T72 547T37 606Q37 651 67 678T159 719T314
736T535 741Q659 741 758 738T927 723T1034 684T1071 607Q1071 565 1030 541T911 506T726 492T482 489ZM558 850Q486 850 428 885T370 987Q370 1023 397 1052T465 1098T547 1115Q591 1115 632 1095T698 1042T724 965Q724 901 676 876T558 850Z" />
<glyph unicode="&#xf8;" horiz-adv-x="1426" d="M31 -200Q-12 -202 -47 -182T-82 -133Q-82 -104 -51 -57T29 48Q77 104 136 162T254 268Q310 312 347 333T415 351T483 314Q541 264 531 214T454 83Q403 23 338 -35T206 -136Q161 -165 117 -182T31 -200ZM1044 686Q996
664 952 669T878 699T846 762T877 843Q915 892 962 942T1058 1034Q1107 1076 1149 1103T1220 1132Q1301 1134 1344 1113T1387 1051Q1387 1028 1374 1001T1334 942Q1311 912 1278 875T1209 803Q1172 767 1131 737T1044 686ZM680 -58Q555 -58 439 -31T232 53T87 203T33
428Q33 573 84 684T225 872T435 986T691 1025Q823 1025 939 993T1144 894T1283 725T1334 483Q1334 371 1283 273T1141 101T933 -15T680 -58ZM659 316Q722 316 766 334T838 385T880 455T894 532Q894 582 874 617T821 675T746 707T662 718Q603 718 553 695T473 625T443
509Q443 450 469 407T543 340T659 316Z" />
<glyph unicode="&#xf9;" horiz-adv-x="1434" d="M683 -73Q525 -73 404 -33T200 85T75 280T32 552Q32 593 36 632T50 707T71 773Q103 848 160 888T299 928Q379 928 418 903T471 840T486 766Q488 742 488 718T490 669T493 623T497 581Q506 490 528 428T590 333T696
301Q754 301 795 326T862 404T905 538Q911 567 914 595T920 652T927 708T939 765Q959 831 1006 872T1143 913Q1221 913 1262 871T1322 756Q1328 727 1331 696T1335 631T1337 564T1336 496Q1331 298 1250 172T1024 -13T683 -73ZM765 995Q707 995 632 1016T487 1072Q413
1108 365 1152T317 1247Q317 1297 344 1319T418 1341Q463 1341 524 1318T645 1261Q728 1212 786 1158T845 1060Q845 1025 822 1010T765 995Z" />
<glyph unicode="&#xfa;" horiz-adv-x="1434" d="M683 -73Q525 -73 404 -33T200 85T75 280T32 552Q32 593 36 632T50 707T71 773Q103 848 160 888T299 928Q379 928 418 903T471 840T486 766Q488 742 488 718T490 669T493 623T497 581Q506 490 528 428T590 333T696
301Q754 301 795 326T862 404T905 538Q911 567 914 595T920 652T927 708T939 765Q959 831 1006 872T1143 913Q1221 913 1262 871T1322 756Q1328 727 1331 696T1335 631T1337 564T1336 496Q1331 298 1250 172T1024 -13T683 -73ZM676 963Q642 963 619 978T596 1028Q596
1071 655 1125T796 1229Q856 1263 917 1286T1023 1309Q1071 1309 1097 1287T1124 1215Q1124 1164 1077 1120T955 1039Q885 1006 810 985T676 963Z" />
<glyph unicode="&#xfb;" horiz-adv-x="1434" d="M683 -73Q525 -73 404 -33T200 85T75 280T32 552Q32 593 36 632T50 707T71 773Q103 848 160 888T299 928Q379 928 418 903T471 840T486 766Q488 742 488 718T490 669T493 623T497 581Q506 490 528 428T590 333T696
301Q754 301 795 326T862 404T905 538Q911 567 914 595T920 652T927 708T939 765Q959 831 1006 872T1143 913Q1221 913 1262 871T1322 756Q1328 727 1331 696T1335 631T1337 564T1336 496Q1331 298 1250 172T1024 -13T683 -73ZM449 987Q368 987 368 1068Q368 1108
406 1159T504 1258T627 1337T741 1369Q786 1369 845 1337T960 1256T1051 1158T1088 1072Q1088 1035 1067 1014T1011 993Q965 993 938 1018T882 1087Q865 1114 839 1142T786 1190T740 1209Q724 1209 696 1188T637 1136T584 1077Q551 1036 522 1012T449 987Z" />
<glyph unicode="&#xfc;" horiz-adv-x="1434" d="M683 -73Q525 -73 404 -33T200 85T75 280T32 552Q32 593 36 632T50 707T71 773Q103 848 160 888T299 928Q379 928 418 903T471 840T486 766Q488 742 488 718T490 669T493 623T497 581Q506 490 528 428T590 333T696
301Q754 301 795 326T862 404T905 538Q911 567 914 595T920 652T927 708T939 765Q959 831 1006 872T1143 913Q1221 913 1262 871T1322 756Q1328 727 1331 696T1335 631T1337 564T1336 496Q1331 298 1250 172T1024 -13T683 -73ZM535 967Q443 967 402 1005T360 1097Q360
1168 409 1203T510 1239Q551 1239 588 1227T649 1183T673 1095Q673 1041 644 1004T535 967ZM980 969Q912 969 869 1006T825 1100Q825 1166 875 1209T999 1252Q1065 1252 1097 1212T1130 1121Q1130 1059 1089 1014T980 969Z" />
<glyph unicode="&#xfd;" horiz-adv-x="1387" d="M315 -425Q239 -425 193 -384T146 -284Q146 -223 183 -181T290 -113Q334 -92 384 -66T479 -11T550 46T578 102Q578 124 546 149T432 208Q367 236 308 273T198 354T110 450T52 556T31 668Q31 726 58 773T134 849T244
877Q333 877 394 843T501 732Q539 653 570 585T638 470Q659 443 683 425T726 406Q754 406 778 429T815 484Q846 544 876 623T939 766Q972 819 1021 854T1141 889Q1255 889 1300 834T1345 687Q1345 632 1326 566T1273 426T1199 282T1114 147T1028 32Q953 -60 869
-142T694 -288T508 -388T315 -425ZM637 954Q603 954 580 969T557 1019Q557 1062 616 1116T757 1220Q817 1254 878 1277T984 1300Q1032 1300 1058 1278T1085 1206Q1085 1155 1038 1111T916 1030Q846 997 771 976T637 954Z" />
<glyph unicode="&#xfe;" horiz-adv-x="1356" d="M320 -467Q234 -467 182 -416T109 -275Q94 -216 83 -143T62 9T47 169T39 325T36 463Q36 546 41 627T57 784T86 927T131 1049Q165 1113 207 1157T298 1226T402 1250Q492 1250 528 1210T565 1088Q565 1061 563 1032T556
972T548 913T542 860T539 815Q539 777 556 777Q577 777 602 790T663 822T747 854T864 868Q965 868 1040 835T1165 740T1239 595T1264 412Q1264 306 1240 221T1168 75T1045 -18T871 -51Q783 -51 730 -41T645 -20T583 -10Q536 -10 522 -46T507 -144Q507 -161 507
-185T505 -236T501 -287T496 -328Q480 -397 439 -432T320 -467ZM646 206Q678 206 711 216T773 247T818 306T836 399Q836 465 815 505T755 563T660 581Q585 581 530 545T474 425Q474 413 475 396T477 359T481 324T486 298Q492 274 513 253T567 219T646 206Z" />
<glyph unicode="&#xff;" horiz-adv-x="1387" d="M315 -425Q239 -425 193 -384T146 -284Q146 -223 183 -181T290 -113Q334 -92 384 -66T479 -11T550 46T578 102Q578 124 546 149T432 208Q367 236 308 273T198 354T110 450T52 556T31 668Q31 726 58 773T134 849T244
877Q333 877 394 843T501 732Q539 653 570 585T638 470Q659 443 683 425T726 406Q754 406 778 429T815 484Q846 544 876 623T939 766Q972 819 1021 854T1141 889Q1255 889 1300 834T1345 687Q1345 632 1326 566T1273 426T1199 282T1114 147T1028 32Q953 -60 869
-142T694 -288T508 -388T315 -425ZM496 958Q404 958 363 996T321 1088Q321 1159 370 1194T471 1230Q512 1230 549 1218T610 1174T634 1086Q634 1032 605 995T496 958ZM941 960Q873 960 830 997T786 1091Q786 1157 836 1200T960 1243Q1026 1243 1058 1203T1091 1112Q1091
1050 1050 1005T941 960Z" />
<glyph unicode="&#x2013;" horiz-adv-x="1252" d="M634 485Q441 485 317 493T123 520T25 564T-3 626Q-3 665 40 695T166 746T367 777T634 788Q714 788 798 784T961 770T1100 743T1198 698T1234 630Q1234 567 1166 536T965 495T634 485Z" />
<glyph unicode="&#x2014;" horiz-adv-x="1646" d="M845 485Q592 485 430 493T176 520T49 564T12 626Q12 665 69 695T235 746T498 777T845 788Q952 788 1063 784T1275 770T1456 743T1583 698T1630 630Q1630 567 1541 536T1278 495T845 485Z" />
<glyph unicode="&#x2018;" horiz-adv-x="452" d="M187 764Q144 764 118 790T80 857T68 937Q68 981 81 1032T119 1126Q157 1189 209 1220T328 1252Q360 1252 379 1233T399 1188Q399 1169 390 1152T368 1118T343 1087Q327 1069 318 1040T305 979T301 922Q301 843
276 804T187 764Z" />
<glyph unicode="&#x2019;" horiz-adv-x="494" d="M284 754Q221 754 199 792T177 905Q177 942 168 991T132 1068Q119 1082 106 1098T84 1132T75 1168Q75 1194 94 1213T146 1232Q190 1232 226 1218T293 1176T349 1106Q375 1063 389 1014T403 920Q403 880 391 842T353
779T284 754Z" />
<glyph unicode="&#x201a;" horiz-adv-x="435" d="M259 -374Q196 -374 174 -336T152 -223Q152 -186 143 -137T107 -60Q94 -46 81 -30T59 4T50 40Q50 66 69 85T121 104Q165 104 201 90T268 48T324 -22Q350 -65 364 -114T378 -208Q378 -248 366 -286T328 -349T259 -374Z" />
<glyph unicode="&#x201c;" horiz-adv-x="725" d="M156 822Q96 822 68 865T40 961Q40 996 47 1038T69 1120T104 1188Q141 1235 186 1258T277 1281Q292 1281 312 1278T346 1262T361 1221Q361 1206 355 1193T338 1167T313 1138Q282 1105 270 1057T255 958Q251 899
228 861T156 822ZM476 764Q433 764 407 790T369 857T357 937Q357 981 370 1032T408 1126Q446 1189 498 1220T617 1252Q650 1252 669 1233T688 1188Q688 1169 679 1152T658 1118T633 1087Q616 1069 607 1040T595 979T591 922Q591 843 566 804T476 764Z" />
<glyph unicode="&#x201d;" horiz-adv-x="665" d="M540 785Q486 785 462 823T433 920Q430 971 418 1016T375 1101Q362 1118 353 1130T339 1155T334 1184Q334 1212 349 1224T384 1240T419 1244Q464 1244 509 1221T591 1151Q612 1123 626 1083T647 1001T655 923Q655
870 628 828T540 785ZM216 754Q153 754 131 792T109 905Q109 942 100 991T64 1068Q51 1082 38 1098T17 1132T8 1168Q8 1194 27 1213T78 1232Q123 1232 159 1218T225 1176T281 1106Q307 1063 321 1014T335 920Q335 880 324 842T286 779T216 754Z" />
<glyph unicode="&#x201e;" horiz-adv-x="702" d="M560 -344Q506 -344 482 -306T453 -209Q450 -158 438 -113T395 -28Q382 -11 373 1T359 26T354 55Q354 83 369 95T404 111T439 115Q484 115 529 92T611 22Q632 -6 646 -46T667 -128T675 -206Q675 -259 648 -301T560
-344ZM236 -375Q173 -375 151 -337T129 -224Q129 -187 120 -138T84 -61Q71 -47 58 -31T37 3T28 39Q28 65 47 84T98 103Q143 103 179 89T245 47T301 -23Q327 -66 341 -115T355 -209Q355 -249 344 -287T306 -350T236 -375Z" />
<glyph unicode="&#x2022;" horiz-adv-x="558" d="M284 435Q223 435 166 451T73 510T37 632Q37 703 73 749T164 818T274 841Q334 841 388 822T477 762T512 654Q512 581 480 532T396 459T284 435Z" />
<glyph unicode="&#x2039;" horiz-adv-x="466" d="M374 239Q357 239 321 258T249 304T192 348Q147 388 108 431T45 524T20 632Q20 674 32 712T64 787T109 859T162 928Q185 958 220 990T292 1045T352 1068Q391 1068 410 1045T430 987Q430 958 418 926T382 857T319
777Q299 755 282 731T255 684T245 642Q245 626 257 605T289 562T332 519Q369 487 395 454T434 389T447 330Q447 286 428 263T374 239Z" />
<glyph unicode="&#x203a;" horiz-adv-x="466" d="M120 237Q81 237 61 260T41 318Q41 346 53 378T90 448T153 527Q174 550 190 574T216 621T226 663Q226 678 214 699T183 743T140 786Q84 834 55 883T25 975Q25 1065 98 1065Q115 1065 150 1046T222 1001T280 957Q324
917 363 874T427 781T452 672Q452 631 440 593T408 518T363 446T310 377Q287 348 251 315T180 260T120 237Z" />
</font>
</defs>
</svg>
