<?xml version="1.0" standalone="no"?>
<!DOCTYPE svg PUBLIC "-//W3C//DTD SVG 1.1//EN" "http://www.w3.org/Graphics/SVG/1.1/DTD/svg11.dtd">
<svg xmlns="http://www.w3.org/2000/svg">
<defs >
<font id="Battambang" horiz-adv-x="1242" ><font-face
    font-family="Battambang"
    units-per-em="2048"
    panose-1="0 0 0 0 0 0 0 0 0 0"
    ascent="2500"
    descent="-1200"
    alphabetic="0" />
<glyph unicode=" " glyph-name="space" horiz-adv-x="700" />
<glyph unicode="!" glyph-name="exclam" horiz-adv-x="507" d="M119 502V1456H411V502H119ZM119 0V256H411V0H119Z" />
<glyph unicode="&quot;" glyph-name="quotedbl" horiz-adv-x="786" d="M139 1560H355V1305L268 1032H139V1560ZM476 1560H692V1305L605 1032H476V1560Z" />
<glyph unicode="#" glyph-name="numbersign" horiz-adv-x="1198" d="M570 0L642 410H450L378 0H194L266 410H39V579H295L346 869H115V1040H376L450 1456H633L560 1040H752L825 1456H1009L935 1040H1155V869H905L854 579H1080V410H825L753 0H570ZM479 579H671L722
869H530L479 579Z" />
<glyph unicode="$" glyph-name="dollar" horiz-adv-x="1107" d="M643 -16V-214H484V-17Q360 -4 262 50T110 204Q57 299 57 439V449L59 454H343Q343 366 372 310Q401 255 449 230T561 204Q623 204 664 226Q749 270 749 383Q749 435 729 477Q690 553 543 610Q394
664 299 725Q202 785 155 868T107 1071Q107 1239 214 1346T504 1473V1688H663V1470Q838 1445 939 1324Q1037 1205 1037 1018V1010L1034 1005H750Q750 1123 701 1187T569 1251Q483 1251 441 1202T398 1070Q398 1017 417 980Q452 908 606 848Q756 788 850 729Q946
668 993 586T1041 385Q1041 212 934 108T643 -16Z" />
<glyph unicode="%" glyph-name="percent" horiz-adv-x="1429" d="M367 800Q268 800 197 839Q49 919 49 1099V1176Q49 1262 87 1330Q125 1398 195 1437T365 1477Q467 1477 537 1438Q608 1399 645 1331T682 1176V1099Q682 1013 645 946Q608 879 538 840T367 800ZM427
109L285 184L996 1322L1138 1247L427 109ZM367 962Q425 962 457 1001T489 1099V1176Q489 1234 457 1274T365 1315Q306 1315 275 1275T243 1176V1099Q243 1041 275 1002T367 962ZM1064 -20Q963 -20 893 20Q821 59 783 127T745 280V357Q745 442 783 510Q821 578 892
617T1062 657Q1163 657 1233 618Q1379 537 1379 357V280Q1379 193 1342 126Q1305 58 1235 19T1064 -20ZM1064 142Q1129 142 1157 180T1185 280V357Q1185 414 1153 454T1062 495Q1002 495 971 455T939 357V280Q939 223 973 183T1064 142Z" />
<glyph unicode="&amp;" glyph-name="ampersand" horiz-adv-x="1278" d="M521 -21Q374 -21 269 31Q162 83 104 176T45 392Q45 505 105 588T287 759Q292 763 297 767T308 774Q240 866 207 942T173 1097Q173 1213 222 1298Q271 1383 360 1430T570 1477Q676 1477 757
1432Q837 1386 882 1310T928 1140Q928 1042 879 961T745 819L652 753L928 431Q964 491 984 561T1004 709H1222Q1222 571 1188 455T1084 249L1292 5L1290 0H966L889 89Q804 34 714 7T521 -21ZM520 911L606 967Q662 1003 681 1041T701 1124Q701 1174 665 1213T569
1252Q504 1252 469 1209T434 1100Q434 1057 455 1012T520 911ZM536 203Q647 203 744 257L444 605L425 592Q374 544 356 499T337 407Q337 318 392 261T536 203Z" />
<glyph unicode="&apos;" glyph-name="quotesingle" horiz-adv-x="449" d="M139 1560H355V1305L268 1032H139V1560Z" />
<glyph unicode="(" glyph-name="parenleft" horiz-adv-x="685" d="M644 -307L591 -450H585Q489 -409 400 -319T241 -96Q171 37 130 205T89 570V592Q89 788 130 956T241 1258Q311 1391 400 1481T585 1612H591L644 1466Q579 1417 523 1338T424 1150Q382 1041 359
902T335 594V568Q335 399 358 261T424 12Q466 -98 522 -177T644 -307Z" />
<glyph unicode=")" glyph-name="parenright" horiz-adv-x="712" d="M121 -450H115L61 -307Q195 -207 280 10Q322 119 346 259T370 568V594Q370 762 346 902T279 1151Q236 1261 181 1341T61 1470L115 1612H121Q218 1572 309 1480T473 1253Q546 1118 588 951T631
592V570Q631 378 589 211T473 -92Q400 -226 309 -318T121 -450Z" />
<glyph unicode="*" glyph-name="asterisk" horiz-adv-x="914" d="M829 1223L885 1043L579 954L779 689L628 579L453 869L280 588L128 694L336 966L34 1055L91 1232L388 1109L370 1456H558L538 1103L829 1223Z" />
<glyph unicode="+" glyph-name="plus" horiz-adv-x="1098" d="M1047 812V560H688V146H411V560H49V812H411V1206H688V812H1047Z" />
<glyph unicode="," glyph-name="comma" horiz-adv-x="503" d="M202 -364L58 -286Q97 -216 118 -142T139 25V243H401L400 39Q400 -78 343 -184T202 -364Z" />
<glyph unicode="-" glyph-name="hyphen" horiz-adv-x="815" d="M131 510V735H695V510H131Z" />
<glyph unicode="." glyph-name="period" horiz-adv-x="522" d="M129 0V256H420V0H129Z" />
<glyph unicode="/" glyph-name="slash" horiz-adv-x="796" d="M-23 -125L578 1456H847L246 -125H-23Z" />
<glyph unicode="0" glyph-name="zero" horiz-adv-x="1170" d="M591 -21Q363 -21 230 128T97 567V888Q97 1176 229 1326T589 1477Q815 1477 948 1327T1082 888V567Q1082 278 950 129T591 -21ZM591 203Q689 203 740 283T791 539V918Q791 1092 739 1172T589 1252Q490
1252 439 1172T388 918V539Q388 363 439 283T591 203Z" />
<glyph unicode="1" glyph-name="one" horiz-adv-x="905" d="M602 1456V205L848 175V0H65V175L311 205V1191H62V1358L602 1456Z" />
<glyph unicode="2" glyph-name="two" horiz-adv-x="1136" d="M844 362H1070V0H77V191L549 698Q623 781 662 839Q703 899 720 948T738 1047Q738 1132 690 1191T547 1250Q446 1250 394 1185T342 1004H58L56 1010V1023Q56 1148 113 1248Q172 1353 284 1415T550 1477Q699
1477 808 1424Q915 1370 973 1274T1031 1052Q1031 964 1000 889Q969 813 903 728T733 532L450 228L452 223H829L844 362Z" />
<glyph unicode="3" glyph-name="three" horiz-adv-x="1112" d="M554 -21Q415 -21 301 28T121 171Q57 259 57 386V397L59 403H342Q342 346 368 300Q394 255 441 229T554 203Q655 203 713 259T772 417Q772 519 714 576T539 633H381V852H545Q616 852 660 877Q749
924 749 1052Q749 1145 699 1198T554 1252Q496 1252 453 1230Q360 1183 360 1071H77L75 1077V1088Q75 1197 132 1284Q192 1374 301 1425T552 1477Q773 1477 907 1370T1041 1065Q1041 963 985 881T816 747Q937 704 1000 615T1064 408Q1064 275 998 179Q932 83 817
31T554 -21Z" />
<glyph unicode="4" glyph-name="four" horiz-adv-x="1158" d="M939 348V205L1094 175V0H492V175L648 205V348H54L40 491L645 1456H939V542H1104V348H939ZM648 542V1067L642 1069L618 1027L312 542H648Z" />
<glyph unicode="5" glyph-name="five" horiz-adv-x="1092" d="M548 -21Q415 -21 305 28T129 170Q67 259 67 379V390L69 395L349 409Q349 312 404 258T548 203Q650 203 699 276T748 465Q748 591 696 667T541 743Q458 743 414 712T350 628L92 645L176 1456H1014V1124H834L808
1222H416L375 886Q401 905 437 922Q472 937 512 946T599 956H608Q741 956 838 900Q1039 782 1039 467Q1039 327 983 217Q926 106 817 43T548 -21Z" />
<glyph unicode="6" glyph-name="six" horiz-adv-x="1144" d="M611 -21Q459 -21 341 50Q223 121 157 253T91 569V825Q91 1032 166 1177Q240 1323 372 1400T675 1477Q757 1477 826 1462T966 1416L915 1203Q861 1222 803 1235T683 1248Q391 1248 389 873L392 868Q441
919 516 948T683 977Q814 977 908 914Q1002 851 1052 740T1102 486Q1102 340 1040 225Q977 110 867 45T611 -21ZM605 203Q667 203 714 241Q810 321 810 490Q810 607 753 681T590 756Q546 756 505 744Q424 720 382 659V562Q382 389 444 296T605 203Z" />
<glyph unicode="7" glyph-name="seven" horiz-adv-x="1107" d="M636 148L622 0H330L344 148Q366 360 424 553Q538 933 797 1231H284L273 1087H49V1456H1078V1231Q961 1094 884 970T759 720Q711 594 683 455T636 148Z" />
<glyph unicode="8" glyph-name="eight" horiz-adv-x="1115" d="M564 -21Q415 -21 304 28Q192 76 130 169T67 398Q67 516 134 606T316 746Q214 793 157 877T100 1070Q100 1200 158 1291Q216 1381 320 1429T562 1477Q701 1477 806 1429Q910 1381 968 1291T1026 1070Q1026
961 968 877T809 746Q925 697 992 606T1059 398Q1059 264 997 170Q934 76 823 28T564 -21ZM564 859Q617 859 655 884Q734 934 734 1057Q734 1117 713 1160Q669 1252 562 1252Q482 1252 438 1200T393 1057Q393 966 438 913T564 859ZM564 203Q624 203 671 229Q768
285 768 418Q768 483 742 532Q685 634 562 634Q503 634 456 607Q359 550 359 418Q359 318 415 261T564 203Z" />
<glyph unicode="9" glyph-name="nine" horiz-adv-x="1141" d="M501 -21Q425 -21 345 -6T196 40L229 251Q359 203 489 203Q616 203 689 290T764 561L762 583Q663 455 494 455Q365 455 268 516Q171 576 117 688T63 957Q63 1104 127 1222Q190 1340 300 1408T552 1477Q702
1477 814 1408Q927 1339 990 1208T1053 892V576Q1053 387 983 254Q913 120 788 50T501 -21ZM557 669Q624 669 677 696T762 770V926Q762 1087 706 1169T554 1252Q495 1252 451 1213Q406 1173 381 1106T355 957Q355 870 378 804Q425 669 557 669Z" />
<glyph unicode=":" glyph-name="colon" horiz-adv-x="455" d="M91 825V1081H382V825H91ZM91 0V256H382V0H91Z" />
<glyph unicode=";" glyph-name="semicolon" horiz-adv-x="453" d="M90 825V1081H381V825H90ZM172 -364L28 -286Q67 -216 88 -142T109 25V243H371L370 39Q370 -78 313 -184T172 -364Z" />
<glyph unicode="&lt;" glyph-name="less" horiz-adv-x="1012" d="M343 550V544L397 531L919 341V69L58 436V663L919 1029V757L397 563L343 550Z" />
<glyph unicode="=" glyph-name="equal" horiz-adv-x="1123" d="M123 763V992H1019V763H123ZM123 332V561H1019V332H123Z" />
<glyph unicode="&gt;" glyph-name="greater" horiz-adv-x="1031" d="M104 751V1020L975 654V427L104 60V330L628 526L689 539V545L628 562L104 751Z" />
<glyph unicode="?" glyph-name="question" horiz-adv-x="986" d="M625 414H333Q333 553 372 624Q392 662 430 699T528 783Q578 823 614 870Q684 963 684 1062Q684 1148 637 1196T503 1245Q431 1245 380 1205T327 1085H44L41 1091V1099Q41 1216 98 1300Q156 1386
260 1431T502 1477Q725 1477 850 1368T976 1070Q976 983 943 909Q909 835 851 769T715 638Q679 608 658 577Q639 547 632 509T625 414ZM333 0V256H625V0H333Z" />
<glyph unicode="@" glyph-name="at" horiz-adv-x="1806" d="M875 -453Q611 -453 426 -341T149 -19Q66 168 66 418Q66 432 66 447T67 478Q79 764 190 975Q301 1187 495 1302T948 1418Q1204 1418 1383 1309T1652 999Q1732 819 1732 581Q1732 567 1732 552T1731 522Q1725
374 1672 250Q1618 126 1516 53T1266 -21Q1174 -21 1115 23T1031 146Q942 -18 768 -18Q627 -18 552 102Q492 197 492 343Q492 363 493 383T496 424Q512 589 568 714Q624 838 718 907T947 976Q1040 976 1110 951T1268 870L1270 866L1219 293Q1218 283 1218 274T1218
255Q1218 218 1224 194Q1232 158 1253 143T1304 128Q1408 128 1476 238T1552 522Q1553 539 1553 554T1554 586Q1554 890 1415 1066Q1261 1262 944 1262Q742 1262 593 1166Q444 1070 359 894T264 478Q263 461 263 444T262 410Q262 216 322 70Q392 -101 533 -194T879
-287Q964 -287 1054 -267T1210 -217L1248 -364Q1181 -406 1078 -429T875 -453ZM840 158Q890 158 934 184T1015 281Q1016 284 1016 288T1017 296Q1017 301 1017 307T1019 321L1060 785Q1014 804 965 804Q855 804 797 708T721 416Q718 385 718 356Q718 273 741 224Q770
158 840 158Z" />
<glyph unicode="A" glyph-name="A" horiz-adv-x="1512" d="M500 393L436 193L537 175V0H41V175L145 190L608 1456H907L1367 190L1471 175V0H975V175L1076 193L1012 393H500ZM773 1107L759 1151H753L738 1104L569 608H943L773 1107Z" />
<glyph unicode="B" glyph-name="B" horiz-adv-x="1344" d="M772 0H56V175L211 205V1250L56 1280V1456H703Q960 1456 1104 1356T1248 1057Q1248 956 1195 877T1039 757Q1128 737 1185 690Q1244 642 1272 574T1301 424Q1301 215 1163 108T772 0ZM703 1231H503V846H713Q830
846 893 894T956 1034Q956 1231 703 1231ZM794 644H503V224H772Q1010 224 1010 424Q1010 494 987 545Q940 644 794 644Z" />
<glyph unicode="C" glyph-name="C" horiz-adv-x="1321" d="M749 -21Q538 -21 380 68Q223 157 138 319T52 703V752Q52 964 135 1128Q218 1292 370 1384T734 1477Q882 1477 1011 1435T1243 1307V955H1026L996 1176Q961 1201 924 1217Q845 1252 741 1252Q616 1252
528 1191Q344 1066 344 754V703Q344 552 394 438Q444 326 536 265T754 203Q817 203 880 217T996 255L1026 460H1243V112Q1158 56 1031 18T749 -21Z" />
<glyph unicode="D" glyph-name="D" horiz-adv-x="1426" d="M699 0H56V175L213 208V1246L56 1280V1456H695Q891 1456 1039 1365Q1188 1274 1271 1112T1355 741V714Q1355 506 1273 346Q1191 184 1043 92T699 0ZM684 1232H505V223H684Q806 223 889 287Q973 350 1017
461T1062 714V742Q1062 885 1018 997Q973 1107 889 1169T684 1232Z" />
<glyph unicode="E" glyph-name="E" horiz-adv-x="1308" d="M973 224L986 398H1208V0H56V175L211 205V1250L56 1280V1456H1186V1063H962L949 1231H503V865H996V640H503V224H973Z" />
<glyph unicode="F" glyph-name="F" horiz-adv-x="1265" d="M503 605V205L659 175V0H56V175L211 205V1250L56 1280V1456H1215V1057H991L978 1231H503V830H1013V605H503Z" />
<glyph unicode="G" glyph-name="G" horiz-adv-x="1373" d="M733 -21Q516 -21 363 69Q210 159 129 319T47 690V740Q47 958 128 1124Q209 1290 357 1383T709 1477Q866 1477 1004 1434T1244 1305V982H1028L987 1177Q948 1211 882 1231T731 1252Q609 1252 521 1188Q433
1124 386 1009T338 742V690Q338 544 385 433Q432 324 521 264T742 203Q819 203 883 217T990 253V500L782 516V721H1283V132Q1186 63 1050 21T733 -21Z" />
<glyph unicode="H" glyph-name="H" horiz-adv-x="1600" d="M503 605V205L659 175V0H56V175L211 205V1250L56 1280V1456H659V1280L503 1250V830H1097V1250L941 1280V1456H1544V1280L1388 1250V205L1544 175V0H941V175L1097 205V605H503Z" />
<glyph unicode="I" glyph-name="I" horiz-adv-x="714" d="M503 1250V205L658 175V0H56V175L211 205V1250L56 1280V1456H658V1280L503 1250Z" />
<glyph unicode="J" glyph-name="J" horiz-adv-x="1202" d="M553 -21Q400 -21 287 31Q172 82 107 188T35 457L37 463H311Q319 320 375 264T524 207Q583 207 630 233Q675 259 701 310T728 437V1250L532 1280V1456H1175V1280L1019 1250V437Q1019 298 965 194Q911
91 807 35T553 -21Z" />
<glyph unicode="K" glyph-name="K" horiz-adv-x="1545" d="M1461 1280L1324 1253L903 825L1370 200L1513 175V0H894V175L1030 187H1031L710 629L503 419V205L651 175V0H56V175L211 205V1250L56 1280V1456H651V1280L503 1250V749L1004 1265L1006 1268L862 1280V1456H1461V1280Z"
/>
<glyph unicode="L" glyph-name="L" horiz-adv-x="1200" d="M914 224L928 437H1151V0H56V175L211 205V1250L56 1280V1456H679V1280L503 1250V224H914Z" />
<glyph unicode="M" glyph-name="M" horiz-adv-x="2066" d="M487 514V205L659 175V0H56V175L211 205V1250L56 1280V1456H643L1040 441H1046L1430 1456H2018V1280L1862 1250V205L2018 175V0H1415V175L1578 205V484L1583 1141L1577 1142L1142 20H921L476 1133L470
1132L487 514Z" />
<glyph unicode="N" glyph-name="N" horiz-adv-x="1604" d="M472 999V205L659 175V0H56V175L211 205V1250L56 1280V1456H507L1141 446L1147 447V1250L961 1280V1456H1564V1280L1408 1250V0H1126L478 1000L472 999Z" />
<glyph unicode="O" glyph-name="O" horiz-adv-x="1446" d="M723 -21Q576 -21 455 34T247 189Q159 288 112 422T65 717V739Q65 898 112 1032T246 1267Q333 1367 454 1422T722 1477Q870 1477 992 1422T1202 1267Q1290 1167 1337 1033T1385 739V717Q1385 557 1338
423T1202 189Q1114 89 993 34T723 -21ZM723 206Q847 206 929 270Q1011 334 1052 449T1094 717V741Q1094 892 1052 1007Q1010 1121 928 1185T722 1249Q600 1249 519 1186Q438 1122 398 1008T357 741V717Q357 566 398 449Q439 334 520 270T723 206Z" />
<glyph unicode="P" glyph-name="P" horiz-adv-x="1325" d="M503 205L659 175V0H56V175L211 205V1250L56 1280V1456H749Q917 1456 1037 1398Q1158 1340 1223 1235T1288 991Q1288 852 1223 748Q1158 643 1037 586T749 528H503V205ZM749 1231H503V753H749Q871 753
933 819T996 989Q996 1094 934 1162T749 1231Z" />
<glyph unicode="Q" glyph-name="Q" horiz-adv-x="1449" d="M1127 114L1437 -79L1293 -281L882 -3Q843 -11 804 -16T725 -21Q578 -21 457 34T248 188Q161 287 114 422T67 717V739Q67 898 114 1033T248 1268Q335 1367 456 1422T724 1477Q872 1477 994 1422T1204
1268Q1293 1168 1340 1033T1387 739V717Q1387 527 1319 370T1127 114ZM725 206Q850 206 932 270Q1015 334 1055 449T1096 717V741Q1096 892 1054 1007Q1012 1121 930 1185T724 1249Q601 1249 520 1186Q439 1122 399 1008T359 741V717Q359 566 400 449Q441 334 522
270T725 206Z" />
<glyph unicode="R" glyph-name="R" horiz-adv-x="1408" d="M1347 0H993L769 575H503V205L659 175V0H56V175L211 205V1250L56 1280V1456H746Q915 1456 1034 1404Q1154 1352 1218 1255T1283 1022Q1283 894 1219 793T1041 634L1038 632L1223 204L1347 175V0ZM746
1231H503V800H741Q992 800 992 1009Q992 1110 930 1170T746 1231Z" />
<glyph unicode="S" glyph-name="S" horiz-adv-x="1247" d="M650 -21Q489 -21 357 15T97 140V492H323L354 285Q399 247 478 224T650 200Q730 200 784 222Q895 267 895 380Q895 433 870 473Q821 551 627 611Q450 663 341 723Q227 783 171 867T114 1071Q114 1189
180 1280Q245 1370 361 1422T629 1476H644Q804 1476 927 1436Q1055 1394 1150 1319V991H931L893 1191Q855 1215 791 1233T644 1251Q574 1251 521 1230Q467 1209 436 1169T405 1072Q405 1023 432 987Q482 919 698 848Q939 781 1063 671T1188 382Q1188 257 1121 168Q1054
77 933 28T650 -21Z" />
<glyph unicode="T" glyph-name="T" horiz-adv-x="1389" d="M839 1231V205L996 175V0H391V175L547 205V1231H282L266 1057H45V1456H1344V1057H1122L1106 1231H839Z" />
<glyph unicode="U" glyph-name="U" horiz-adv-x="1555" d="M776 -21Q603 -21 472 39Q340 99 267 213T194 490V1250L39 1280V1456H642V1280L486 1250V490Q486 395 521 330Q591 203 776 203Q867 203 934 235Q1069 300 1069 490V1250L914 1280V1456H1517V1280L1361
1250V490Q1361 326 1288 213Q1215 98 1083 39T776 -21Z" />
<glyph unicode="V" glyph-name="V" horiz-adv-x="1535" d="M1502 1456V1280L1370 1264L931 0H632L164 1264L34 1280V1456H613V1280L482 1260L768 401L790 321H796L817 399L1103 1260L950 1280V1456H1502Z" />
<glyph unicode="W" glyph-name="W" horiz-adv-x="2202" d="M1111 971H1105L1066 847L787 0H521L183 1265L34 1280V1456H620V1280L463 1257L634 549L665 419H671L708 549L996 1456H1211L1510 524L1545 409H1551L1581 524L1758 1257L1592 1280V1456H2167V1280L2028
1265L1686 0H1422L1146 851L1111 971Z" />
<glyph unicode="X" glyph-name="X" horiz-adv-x="1514" d="M751 557L475 187L597 175V0H36V175L163 199L575 721L187 1255L69 1280V1456H638V1280L499 1267L749 917L999 1267L863 1280V1456H1424V1280L1295 1255L922 747L1340 200L1479 175V0H896V175L1021 187L751 557Z" />
<glyph unicode="Y" glyph-name="Y" horiz-adv-x="1508" d="M899 522V205L1055 175V0H452V175L608 205V499L176 1260L36 1280V1456H617V1280L498 1263L740 798L762 751L768 752L790 796L1059 1263L899 1280V1456H1469V1280L1325 1260L899 522Z" />
<glyph unicode="Z" glyph-name="Z" horiz-adv-x="1226" d="M937 224L961 410H1183L1165 0H74V192L784 1231H341L318 1045H95L107 1456H1143V1270L430 224H937Z" />
<glyph unicode="[" glyph-name="bracketleft" horiz-adv-x="596" d="M431 1475V-120H572V-336H139V1691H572V1475H431Z" />
<glyph unicode="\" glyph-name="backslash" horiz-adv-x="854" d="M620 -125L12 1456H300L908 -125H620Z" />
<glyph unicode="]" glyph-name="bracketright" horiz-adv-x="579" d="M21 1475V1691H455V-336H21V-120H164V1475H21Z" />
<glyph unicode="^" glyph-name="asciicircum" horiz-adv-x="884" d="M451 1176H445L438 1142L276 729H45L344 1456H556L855 729H624L459 1142L451 1176Z" />
<glyph unicode="_" glyph-name="underscore" horiz-adv-x="1094" d="M92 -186V0H1002V-186H92Z" />
<glyph unicode="`" glyph-name="grave" horiz-adv-x="590" d="M316 1287L40 1554L42 1560H351L550 1287H316Z" />
<glyph unicode="a" glyph-name="a" horiz-adv-x="1154" d="M425 -21Q264 -21 169 65T74 301Q74 403 130 480Q186 557 294 601T561 645H704V725Q704 803 659 851T522 900Q475 900 438 889T370 856L347 713H137L133 994Q218 1042 317 1072T538 1102Q750 1102 873
1004T996 722V276Q996 254 996 233T1000 191L1113 175V0H751Q740 28 729 60T713 124Q661 58 591 19T425 -21ZM503 195Q564 195 619 222T704 295V466H560Q464 466 415 422T365 316Q365 258 401 227T503 195Z" />
<glyph unicode="b" glyph-name="b" horiz-adv-x="1181" d="M696 -21Q596 -21 525 18T406 133L385 0H133V1354L-22 1384V1560H424V967Q471 1032 539 1067T699 1102Q831 1102 922 1032Q1014 962 1061 834T1109 532V511Q1109 350 1061 231Q1013 111 921 45T696 -21ZM608
206Q720 206 769 285T818 511V532Q818 639 797 715Q775 792 730 833T611 875Q545 875 498 844T424 760V308Q485 206 608 206Z" />
<glyph unicode="c" glyph-name="c" horiz-adv-x="1082" d="M572 -21Q415 -21 303 49Q189 119 128 242T67 525V555Q67 714 129 838Q191 961 304 1031T570 1102Q716 1102 821 1057T993 951L991 641H771L732 834Q708 858 671 873T596 888Q516 888 464 848Q359 769
359 555V525Q359 415 388 343Q417 271 465 237T574 203Q651 203 697 243T762 358H1011L1014 352Q998 239 947 153Q896 69 805 24T572 -21Z" />
<glyph unicode="d" glyph-name="d" horiz-adv-x="1212" d="M479 -21Q349 -21 258 46Q165 112 116 231T67 511V532Q67 702 117 831Q167 959 258 1030T478 1102Q567 1102 634 1067T750 966V1354L594 1384V1560H1042V205L1182 175V0H789L767 132Q716 57 646 18T479
-21ZM566 206Q686 206 750 307V766Q687 875 568 875Q495 875 449 832Q403 789 381 712T359 532V511Q359 369 407 288T566 206Z" />
<glyph unicode="e" glyph-name="e" horiz-adv-x="1078" d="M581 -21Q426 -21 310 48Q194 116 131 236T67 510V550Q67 711 127 835T297 1032Q403 1102 551 1102H555Q702 1102 802 1044Q1006 926 1006 613V454H370L368 448Q374 378 404 322Q433 267 487 235T618
203Q698 203 767 223T903 284L982 104Q915 50 814 15T581 -21ZM369 652L372 647H733V673Q733 738 716 787Q678 886 560 886Q503 886 462 856Q422 825 400 772T369 652Z" />
<glyph unicode="f" glyph-name="f" horiz-adv-x="799" d="M512 205L703 175V0H79V175L220 205V877H59V1082H220V1202Q220 1384 324 1482T617 1581Q664 1581 716 1574T805 1556L780 1339Q730 1353 662 1353Q512 1353 512 1202V1082H757V877H512V205Z" />
<glyph unicode="g" glyph-name="g" horiz-adv-x="1198" d="M1171 1082V906L1044 879V32Q1044 -111 984 -216Q923 -321 810 -379T540 -437Q458 -437 356 -416T176 -356L230 -148Q300 -178 378 -195T525 -213Q642 -213 696 -148T751 33V104Q703 43 638 11T489 -21Q356
-21 262 46Q167 112 117 232T67 511V532Q67 702 117 831Q167 959 260 1030T483 1102Q580 1102 650 1062T769 946L790 1082H1171ZM751 302V772Q692 875 572 875Q496 875 450 832Q403 789 381 712T359 532V511Q359 369 408 288T571 206Q695 206 751 302Z" />
<glyph unicode="h" glyph-name="h" horiz-adv-x="1302" d="M479 205L605 175V0H47V175L188 205V1354L32 1384V1560H479V944Q530 1019 605 1060T777 1102Q940 1102 1035 994T1131 658V205L1271 175V0H713V175L839 205V660Q839 777 795 826T666 875Q541 875 479 779V205Z" />
<glyph unicode="i" glyph-name="i" horiz-adv-x="661" d="M185 1311V1560H487V1311H185ZM487 1082V205L627 175V0H54V175L195 205V876L39 906V1082H487Z" />
<glyph unicode="j" glyph-name="j" horiz-adv-x="600" d="M181 1311V1560H483V1311H181ZM105 -437Q29 -437 -39 -420L-24 -199Q23 -212 74 -212Q131 -212 163 -167T195 -40V876L39 906V1082H486V-40Q486 -231 386 -334T105 -437Z" />
<glyph unicode="k" glyph-name="k" horiz-adv-x="1316" d="M1232 906L1092 871L820 629L1143 206L1277 175V0H736V166L818 185L816 189L623 452L479 324V205L605 175V0H47V175L188 205V1354L32 1384V1560H479V615L778 889L780 892L669 908V1082H1232V906Z" />
<glyph unicode="l" glyph-name="l" horiz-adv-x="653" d="M480 1560V205L621 175V0H47V175L188 205V1354L32 1384V1560H480Z" />
<glyph unicode="m" glyph-name="m" horiz-adv-x="1917" d="M484 205L610 175V0H52V175L193 205V876L37 906V1082H464L476 939Q528 1017 606 1059T788 1102Q892 1102 966 1056T1078 917Q1128 1004 1208 1053T1396 1102Q1556 1102 1648 993T1741 661V205L1882 175V0H1323V175L1449
205V662Q1449 782 1410 828T1295 875Q1227 875 1180 837T1112 735V205L1230 175V0H703V175L821 205V662Q821 779 782 827T665 875Q544 875 484 778V205Z" />
<glyph unicode="n" glyph-name="n" horiz-adv-x="1307" d="M484 205L602 175V0H52V175L192 205V876L37 906V1082H464L477 927Q531 1010 610 1056T792 1102Q953 1102 1044 999T1135 676V205L1275 175V0H717V175L842 205V675Q842 784 799 829T671 875Q548 875 484 773V205Z" />
<glyph unicode="o" glyph-name="o" horiz-adv-x="1155" d="M579 -21Q419 -21 304 49Q189 119 128 243T67 530V551Q67 714 128 837Q189 962 303 1032T577 1102Q739 1102 852 1032Q966 962 1027 838T1088 551V530Q1088 367 1027 244Q966 120 852 50T579 -21ZM579
203Q654 203 703 244Q751 285 774 358T797 530V551Q797 646 774 721Q751 795 703 836T577 877Q503 877 453 836Q404 794 382 721T359 551V530Q359 433 382 358Q405 284 453 244T579 203Z" />
<glyph unicode="p" glyph-name="p" horiz-adv-x="1240" d="M488 -210L629 -240V-416H56V-240L197 -210V876L41 906V1082H465L479 956Q527 1026 595 1064T757 1102Q887 1102 981 1031Q1173 882 1173 532V511Q1173 349 1124 232Q1075 112 981 46T755 -21Q584 -21
488 103V-210ZM668 203Q780 203 830 286T881 511V532Q881 634 858 712Q835 789 788 832T666 875Q544 875 488 771V297Q543 203 668 203Z" />
<glyph unicode="q" glyph-name="q" horiz-adv-x="1156" d="M1039 -210L1170 -239V-416H576V-244L747 -210V100Q698 40 634 10T483 -21Q351 -21 259 46Q166 112 117 231T67 511V532Q67 702 117 831Q167 959 259 1030T482 1102Q577 1102 645 1063T763 952L785 1082H1039V-210ZM568
203Q688 203 747 296V777Q686 877 570 877Q495 877 449 834Q402 791 381 713T359 532V511Q359 368 407 286T568 203Z" />
<glyph unicode="r" glyph-name="r" horiz-adv-x="886" d="M517 205L657 175V0H85V175L225 205V876L70 906V1082H497L508 948L510 924Q591 1102 750 1102Q776 1102 807 1098T862 1086L831 817L686 825H672Q621 825 586 804Q547 780 517 735V205Z" />
<glyph unicode="s" glyph-name="s" horiz-adv-x="1034" d="M527 -21Q406 -21 302 2T101 68L98 374H301L340 218Q374 201 414 191T507 181Q605 181 645 213T685 293Q685 339 643 373Q599 408 473 433Q281 473 190 557T99 772Q99 863 145 936Q190 1010 283 1055T523
1100Q645 1100 746 1077T917 1015L920 719H718L687 861Q634 901 541 901Q464 901 423 870T382 790Q382 762 397 738Q413 711 462 690T579 653Q780 607 872 531T964 316Q964 165 855 72T527 -21Z" />
<glyph unicode="t" glyph-name="t" horiz-adv-x="735" d="M488 -21Q337 -21 256 62T174 325V877H25V1082H174V1347H465V1082H664V877H465V326Q465 263 491 236T564 209Q588 209 616 212T664 220L689 9Q644 -4 592 -12T488 -21Z" />
<glyph unicode="u" glyph-name="u" horiz-adv-x="1275" d="M522 -21Q351 -21 254 87T156 425V876L37 906V1082H448V423Q448 307 488 257T611 206Q741 206 808 304V876L679 906V1082H1100V205L1230 175V0H844L824 137Q773 61 696 20T522 -21Z" />
<glyph unicode="v" glyph-name="v" horiz-adv-x="1247" d="M1225 1082V906L1105 886L763 0H466L139 888L22 906V1082H547V907L433 887L596 396L621 312H627L655 396L834 886L701 907V1082H1225Z" />
<glyph unicode="w" glyph-name="w" horiz-adv-x="1822" d="M912 655H906L871 535L676 0H417L165 882L33 906V1082H556V907L442 885L542 464L562 381H568L595 464L817 1082H1013L1228 456L1256 368H1262L1288 456L1406 884L1280 907V1082H1792V906L1666 882L1391
0H1145L947 536L912 655Z" />
<glyph unicode="x" glyph-name="x" horiz-adv-x="1319" d="M661 387L498 179L590 167V0H30V175L169 193L479 542L186 889L55 906V1082H591V914L507 901L664 695L821 901L728 914V1082H1245V906L1124 889L847 554L1156 193L1289 175V0H734V167L828 180L661 387Z" />
<glyph unicode="y" glyph-name="y" horiz-adv-x="1285" d="M363 -437Q284 -437 202 -413L235 -199Q275 -207 317 -207Q450 -207 493 -79L517 -12L155 887L22 906V1082H596V906L464 886L655 350H661L862 888L733 906V1082H1268V906L1146 889L733 -161Q702 -237
657 -299Q611 -361 539 -399T363 -437Z" />
<glyph unicode="z" glyph-name="z" horiz-adv-x="1107" d="M776 209L819 408H1024V0H88V172L651 878H359L326 693H112V1082H1001V895L470 209H776Z" />
<glyph unicode="{" glyph-name="braceleft" horiz-adv-x="673" d="M633 -202L577 -360Q382 -305 300 -185T217 106V309Q217 408 174 463T39 518V719Q130 719 173 773T217 929V1132Q217 1303 299 1422T577 1597L633 1440Q547 1409 513 1330T478 1132V929Q478 825
433 745T298 619Q388 572 433 492T478 309V106Q478 -12 512 -91T633 -202Z" />
<glyph unicode="|" glyph-name="bar" horiz-adv-x="428" d="M132 -270V1456H307V-270H132Z" />
<glyph unicode="}" glyph-name="braceright" horiz-adv-x="679" d="M95 -360L39 -202Q123 -171 158 -92T193 106V309Q193 413 238 493T378 618Q284 663 239 743T193 929V1132Q193 1250 158 1329T39 1440L95 1597Q289 1542 372 1423T455 1132V929Q455 828 498 774T632
719V518Q541 518 498 463T455 309V106Q455 -65 372 -185T95 -360Z" />
<glyph unicode="~" glyph-name="asciitilde" horiz-adv-x="1323" d="M896 378Q816 378 745 409T595 511Q545 555 508 575T429 595Q374 595 338 544T301 422L100 448Q100 557 140 641Q179 726 249 775T412 825Q568 825 719 692Q810 608 884 608Q937 608 974 660T1012
785L1214 758Q1214 649 1174 565Q1134 479 1062 429T896 378Z" />
<glyph unicode="&#xa0;" glyph-name="uni00A0" horiz-adv-x="700" />
<glyph unicode="&#xab;" glyph-name="guillemotleft" horiz-adv-x="953" d="M284 915H471L231 515L471 116H284L4 506V525L284 915ZM679 915H866L626 515L866 116H679L399 506V525L679 915Z" />
<glyph unicode="&#xbb;" glyph-name="guillemotright" horiz-adv-x="973" d="M251 950L531 560V541L251 151H64L303 550L64 950H251ZM657 950L937 560V541L657 151H470L709 550L470 950H657Z" />
</font>
</defs>
</svg>
