<?xml version="1.0" standalone="no"?>
<!DOCTYPE svg PUBLIC "-//W3C//DTD SVG 1.1//EN" "http://www.w3.org/Graphics/SVG/1.1/DTD/svg11.dtd">
<svg xmlns="http://www.w3.org/2000/svg">
<defs >
<font id="MPLUS1Code" horiz-adv-x="958" ><font-face
    font-family="M PLUS 1 Code"
    units-per-em="1000"
    panose-1="0 0 0 0 0 0 0 0 0 0"
    ascent="1000"
    descent="-235"
    alphabetic="0" />
<glyph unicode=" " horiz-adv-x="500" />
<glyph unicode="!" horiz-adv-x="500" d="M180 230L160 730H340L320 230H180ZM250 -10Q207 -10 181 14T155 80Q155 122 181 146T250 170Q294 170 319 146T345 80Q345 38 320 14T250 -10Z" />
<glyph unicode="&quot;" horiz-adv-x="500" d="M99 470L80 770H228L209 470H99ZM291 470L272 770H420L401 470H291Z" />
<glyph unicode="#" horiz-adv-x="500" d="M45 0L66 159H20V279H81L106 471H55V591H122L140 730H276L258 591H301L319 730H455L437 591H480V471H421L396 279H445V159H381L360 0H224L245 159H202L181 0H45ZM201 218L155 279H322L260 218L301 532L347 471H180L242
532L201 218Z" />
<glyph unicode="$" horiz-adv-x="500" d="M190 -105V365H310V-105H190ZM190 365V835H310V365H190ZM224 -10Q179 -10 136 -4T55 15V149Q91 134 132 125T210 116Q259 116 285 133T311 185Q311 205 302 222T270 258T208 299Q144 337 106 372T52 448T35 540Q35 642
100 691T293 740Q328 740 365 737T440 725V500H300V671L349 610Q334 612 318 613T289 614Q230 614 205 597T179 538Q179 513 189 492T225 451T294 405Q354 370 389 338T440 268T455 181Q455 84 399 37T224 -10Z" />
<glyph unicode="%" horiz-adv-x="500" d="M414 410Q341 410 301 450T261 562V588Q261 660 301 700T414 740Q487 740 527 700T567 588V562Q567 490 527 450T414 410ZM414 495Q434 495 441 510T449 569V581Q449 624 442 639T414 655Q394 655 387 640T379 581V569Q379
526 386 511T414 495ZM342 -10Q269 -10 229 30T189 142V168Q189 240 229 280T342 320Q415 320 455 280T495 168V142Q495 70 455 30T342 -10ZM342 75Q362 75 369 90T377 149V161Q377 204 370 219T342 235Q322 235 315 220T307 161V149Q307 106 314 91T342 75ZM40
200V310L460 530V420L40 200Z" />
<glyph unicode="&amp;" horiz-adv-x="500" d="M278 -10Q10 -10 10 177Q10 209 18 238T45 295T91 354T160 418Q208 459 232 483T266 523T275 555Q275 587 261 602T217 618Q189 618 174 603T159 555Q159 537 167 519T198 473T269 392L462 181L376 93L135 347Q80
406 52 460T23 570Q23 647 76 693T217 740Q305 740 358 694T411 570Q411 531 395 495T342 418T243 326Q219 306 202 289T175 255T159 222T154 187Q154 147 179 130T266 112Q299 112 325 116T368 130L346 61V397H470V16Q415 3 370 -3T278 -10Z" />
<glyph unicode="&apos;" horiz-adv-x="500" d="M190 470L170 770H330L310 470H190Z" />
<glyph unicode="(" horiz-adv-x="500" d="M297 -110Q226 -21 188 92T150 330Q150 455 188 568T297 770H424Q353 670 319 563T285 330Q285 205 319 98T424 -110H297Z" />
<glyph unicode=")" horiz-adv-x="500" d="M203 -110H76Q147 -10 181 97T215 330Q215 455 181 562T76 770H203Q274 682 312 569T350 330Q350 206 312 93T203 -110Z" />
<glyph unicode="*" horiz-adv-x="500" d="M163 317L71 383L164 506L18 549L52 657L197 607L194 759H306L303 607L447 657L482 549L336 506L428 383L337 317L250 443L163 317Z" />
<glyph unicode="+" horiz-adv-x="500" d="M180 0V228H20V352H180V580H320V352H480V228H320V0H180Z" />
<glyph unicode="," horiz-adv-x="500" d="M114 -170L190 153H350L234 -170H114Z" />
<glyph unicode="-" horiz-adv-x="500" d="M100 228V352H400V228H100Z" />
<glyph unicode="." horiz-adv-x="500" d="M250 -10Q202 -10 174 18T145 93Q145 140 173 168T250 196Q298 196 326 168T355 93Q355 46 327 18T250 -10Z" />
<glyph unicode="/" horiz-adv-x="500" d="M5 -40L357 770H495L143 -40H5Z" />
<glyph unicode="0" horiz-adv-x="500" d="M250 316Q218 316 199 335T180 385Q180 417 199 435T250 454Q282 454 301 436T320 385Q320 354 301 335T250 316ZM250 -10Q168 -10 119 23T47 133T25 335V395Q25 522 47 597T118 706T250 740Q333 740 382 707T453 598T475
395V335Q475 209 453 133T382 24T250 -10ZM250 114Q284 114 301 132T324 199T331 345V385Q331 481 325 530T301 598T250 616Q217 616 200 598T176 531T169 385V345Q169 249 175 200T199 132T250 114Z" />
<glyph unicode="1" horiz-adv-x="500" d="M254 0V565H252L38 386V550L254 730H398V0H254Z" />
<glyph unicode="2" horiz-adv-x="500" d="M50 120Q118 193 165 250T241 354T283 439T296 511Q296 564 273 589T201 614Q137 614 50 577V707Q125 740 233 740Q342 740 393 689T444 527Q444 481 432 434T393 336T329 233T237 124V120H450V0H50V120Z" />
<glyph unicode="3" horiz-adv-x="500" d="M216 -10Q180 -10 135 -4T45 14V144Q87 128 121 120T188 112Q313 112 313 222Q313 276 278 298T156 320H112V440L267 606V610H45V730H443V610L278 433V429V429Q361 429 408 374T455 222Q455 110 393 50T216 -10Z" />
<glyph unicode="4" horiz-adv-x="500" d="M276 0V131H10V251L276 730H420V251H490V131H420V0H276ZM159 248H286V474H282L159 252V248Z" />
<glyph unicode="5" horiz-adv-x="500" d="M227 -10Q188 -10 144 -4T56 14V144Q110 124 139 118T199 112Q270 112 297 138T324 232Q324 293 307 321T251 349Q230 349 210 337T176 305H56V730H446V610H196V453H200Q222 462 244 466T288 471Q374 471 420 410T466
232Q466 105 407 48T227 -10Z" />
<glyph unicode="6" horiz-adv-x="500" d="M250 -10Q166 -10 116 19T43 114T20 290Q20 445 60 543T184 690T400 740V616Q340 616 292 597T215 543T182 463H186Q214 478 239 484T293 490Q389 490 434 432T480 250Q480 111 427 51T250 -10ZM251 110Q296 110 317 142T338
243Q338 311 317 343T251 376Q206 376 185 344T164 243Q164 175 185 143T251 110Z" />
<glyph unicode="7" horiz-adv-x="500" d="M108 0Q143 159 194 314T310 602V606H40V730H460V606Q396 473 348 328T260 0H108Z" />
<glyph unicode="8" horiz-adv-x="500" d="M250 -10Q138 -10 74 45T10 197Q10 311 116 373V377Q72 408 45 456T18 559Q18 642 81 691T250 740Q357 740 419 691T482 559Q482 507 457 462T384 384V380Q435 354 462 307T490 197Q490 101 426 46T250 -10ZM250 110Q294
110 320 134T346 201Q346 239 322 265T242 310Q154 276 154 201Q154 159 180 135T250 110ZM252 442Q296 458 318 483T340 542Q340 579 316 599T250 620Q208 620 184 600T160 542Q160 507 183 482T252 442Z" />
<glyph unicode="9" horiz-adv-x="500" d="M250 740Q335 740 385 711T457 616T480 440Q480 286 440 187T317 40T100 -10V114Q161 114 208 133T285 187T318 267H314Q286 252 261 246T207 240Q111 240 66 298T20 480Q20 619 73 679T250 740ZM249 620Q204 620 183
588T162 487Q162 419 183 387T249 354Q294 354 315 386T336 487Q336 555 315 587T249 620Z" />
<glyph unicode=":" horiz-adv-x="500" d="M250 324Q202 324 174 352T145 427Q145 474 173 502T250 530Q298 530 326 502T355 427Q355 380 327 352T250 324ZM250 -10Q202 -10 174 18T145 93Q145 140 173 168T250 196Q298 196 326 168T355 93Q355 46 327 18T250 -10Z" />
<glyph unicode=";" horiz-adv-x="500" d="M102 -170L178 153H338L222 -170H102ZM252 324Q204 324 176 352T147 427Q147 474 175 502T252 530Q300 530 328 502T357 427Q357 380 329 352T252 324Z" />
<glyph unicode="&lt;" horiz-adv-x="500" d="M444 3L44 212V368L444 577V444L148 293V287L444 136V3Z" />
<glyph unicode="=" horiz-adv-x="500" d="M50 350V470H450V350H50ZM50 110V230H450V110H50Z" />
<glyph unicode="&gt;" horiz-adv-x="500" d="M56 3V136L352 287V293L56 444V577L456 368V212L56 3Z" />
<glyph unicode="?" horiz-adv-x="500" d="M154 230Q154 290 173 340T253 444Q281 469 296 486T319 519T326 550Q326 583 300 598T217 614Q171 614 126 604T22 570V701Q72 719 133 729T253 740Q367 740 424 698T482 570Q482 535 472 505T437 443T373 376Q344 351
329 327T309 279T304 230H154ZM229 -10Q186 -10 160 14T134 80Q134 122 160 146T229 170Q273 170 298 146T324 80Q324 38 299 14T229 -10Z" />
<glyph unicode="@" horiz-adv-x="500" d="M274 -114Q141 -114 78 -23T14 260Q14 454 78 544T279 634Q474 634 474 434V108Q445 80 396 62T299 43Q229 43 197 94T164 257Q164 367 194 419T289 471Q327 471 355 446H359V464Q359 497 337 514T271 532Q195 532 163
469T130 260Q130 158 145 99T197 14T294 -12Q329 -12 361 -5T424 18V-90Q392 -101 352 -107T274 -114ZM317 142Q337 142 350 155V352Q346 361 338 366T317 372Q298 372 291 349T284 257Q284 188 291 165T317 142Z" />
<glyph unicode="A" horiz-adv-x="500" d="M5 0L170 730H330L495 0H353L252 560H248L147 0H5ZM110 155V275H390V155H110Z" />
<glyph unicode="B" horiz-adv-x="500" d="M208 -10Q178 -10 138 -8T50 2V728Q99 735 138 737T208 740Q336 740 397 697T459 565Q459 499 428 454T342 396V392Q409 380 444 331T480 200Q480 92 414 41T208 -10ZM167 126Q177 119 190 116T225 112Q282 112 309 138T336
220Q336 276 308 302T219 328H120V444H204Q263 444 290 464T317 531Q317 575 295 596T225 618Q208 618 193 615T167 604L190 646V84L167 126Z" />
<glyph unicode="C" horiz-adv-x="500" d="M300 -10Q167 -10 102 76T36 335V395Q36 568 102 654T301 740Q335 740 371 734T436 718V460H296V691L366 584Q332 614 296 614Q239 614 210 556T180 385V345Q180 221 211 169T316 116Q341 116 373 121T436 134V4Q406 -2
369 -6T300 -10Z" />
<glyph unicode="D" horiz-adv-x="500" d="M184 -10Q124 -10 46 2V728Q124 740 184 740Q288 740 352 705T446 594T476 395V335Q476 213 446 137T352 25T184 -10ZM163 130Q172 123 183 120T210 116Q253 116 280 140T320 216T334 345V385Q334 464 321 514T280 589T210
614Q195 614 184 611T163 600L186 646V84L163 130Z" />
<glyph unicode="E" horiz-adv-x="500" d="M68 0V730H438V612H210V444H428V328H210V118H438V0H68Z" />
<glyph unicode="F" horiz-adv-x="500" d="M70 0V730H450V610H214V436H440V316H214V0H70Z" />
<glyph unicode="G" horiz-adv-x="500" d="M301 -10Q20 -10 20 335V395Q20 569 92 654T311 740Q345 740 377 736T440 726V596Q409 604 380 609T322 614Q237 614 201 562T164 385V345Q164 233 196 175T292 116Q312 116 330 123T369 146L320 69V328H220V444H460V10Q426
1 383 -4T301 -10Z" />
<glyph unicode="H" horiz-adv-x="500" d="M40 0V730H180V448H320V730H460V0H320V324H180V0H40Z" />
<glyph unicode="I" horiz-adv-x="500" d="M70 0V120H178V610H70V730H430V610H322V120H430V0H70Z" />
<glyph unicode="J" horiz-adv-x="500" d="M197 -10Q109 -10 42 19V149Q73 134 109 125T177 116Q225 116 246 138T268 210V610H82V730H412V195Q412 88 361 39T197 -10Z" />
<glyph unicode="K" horiz-adv-x="500" d="M58 0V730H198V426H202L338 730H488L333 386L488 0H338L202 346H198V0H58Z" />
<glyph unicode="L" horiz-adv-x="500" d="M65 0V730H209V124H455V0H65Z" />
<glyph unicode="M" horiz-adv-x="500" d="M30 0V730H220L248 430H252L280 730H470V0H335L347 500H343L295 140H205L157 500H153L165 0H30Z" />
<glyph unicode="N" horiz-adv-x="500" d="M40 0V730H220L316 270H320V730H460V0H280L184 460H180V0H40Z" />
<glyph unicode="O" horiz-adv-x="500" d="M250 -10Q168 -10 119 23T47 133T25 335V395Q25 522 47 597T118 706T250 740Q333 740 382 707T453 598T475 395V335Q475 209 453 133T382 24T250 -10ZM250 114Q284 114 301 132T324 199T331 345V385Q331 481 325 530T301
598T250 616Q217 616 200 598T176 531T169 385V345Q169 249 175 200T199 132T250 114Z" />
<glyph unicode="P" horiz-adv-x="500" d="M60 728Q107 735 143 737T209 740Q307 740 366 715T453 632T480 482Q480 389 453 333T367 250T209 224Q184 224 161 225T120 228L168 352Q179 351 193 350T223 348Q265 348 290 361T327 403T338 481Q338 530 327 559T291
601T223 614Q208 614 193 613T168 610L204 647V0H60V728Z" />
<glyph unicode="Q" horiz-adv-x="500" d="M350 -150Q350 -91 342 -61T313 -21T250 -10Q168 -10 119 23T47 133T25 335V395Q25 522 47 597T118 706T250 740Q333 740 382 707T453 598T475 395V335Q475 226 460 158T412 51V47Q454 27 474 -21T495 -150H350ZM250 114Q284
114 301 132T324 199T331 345V385Q331 481 325 530T301 598T250 616Q217 616 200 598T176 531T169 385V345Q169 249 175 200T199 132T250 114Z" />
<glyph unicode="R" horiz-adv-x="500" d="M52 728Q99 735 134 737T201 740Q299 740 358 716T445 640T472 500Q472 414 445 361T359 284T201 260Q176 260 153 261T112 264L160 384Q175 382 189 381T215 380Q258 380 283 391T319 428T330 497Q330 540 319 565T283
602T215 614Q204 614 191 613T160 610L192 647V0H52V728ZM328 0L164 320H314L482 0H328Z" />
<glyph unicode="S" horiz-adv-x="500" d="M224 -10Q179 -10 136 -4T55 15V149Q91 134 132 125T210 116Q259 116 285 133T311 185Q311 205 302 222T270 258T208 299Q144 337 106 372T52 448T35 540Q35 642 100 691T293 740Q328 740 365 737T440 725V500H300V671L349
610Q334 612 318 613T289 614Q230 614 205 597T179 538Q179 513 189 492T225 451T294 405Q354 370 389 338T440 268T455 181Q455 84 399 37T224 -10Z" />
<glyph unicode="T" horiz-adv-x="500" d="M178 0V606H35V730H465V606H322V0H178Z" />
<glyph unicode="U" horiz-adv-x="500" d="M250 -10Q141 -10 91 39T40 195V730H180V210Q180 158 196 136T250 114Q288 114 304 136T320 210V730H460V195Q460 89 410 40T250 -10Z" />
<glyph unicode="V" horiz-adv-x="500" d="M170 0L5 730H147L248 190H252L353 730H495L330 0H170Z" />
<glyph unicode="W" horiz-adv-x="500" d="M55 0L5 730H145L153 230H157L205 630H295L343 230H347L355 730H495L445 0H280L252 300H248L220 0H55Z" />
<glyph unicode="X" horiz-adv-x="500" d="M25 0L150 369L25 730H173L248 459H252L327 730H475L350 369L475 0H325L252 279H248L175 0H25Z" />
<glyph unicode="Y" horiz-adv-x="500" d="M178 0V275L5 730H149L248 420H252L351 730H495L322 275V0H178Z" />
<glyph unicode="Z" horiz-adv-x="500" d="M60 0V120L282 606V610H60V730H440V610L218 124V120H440V0H60Z" />
<glyph unicode="[" horiz-adv-x="500" d="M105 -110V770H415V663H233V-3H415V-110H105Z" />
<glyph unicode="\" horiz-adv-x="500" d="M495 -40H357L5 770H143L495 -40Z" />
<glyph unicode="]" horiz-adv-x="500" d="M395 -110H85V-3H267V663H85V770H395V-110Z" />
<glyph unicode="^" horiz-adv-x="500" d="M10 280L171 730H329L490 280H344L252 590H248L156 280H10Z" />
<glyph unicode="_" horiz-adv-x="500" d="M0 -177V-77H500V-177H0Z" />
<glyph unicode="`" horiz-adv-x="500" d="M180 570L60 790H230L310 570H180Z" />
<glyph unicode="a" horiz-adv-x="500" d="M267 -10Q156 -10 96 36T35 167Q35 251 95 295T271 340H376V230H273Q173 230 173 168Q173 137 196 121T261 104Q286 104 305 110T343 131L307 58V336Q307 371 302 387T281 409T230 414Q205 414 182 412T132 405T65 388V504Q101
517 147 523T245 530Q322 530 365 513T427 455T445 340V22Q411 7 363 -1T267 -10Z" />
<glyph unicode="b" horiz-adv-x="500" d="M233 -10Q181 -10 135 -1T56 22V730H194V72L164 135Q196 108 246 108Q278 108 296 122T321 170T328 267Q328 322 322 353T301 397T260 410Q241 410 219 404T163 380L124 496Q158 514 196 522T274 530Q344 530 386 505T447
422T466 270Q466 169 443 108T369 18T233 -10Z" />
<glyph unicode="c" horiz-adv-x="500" d="M297 -10Q46 -10 46 240V280Q46 530 298 530Q368 530 426 514V290H288V495L360 390Q342 398 321 403T277 408Q227 408 207 378T186 270V250Q186 194 196 164T234 123T313 112Q343 112 367 115T426 128V6Q397 -1 365 -5T297 -10Z" />
<glyph unicode="d" horiz-adv-x="500" d="M267 -10Q183 -10 132 18T58 107T34 270Q34 365 53 422T114 504T226 530Q266 530 304 522T376 496L337 380Q303 397 282 403T240 410Q214 410 199 397T178 353T172 267Q172 205 179 171T204 122T254 108Q304 108 336 135L306
72V730H444V22Q411 8 365 -1T267 -10Z" />
<glyph unicode="e" horiz-adv-x="500" d="M288 -10Q162 -10 101 51T40 240V280Q40 409 90 469T250 530Q359 530 409 470T460 280V199H108V309H350L326 274V274Q326 351 309 381T251 412Q210 412 193 382T176 274V246Q176 188 185 159T221 119T300 108Q329 108
358 111T430 124V6Q397 -1 360 -5T288 -10Z" />
<glyph unicode="f" horiz-adv-x="500" d="M158 0V382H30V500H158V573Q158 671 207 720T352 770Q381 770 413 766T470 756V633Q442 641 418 644T375 648Q334 648 316 630T298 568V500H470V382H298V0H158Z" />
<glyph unicode="g" horiz-adv-x="500" d="M74 -98Q199 -98 252 -67T306 35V462L337 390Q307 401 287 405T250 410Q220 410 203 399T179 359T172 281Q172 226 179 195T205 151T256 138Q273 138 292 141T341 152L375 30Q350 26 323 23T267 20Q183 20 132 46T58 131T34
284Q34 374 57 428T131 506T268 530Q371 530 444 498V45Q444 -91 354 -155T74 -220V-98Z" />
<glyph unicode="h" horiz-adv-x="500" d="M316 332Q316 363 310 379T288 403T244 410Q222 410 204 405T147 380L114 496Q149 515 182 522T264 530Q337 530 378 513T437 455T454 340V0H316V332ZM46 0V730H184V0H46Z" />
<glyph unicode="i" horiz-adv-x="500" d="M234 0V402H74V520H374V0H234ZM290 580Q246 580 220 604T194 670Q194 712 220 736T289 760Q333 760 358 736T384 670Q384 628 359 604T290 580Z" />
<glyph unicode="j" horiz-adv-x="500" d="M74 -98Q160 -98 197 -67T234 34V402H74V520H374V45Q374 -91 301 -155T74 -220V-98ZM289 580Q246 580 220 604T194 670Q194 712 220 736T289 760Q333 760 358 736T384 670Q384 628 359 604T289 580Z" />
<glyph unicode="k" horiz-adv-x="500" d="M50 0V730H188V311H192L332 520H490L321 270L490 0H332L192 226H188V0H50Z" />
<glyph unicode="l" horiz-adv-x="500" d="M343 -10Q250 -10 210 27T170 153V612H30V730H310V187Q310 143 323 128T377 112Q403 112 426 117T470 131V9Q439 -1 408 -5T343 -10Z" />
<glyph unicode="m" horiz-adv-x="500" d="M20 0V500Q49 515 83 522T157 530Q190 530 209 524T250 500Q276 517 299 523T355 530Q426 530 453 498T480 380V0H354V382Q354 392 352 398T346 407T333 410Q326 410 320 407T308 399V0H192V382Q192 392 190 398T184 407T171
410Q157 410 146 399V0H20Z" />
<glyph unicode="n" horiz-adv-x="500" d="M46 498Q87 515 134 522T240 530Q322 530 368 513T434 455T454 340V0H316V332Q316 362 309 379T286 403T240 410Q224 410 211 408T181 398T136 376L184 462V0H46V498Z" />
<glyph unicode="o" horiz-adv-x="500" d="M250 -10Q139 -10 87 50T35 240V280Q35 409 87 469T250 530Q361 530 413 470T465 280V240Q465 111 413 51T250 -10ZM250 112Q291 112 308 143T325 250V270Q325 346 308 377T250 408Q209 408 192 377T175 270V250Q175 174
192 143T250 112Z" />
<glyph unicode="p" horiz-adv-x="500" d="M56 498Q129 530 232 530Q318 530 369 505T443 422T466 270Q466 169 443 108T369 18T233 -10Q205 -10 178 -7T125 1L159 124Q188 115 208 112T244 108Q277 108 295 122T321 170T328 267Q328 322 321 353T297 397T250 410Q233
410 213 406T163 390L194 462V-210H56V498Z" />
<glyph unicode="q" horiz-adv-x="500" d="M306 -210V462L337 390Q307 401 287 405T250 410Q220 410 203 397T179 353T172 267Q172 205 179 171T205 122T256 108Q273 108 292 111T341 124L375 1Q350 -4 323 -7T267 -10Q183 -10 132 18T58 107T34 270Q34 365 57
422T131 504T268 530Q371 530 444 498V-210H306Z" />
<glyph unicode="r" horiz-adv-x="500" d="M94 475Q148 492 209 504T332 523T444 530V410Q380 410 313 399T199 370L234 435V0H94V475Z" />
<glyph unicode="s" horiz-adv-x="500" d="M234 -10Q188 -10 147 -4T65 16V136Q110 123 150 117T228 110Q273 110 291 119T310 151Q310 162 302 171T274 188T225 203Q132 226 91 266T50 377Q50 457 102 493T269 530Q310 530 349 525T440 508V340H302V480L361 405Q330
408 312 409T280 410Q233 410 212 401T190 370Q190 357 200 346T231 324T288 304Q377 279 413 243T450 142Q450 63 398 27T234 -10Z" />
<glyph unicode="t" horiz-adv-x="500" d="M311 -10Q216 -10 175 27T133 153V402H22V520H133V690H273V520H442V402H273V187Q273 143 287 128T343 112Q370 112 395 117T442 131V9Q410 -1 378 -5T311 -10Z" />
<glyph unicode="u" horiz-adv-x="500" d="M260 -10Q180 -10 134 7T69 65T50 180V520H188V188Q188 158 194 141T217 117T262 110Q279 110 292 112T321 122T364 144L312 58V520H450V22Q371 -10 260 -10Z" />
<glyph unicode="v" horiz-adv-x="500" d="M171 0L10 520H156L248 162H252L344 520H490L329 0H171Z" />
<glyph unicode="w" horiz-adv-x="500" d="M57 0L5 520H143L153 160H157L197 520H303L343 160H347L357 520H495L443 0H280L252 290H248L220 0H57Z" />
<glyph unicode="x" horiz-adv-x="500" d="M30 0L146 260L30 520H176L248 343H252L324 520H470L354 260L470 0H322L252 177H248L178 0H30Z" />
<glyph unicode="y" horiz-adv-x="500" d="M50 -98Q101 -98 133 -85T179 -42T194 34L202 -29L10 520H156L254 185H258L344 520H490L310 -61Q293 -115 260 -150T174 -203T50 -220V-98Z" />
<glyph unicode="z" horiz-adv-x="500" d="M65 0V118L275 398V402H65V520H435V402L225 122V118H435V0H65Z" />
<glyph unicode="{" horiz-adv-x="500" d="M324 -110Q242 -110 206 -73T170 50V153Q170 214 150 242T84 270H40V390H84Q129 390 149 418T170 507V610Q170 696 206 733T324 770H436V663H391Q351 663 331 656T305 628T298 563V494Q298 428 274 390T197 332V328Q250
309 274 271T298 166V97Q298 54 304 33T331 4T391 -3H436V-110H324Z" />
<glyph unicode="|" horiz-adv-x="500" d="M186 -210V810H314V-210H186Z" />
<glyph unicode="}" horiz-adv-x="500" d="M176 -110H64V-3H109Q149 -3 169 4T195 32T202 97V166Q202 232 226 270T303 328V332Q250 352 226 390T202 494V563Q202 606 196 627T169 656T109 663H64V770H176Q258 770 294 733T330 610V507Q330 446 350 418T416 390H460V270H416Q371
270 351 242T330 153V50Q330 -35 294 -72T176 -110Z" />
<glyph unicode="~" horiz-adv-x="500" d="M360 190Q327 190 293 202T218 243Q196 257 182 263T158 270Q147 270 144 257T140 200H10Q10 295 42 342T140 390Q173 390 207 378T282 337Q304 323 318 317T342 310Q353 310 356 323T360 380H490Q490 285 458 238T360 190Z" />
<glyph unicode="&#xa0;" horiz-adv-x="500" />
<glyph unicode="&#xa1;" horiz-adv-x="500" d="M180 290H320L340 -210H160L180 290ZM250 530Q294 530 319 506T345 440Q345 398 320 374T250 350Q207 350 181 374T155 440Q155 482 181 506T250 530Z" />
<glyph unicode="&#xa2;" horiz-adv-x="500" d="M200 260V625H320V260H200ZM200 -105V260H320V-105H200ZM297 -10Q46 -10 46 240V280Q46 530 298 530Q368 530 426 514V290H288V495L360 390Q342 398 321 403T277 408Q227 408 207 378T186 270V250Q186 194 196 164T234
123T313 112Q343 112 367 115T426 128V6Q397 -1 365 -5T297 -10Z" />
<glyph unicode="&#xa3;" horiz-adv-x="500" d="M50 120Q75 123 91 139T116 186T125 260V543Q125 641 172 690T312 740Q338 740 368 737T425 726V603Q402 611 379 614T338 618Q300 618 284 600T267 538V260Q267 209 257 173T230 124V120H450V0H50V120ZM50 328V444H400V328H50Z"
/>
<glyph unicode="&#xa4;" horiz-adv-x="500" d="M250 70Q198 70 155 95T86 164T60 260Q60 313 85 356T154 424T250 450Q303 450 346 425T414 356T440 260Q440 208 415 165T346 96T250 70ZM91 30L20 101L119 200L190 129L91 30ZM409 30L310 129L381 200L480 101L409
30ZM119 320L20 419L91 490L190 391L119 320ZM250 180Q272 180 290 191T319 220T330 260Q330 282 319 300T290 329T250 340Q228 340 210 329T181 300T170 260Q170 238 181 220T210 191T250 180ZM381 320L310 391L409 490L480 419L381 320Z" />
<glyph unicode="&#xa5;" horiz-adv-x="500" d="M29 95V205H469V95H29ZM29 255V365H469V255H29ZM178 0V275L5 730H149L248 420H252L351 730H495L322 275V0H178Z" />
<glyph unicode="&#xa6;" horiz-adv-x="500" d="M186 370V810H314V370H186ZM186 -220V220H314V-220H186Z" />
<glyph unicode="&#xa7;" horiz-adv-x="500" d="M260 210Q291 210 313 232T335 290Q335 322 314 345T240 380Q163 397 120 420T58 476T40 555Q40 641 95 690T250 740Q345 740 435 705V590Q383 610 338 620T250 630Q213 630 194 614T175 565Q175 541 189 525T235
500Q354 469 404 422T455 310Q455 228 406 181T260 125V210ZM250 -150Q155 -150 65 -115V0Q117 -20 162 -30T250 -40Q287 -40 306 -23T325 26Q325 49 311 66T265 91Q147 122 96 168T45 281Q45 362 94 410T240 466V381Q209 381 187 359T165 301Q165 268 186 245T260
211Q337 194 380 171T442 114T460 36Q460 -51 404 -100T250 -150Z" />
<glyph unicode="&#xa8;" horiz-adv-x="500" d="M397 780Q353 780 327 804T301 870Q301 912 327 936T396 960Q440 960 465 936T491 870Q491 828 466 804T397 780ZM361 780Q317 780 291 804T265 870Q265 912 291 936T360 960Q404 960 429 936T455 870Q455 828 430
804T361 780Z" />
<glyph unicode="&#xa9;" horiz-adv-x="500" d="M250 260Q178 260 124 290T40 374T10 500Q10 572 40 626T124 710T250 740Q322 740 376 710T460 626T490 500Q490 428 460 374T376 290T250 260ZM264 352Q198 352 165 386T132 490V514Q132 652 265 652Q282 652 300
650T332 643V530H252V632L291 581Q277 592 262 592Q238 592 226 572T214 510V494Q214 448 227 430T272 412Q285 412 300 414T332 419V358Q317 355 299 354T264 352ZM250 310Q308 310 350 333T416 399T440 500Q440 558 417 600T351 666T250 690Q192 690 150 667T84
601T60 500Q60 442 83 400T149 334T250 310Z" />
<glyph unicode="&#xaa;" horiz-adv-x="500" d="M265 285Q161 285 105 323T48 433Q48 504 105 541T269 579H368V474H271Q222 474 203 465T183 434Q183 412 201 402T260 392Q285 392 300 396T332 413L298 342V575Q298 599 293 610T272 625T222 629Q198 629 180 628T141
622T82 607V716Q115 727 152 732T236 738Q311 738 353 724T414 675T432 579V311Q401 299 356 292T265 285Z" />
<glyph unicode="&#xab;" horiz-adv-x="500" d="M160 0L14 260L160 520H279L129 260L279 0H160ZM341 0L195 260L341 520H460L310 260L460 0H341Z" />
<glyph unicode="&#xac;" horiz-adv-x="500" d="M356 110V346H20V470H480V110H356Z" />
<glyph unicode="&#xad;" horiz-adv-x="500" d="M100 228V352H400V228H100Z" />
<glyph unicode="&#xae;" horiz-adv-x="500" d="M250 260Q178 260 124 290T40 374T10 500Q10 572 40 626T124 710T250 740Q322 740 376 710T460 626T490 500Q490 428 460 374T376 290T250 260ZM250 310Q308 310 350 333T416 399T440 500Q440 558 417 600T351 666T250
690Q192 690 150 667T84 601T60 500Q60 442 83 400T149 334T250 310ZM154 647Q178 650 195 651T229 652Q302 652 333 630T364 554Q364 501 333 478T229 455Q216 455 204 455T184 457L209 515Q217 514 223 514T236 513Q264 513 273 521T283 553Q283 576 274 584T236
592Q230 592 224 592T209 590L234 615V356H154V647ZM281 356L228 484H308L369 356H281Z" />
<glyph unicode="&#xaf;" horiz-adv-x="500" d="M65 788V892H435V788H65Z" />
<glyph unicode="&#xb0;" horiz-adv-x="500" d="M250 384Q200 384 160 407T96 471T72 562Q72 613 95 653T159 716T250 740Q301 740 341 717T404 653T428 562Q428 512 405 472T341 408T250 384ZM250 476Q275 476 294 487T325 517T336 562Q336 587 325 606T295 637T250
648Q225 648 206 637T175 607T164 562Q164 537 175 518T205 487T250 476Z" />
<glyph unicode="&#xb1;" horiz-adv-x="500" d="M180 196V403H20V523H180V730H320V523H480V403H320V196H180ZM20 0V120H480V0H20Z" />
<glyph unicode="&#xb2;" horiz-adv-x="500" d="M102 493Q165 534 196 556T238 592T249 618Q249 632 236 638T191 645Q166 645 143 642T102 633V720Q123 726 160 730T226 735Q293 735 331 710T370 641Q370 623 364 604T344 567T313 531T272 497V493H374V410H102V493Z" />
<glyph unicode="&#xb3;" horiz-adv-x="500" d="M215 405Q188 405 157 408T99 415V499Q131 494 159 491T206 488Q261 488 261 511Q261 521 248 524T195 528H144V601L230 643V647H99V730H371V647L278 599V595V595Q322 595 349 571T377 506Q377 405 215 405Z" />
<glyph unicode="&#xb4;" horiz-adv-x="500" d="M320 780H190L270 1000H440L320 780Z" />
<glyph unicode="&#xb5;" horiz-adv-x="500" d="M50 -220V205L188 116V-220H50ZM260 -10Q180 -10 134 7T69 65T50 180V520H188V188Q188 158 194 141T217 117T262 110Q279 110 292 112T321 122T364 144L312 58V520H450V22Q371 -10 260 -10Z" />
<glyph unicode="&#xb6;" horiz-adv-x="500" d="M202 270Q153 270 112 301T47 384T22 501Q22 565 46 616T112 699T202 730H452V-140H352V610H302V-140H202V270Z" />
<glyph unicode="&#xb7;" horiz-adv-x="500" d="M250 180Q202 180 174 208T145 283Q145 330 173 358T250 386Q298 386 326 358T355 283Q355 236 327 208T250 180Z" />
<glyph unicode="&#xb8;" horiz-adv-x="500" d="M246 -218Q231 -218 218 -218T192 -216V-113Q203 -114 214 -114T236 -115Q250 -115 259 -111T274 -100T279 -81Q279 -62 256 -42T188 0L316 33Q361 -1 383 -33T405 -102Q405 -139 387 -165T333 -204T246 -218Z" />
<glyph unicode="&#xb9;" horiz-adv-x="500" d="M213 410V618H209L86 550V651L233 730H331V410H213Z" />
<glyph unicode="&#xba;" horiz-adv-x="500" d="M250 285Q144 285 94 335T44 495V528Q44 637 94 687T250 738Q357 738 406 688T456 528V495Q456 386 407 336T250 285ZM250 399Q288 399 302 421T316 503V520Q316 580 302 602T250 624Q213 624 199 602T184 520V503Q184
443 198 421T250 399Z" />
<glyph unicode="&#xbb;" horiz-adv-x="500" d="M340 0H221L371 260L221 520H340L486 260L340 0ZM159 0H40L190 260L40 520H159L305 260L159 0Z" />
<glyph unicode="&#xbc;" horiz-adv-x="500" d="M423 415V623H419L296 555V656L443 735H541V415H423ZM303 -5V37H132V104L313 315H421V119H458V37H421V-5H303ZM241 109H313V193H309L241 113V109ZM40 200V310L460 530V420L40 200Z" />
<glyph unicode="&#xbd;" horiz-adv-x="500" d="M423 415V623H419L296 555V656L443 735H541V415H423ZM186 78Q249 119 280 141T322 177T333 203Q333 217 320 223T275 230Q250 230 227 227T186 218V305Q207 311 244 315T310 320Q377 320 415 295T454 226Q454 208
448 189T428 152T397 116T356 82V78H458V-5H186V78ZM40 200V310L460 530V420L40 200Z" />
<glyph unicode="&#xbe;" horiz-adv-x="500" d="M303 -5V37H132V104L313 315H421V119H458V37H421V-5H303ZM241 109H313V193H309L241 113V109ZM421 410Q394 410 363 413T305 420V504Q337 499 365 496T412 493Q467 493 467 516Q467 526 454 529T401 533H350V606L436
648V652H305V735H577V652L484 604V600V600Q528 600 555 576T583 511Q583 410 421 410ZM40 200V310L460 530V420L40 200Z" />
<glyph unicode="&#xbf;" horiz-adv-x="500" d="M346 290Q346 230 327 180T247 76Q220 52 204 34T181 0T174 -30Q174 -63 200 -78T283 -94Q329 -94 374 -84T478 -50V-181Q429 -199 368 -209T247 -220Q133 -220 76 -178T18 -50Q18 -15 28 15T63 77T127 144Q156 170
171 194T191 242T196 290H346ZM271 530Q315 530 340 506T366 440Q366 398 341 374T271 350Q228 350 202 374T176 440Q176 482 202 506T271 530Z" />
<glyph unicode="&#xc0;" horiz-adv-x="500" d="M5 0L170 730H330L495 0H353L252 560H248L147 0H5ZM110 155V275H390V155H110ZM180 780L60 1000H230L310 780H180Z" />
<glyph unicode="&#xc1;" horiz-adv-x="500" d="M5 0L170 730H330L495 0H353L252 560H248L147 0H5ZM110 155V275H390V155H110ZM571 780H441L521 1000H691L571 780Z" />
<glyph unicode="&#xc2;" horiz-adv-x="500" d="M5 0L170 730H330L495 0H353L252 560H248L147 0H5ZM110 155V275H390V155H110ZM30 780L145 1000H355L470 780H310L252 930H248L190 780H30Z" />
<glyph unicode="&#xc3;" horiz-adv-x="500" d="M5 0L170 730H330L495 0H353L252 560H248L147 0H5ZM110 155V275H390V155H110ZM340 785Q317 785 291 795T231 832Q217 843 207 849T191 855Q180 855 175 841T170 795H50Q50 890 77 937T160 985Q183 985 209 975T269
938Q283 927 293 921T309 915Q320 915 325 929T330 975H450Q450 881 423 833T340 785Z" />
<glyph unicode="&#xc4;" horiz-adv-x="500" d="M5 0L170 730H330L495 0H353L252 560H248L147 0H5ZM110 155V275H390V155H110ZM397 780Q353 780 327 804T301 870Q301 912 327 936T396 960Q440 960 465 936T491 870Q491 828 466 804T397 780ZM361 780Q317 780 291
804T265 870Q265 912 291 936T360 960Q404 960 429 936T455 870Q455 828 430 804T361 780Z" />
<glyph unicode="&#xc5;" horiz-adv-x="500" d="M5 0L170 730H330L495 0H353L252 560H248L147 0H5ZM110 155V275H390V155H110ZM250 644Q207 644 171 665T114 721T93 800Q93 843 114 878T171 935T250 956Q294 956 329 935T386 879T407 800Q407 757 386 722T330 665T250
644ZM250 735Q277 735 296 754T315 800Q315 828 296 846T250 865Q223 865 204 847T185 800Q185 773 204 754T250 735Z" />
<glyph unicode="&#xc6;" horiz-adv-x="500" d="M5 0L165 730H485V612H365V444H475V328H365V118H485V0H245V560H241L135 0H5ZM110 155V275H305V155H110Z" />
<glyph unicode="&#xc7;" horiz-adv-x="500" d="M216 -218Q201 -218 188 -218T162 -216V-113Q173 -114 184 -114T206 -115Q220 -115 229 -111T244 -100T249 -81Q249 -56 226 -30T158 25L282 56Q329 17 352 -21T375 -102Q375 -139 357 -165T303 -204T216 -218ZM300
-10Q167 -10 102 76T36 335V395Q36 568 102 654T301 740Q335 740 371 734T436 718V460H296V691L366 584Q332 614 296 614Q239 614 210 556T180 385V345Q180 221 211 169T316 116Q341 116 373 121T436 134V4Q406 -2 369 -6T300 -10Z" />
<glyph unicode="&#xc8;" horiz-adv-x="500" d="M68 0V730H438V612H210V444H428V328H210V118H438V0H68ZM180 780L60 1000H230L310 780H180Z" />
<glyph unicode="&#xc9;" horiz-adv-x="500" d="M68 0V730H438V612H210V444H428V328H210V118H438V0H68ZM571 780H441L521 1000H691L571 780Z" />
<glyph unicode="&#xca;" horiz-adv-x="500" d="M68 0V730H438V612H210V444H428V328H210V118H438V0H68ZM30 780L145 1000H355L470 780H310L252 930H248L190 780H30Z" />
<glyph unicode="&#xcb;" horiz-adv-x="500" d="M68 0V730H438V612H210V444H428V328H210V118H438V0H68ZM397 780Q353 780 327 804T301 870Q301 912 327 936T396 960Q440 960 465 936T491 870Q491 828 466 804T397 780ZM361 780Q317 780 291 804T265 870Q265 912
291 936T360 960Q404 960 429 936T455 870Q455 828 430 804T361 780Z" />
<glyph unicode="&#xcc;" horiz-adv-x="500" d="M70 0V120H178V610H70V730H430V610H322V120H430V0H70ZM180 780L60 1000H230L310 780H180Z" />
<glyph unicode="&#xcd;" horiz-adv-x="500" d="M70 0V120H178V610H70V730H430V610H322V120H430V0H70ZM571 780H441L521 1000H691L571 780Z" />
<glyph unicode="&#xce;" horiz-adv-x="500" d="M70 0V120H178V610H70V730H430V610H322V120H430V0H70ZM30 780L145 1000H355L470 780H310L252 930H248L190 780H30Z" />
<glyph unicode="&#xcf;" horiz-adv-x="500" d="M70 0V120H178V610H70V730H430V610H322V120H430V0H70ZM397 780Q353 780 327 804T301 870Q301 912 327 936T396 960Q440 960 465 936T491 870Q491 828 466 804T397 780ZM361 780Q317 780 291 804T265 870Q265 912
291 936T360 960Q404 960 429 936T455 870Q455 828 430 804T361 780Z" />
<glyph unicode="&#xd0;" horiz-adv-x="500" d="M0 328V444H280V328H0ZM188 -10Q128 -10 50 2V728Q128 740 188 740Q292 740 356 705T450 594T480 395V335Q480 213 450 137T356 25T188 -10ZM167 130Q176 123 187 120T214 116Q257 116 284 140T324 216T338 345V385Q338
464 325 514T284 589T214 614Q199 614 188 611T167 600L190 646V84L167 130Z" />
<glyph unicode="&#xd1;" horiz-adv-x="500" d="M40 0V730H220L316 270H320V730H460V0H280L184 460H180V0H40ZM340 785Q317 785 291 795T231 832Q217 843 207 849T191 855Q180 855 175 841T170 795H50Q50 890 77 937T160 985Q183 985 209 975T269 938Q283 927 293
921T309 915Q320 915 325 929T330 975H450Q450 881 423 833T340 785Z" />
<glyph unicode="&#xd2;" horiz-adv-x="500" d="M250 -10Q168 -10 119 23T47 133T25 335V395Q25 522 47 597T118 706T250 740Q333 740 382 707T453 598T475 395V335Q475 209 453 133T382 24T250 -10ZM250 114Q284 114 301 132T324 199T331 345V385Q331 481 325
530T301 598T250 616Q217 616 200 598T176 531T169 385V345Q169 249 175 200T199 132T250 114ZM180 780L60 1000H230L310 780H180Z" />
<glyph unicode="&#xd3;" horiz-adv-x="500" d="M250 -10Q168 -10 119 23T47 133T25 335V395Q25 522 47 597T118 706T250 740Q333 740 382 707T453 598T475 395V335Q475 209 453 133T382 24T250 -10ZM250 114Q284 114 301 132T324 199T331 345V385Q331 481 325
530T301 598T250 616Q217 616 200 598T176 531T169 385V345Q169 249 175 200T199 132T250 114ZM571 780H441L521 1000H691L571 780Z" />
<glyph unicode="&#xd4;" horiz-adv-x="500" d="M250 -10Q168 -10 119 23T47 133T25 335V395Q25 522 47 597T118 706T250 740Q333 740 382 707T453 598T475 395V335Q475 209 453 133T382 24T250 -10ZM250 114Q284 114 301 132T324 199T331 345V385Q331 481 325
530T301 598T250 616Q217 616 200 598T176 531T169 385V345Q169 249 175 200T199 132T250 114ZM30 780L145 1000H355L470 780H310L252 930H248L190 780H30Z" />
<glyph unicode="&#xd5;" horiz-adv-x="500" d="M250 -10Q168 -10 119 23T47 133T25 335V395Q25 522 47 597T118 706T250 740Q333 740 382 707T453 598T475 395V335Q475 209 453 133T382 24T250 -10ZM250 114Q284 114 301 132T324 199T331 345V385Q331 481 325
530T301 598T250 616Q217 616 200 598T176 531T169 385V345Q169 249 175 200T199 132T250 114ZM340 785Q317 785 291 795T231 832Q217 843 207 849T191 855Q180 855 175 841T170 795H50Q50 890 77 937T160 985Q183 985 209 975T269 938Q283 927 293 921T309 915Q320
915 325 929T330 975H450Q450 881 423 833T340 785Z" />
<glyph unicode="&#xd6;" horiz-adv-x="500" d="M250 -10Q168 -10 119 23T47 133T25 335V395Q25 522 47 597T118 706T250 740Q333 740 382 707T453 598T475 395V335Q475 209 453 133T382 24T250 -10ZM250 114Q284 114 301 132T324 199T331 345V385Q331 481 325
530T301 598T250 616Q217 616 200 598T176 531T169 385V345Q169 249 175 200T199 132T250 114ZM397 780Q353 780 327 804T301 870Q301 912 327 936T396 960Q440 960 465 936T491 870Q491 828 466 804T397 780ZM361 780Q317 780 291 804T265 870Q265 912 291 936T360
960Q404 960 429 936T455 870Q455 828 430 804T361 780Z" />
<glyph unicode="&#xd7;" horiz-adv-x="500" d="M117 15L483 491L383 565L17 89L117 15ZM383 15L483 89L117 565L17 491L383 15Z" />
<glyph unicode="&#xd8;" horiz-adv-x="500" d="M24 -10L374 740H476L126 -10H24ZM250 -10Q168 -10 119 23T47 133T25 335V395Q25 522 47 597T118 706T250 740Q333 740 382 707T453 598T475 395V335Q475 209 453 133T382 24T250 -10ZM250 114Q284 114 301 132T324
199T331 345V385Q331 481 325 530T301 598T250 616Q217 616 200 598T176 531T169 385V345Q169 249 175 200T199 132T250 114Z" />
<glyph unicode="&#xd9;" horiz-adv-x="500" d="M250 -10Q141 -10 91 39T40 195V730H180V210Q180 158 196 136T250 114Q288 114 304 136T320 210V730H460V195Q460 89 410 40T250 -10ZM180 780L60 1000H230L310 780H180Z" />
<glyph unicode="&#xda;" horiz-adv-x="500" d="M250 -10Q141 -10 91 39T40 195V730H180V210Q180 158 196 136T250 114Q288 114 304 136T320 210V730H460V195Q460 89 410 40T250 -10ZM571 780H441L521 1000H691L571 780Z" />
<glyph unicode="&#xdb;" horiz-adv-x="500" d="M250 -10Q141 -10 91 39T40 195V730H180V210Q180 158 196 136T250 114Q288 114 304 136T320 210V730H460V195Q460 89 410 40T250 -10ZM30 780L145 1000H355L470 780H310L252 930H248L190 780H30Z" />
<glyph unicode="&#xdc;" horiz-adv-x="500" d="M250 -10Q141 -10 91 39T40 195V730H180V210Q180 158 196 136T250 114Q288 114 304 136T320 210V730H460V195Q460 89 410 40T250 -10ZM397 780Q353 780 327 804T301 870Q301 912 327 936T396 960Q440 960 465 936T491
870Q491 828 466 804T397 780ZM361 780Q317 780 291 804T265 870Q265 912 291 936T360 960Q404 960 429 936T455 870Q455 828 430 804T361 780Z" />
<glyph unicode="&#xdd;" horiz-adv-x="500" d="M178 0V275L5 730H149L248 420H252L351 730H495L322 275V0H178ZM571 780H441L521 1000H691L571 780Z" />
<glyph unicode="&#xde;" horiz-adv-x="500" d="M209 127Q184 127 161 128T120 131L168 255Q179 254 193 253T223 251Q265 251 290 264T327 306T338 385Q338 434 327 463T291 506T223 519Q208 519 194 518T168 515L120 639Q137 641 160 642T209 643Q307 643 366
618T453 535T480 385Q480 292 453 235T367 153T209 127ZM60 0V730H204V0H60Z" />
<glyph unicode="&#xdf;" horiz-adv-x="500" d="M311 -10Q289 -10 264 -7T212 4V126Q232 119 248 116T279 112Q317 112 333 133T350 204Q350 255 329 274T252 293H212V437H242Q276 437 288 455T300 522Q300 572 284 595T232 618Q197 618 181 590T164 502V0H24V522Q24
634 74 687T232 740Q339 740 389 690T440 532Q440 480 426 447T379 386V382Q437 371 465 325T494 197Q494 -10 311 -10Z" />
<glyph unicode="&#xe0;" horiz-adv-x="500" d="M267 -10Q156 -10 96 36T35 167Q35 251 95 295T271 340H376V230H273Q173 230 173 168Q173 137 196 121T261 104Q286 104 305 110T343 131L307 58V336Q307 371 302 387T281 409T230 414Q205 414 182 412T132 405T65
388V504Q101 517 147 523T245 530Q322 530 365 513T427 455T445 340V22Q411 7 363 -1T267 -10ZM180 570L60 790H230L310 570H180Z" />
<glyph unicode="&#xe1;" horiz-adv-x="500" d="M267 -10Q156 -10 96 36T35 167Q35 251 95 295T271 340H376V230H273Q173 230 173 168Q173 137 196 121T261 104Q286 104 305 110T343 131L307 58V336Q307 371 302 387T281 409T230 414Q205 414 182 412T132 405T65
388V504Q101 517 147 523T245 530Q322 530 365 513T427 455T445 340V22Q411 7 363 -1T267 -10ZM315 570H185L265 790H435L315 570Z" />
<glyph unicode="&#xe2;" horiz-adv-x="500" d="M267 -10Q156 -10 96 36T35 167Q35 251 95 295T271 340H376V230H273Q173 230 173 168Q173 137 196 121T261 104Q286 104 305 110T343 131L307 58V336Q307 371 302 387T281 409T230 414Q205 414 182 412T132 405T65
388V504Q101 517 147 523T245 530Q322 530 365 513T427 455T445 340V22Q411 7 363 -1T267 -10ZM30 570L145 790H355L470 570H310L252 720H248L190 570H30Z" />
<glyph unicode="&#xe3;" horiz-adv-x="500" d="M267 -10Q156 -10 96 36T35 167Q35 251 95 295T271 340H376V230H273Q173 230 173 168Q173 137 196 121T261 104Q286 104 305 110T343 131L307 58V336Q307 371 302 387T281 409T230 414Q205 414 182 412T132 405T65
388V504Q101 517 147 523T245 530Q322 530 365 513T427 455T445 340V22Q411 7 363 -1T267 -10ZM340 575Q317 575 291 585T231 622Q217 633 207 639T191 645Q180 645 175 631T170 585H50Q50 680 77 727T160 775Q183 775 209 765T269 728Q283 717 293 711T309 705Q320
705 325 719T330 765H450Q450 671 423 623T340 575Z" />
<glyph unicode="&#xe4;" horiz-adv-x="500" d="M267 -10Q156 -10 96 36T35 167Q35 251 95 295T271 340H376V230H273Q173 230 173 168Q173 137 196 121T261 104Q286 104 305 110T343 131L307 58V336Q307 371 302 387T281 409T230 414Q205 414 182 412T132 405T65
388V504Q101 517 147 523T245 530Q322 530 365 513T427 455T445 340V22Q411 7 363 -1T267 -10ZM141 570Q97 570 71 594T45 660Q45 702 71 726T140 750Q184 750 209 726T235 660Q235 618 210 594T141 570ZM361 570Q317 570 291 594T265 660Q265 702 291 726T360
750Q404 750 429 726T455 660Q455 618 430 594T361 570Z" />
<glyph unicode="&#xe5;" horiz-adv-x="500" d="M267 -10Q156 -10 96 36T35 167Q35 251 95 295T271 340H376V230H273Q173 230 173 168Q173 137 196 121T261 104Q286 104 305 110T343 131L307 58V336Q307 371 302 387T281 409T230 414Q205 414 182 412T132 405T65
388V504Q101 517 147 523T245 530Q322 530 365 513T427 455T445 340V22Q411 7 363 -1T267 -10ZM250 564Q207 564 171 585T114 641T93 720Q93 763 114 798T171 855T250 876Q294 876 329 855T386 799T407 720Q407 677 386 642T330 585T250 564ZM250 655Q277 655 296
674T315 720Q315 748 296 766T250 785Q223 785 204 767T185 720Q185 693 204 674T250 655Z" />
<glyph unicode="&#xe6;" horiz-adv-x="500" d="M174 -10Q95 -10 53 36T10 167Q10 251 53 295T177 340H222V230H188Q158 230 143 215T128 168Q128 137 141 121T180 104Q183 104 187 104T192 106V336Q192 371 188 387T172 409T135 414Q114 414 98 412T48 398V514Q71
522 95 526T151 530Q193 530 220 522T264 495H268Q284 512 305 521T354 530Q401 530 431 504T475 422T490 280V199H283V309H391L380 264V274Q380 326 377 356T367 399T346 412Q333 412 326 399T315 356T312 274V246Q312 187 317 157T340 118T391 108Q414 108 430
111T471 124V6Q449 -1 425 -5T379 -10Q353 -10 331 -4T291 15H287Q265 3 235 -3T174 -10Z" />
<glyph unicode="&#xe7;" horiz-adv-x="500" d="M204 -218Q189 -218 176 -218T150 -216V-113Q161 -114 172 -114T194 -115Q208 -115 217 -111T232 -100T237 -81Q237 -57 214 -30T146 24L270 56Q317 17 340 -21T363 -102Q363 -139 345 -165T291 -204T204 -218ZM297
-10Q46 -10 46 240V280Q46 530 298 530Q368 530 426 514V290H288V495L360 390Q342 398 321 403T277 408Q227 408 207 378T186 270V250Q186 194 196 164T234 123T313 112Q343 112 367 115T426 128V6Q397 -1 365 -5T297 -10Z" />
<glyph unicode="&#xe8;" horiz-adv-x="500" d="M288 -10Q162 -10 101 51T40 240V280Q40 409 90 469T250 530Q359 530 409 470T460 280V199H108V309H350L326 274V274Q326 351 309 381T251 412Q210 412 193 382T176 274V246Q176 188 185 159T221 119T300 108Q329
108 358 111T430 124V6Q397 -1 360 -5T288 -10ZM180 570L60 790H230L310 570H180Z" />
<glyph unicode="&#xe9;" horiz-adv-x="500" d="M288 -10Q162 -10 101 51T40 240V280Q40 409 90 469T250 530Q359 530 409 470T460 280V199H108V309H350L326 274V274Q326 351 309 381T251 412Q210 412 193 382T176 274V246Q176 188 185 159T221 119T300 108Q329
108 358 111T430 124V6Q397 -1 360 -5T288 -10ZM315 570H185L265 790H435L315 570Z" />
<glyph unicode="&#xea;" horiz-adv-x="500" d="M288 -10Q162 -10 101 51T40 240V280Q40 409 90 469T250 530Q359 530 409 470T460 280V199H108V309H350L326 274V274Q326 351 309 381T251 412Q210 412 193 382T176 274V246Q176 188 185 159T221 119T300 108Q329
108 358 111T430 124V6Q397 -1 360 -5T288 -10ZM30 570L145 790H355L470 570H310L252 720H248L190 570H30Z" />
<glyph unicode="&#xeb;" horiz-adv-x="500" d="M288 -10Q162 -10 101 51T40 240V280Q40 409 90 469T250 530Q359 530 409 470T460 280V199H108V309H350L326 274V274Q326 351 309 381T251 412Q210 412 193 382T176 274V246Q176 188 185 159T221 119T300 108Q329
108 358 111T430 124V6Q397 -1 360 -5T288 -10ZM141 570Q97 570 71 594T45 660Q45 702 71 726T140 750Q184 750 209 726T235 660Q235 618 210 594T141 570ZM361 570Q317 570 291 594T265 660Q265 702 291 726T360 750Q404 750 429 726T455 660Q455 618 430 594T361
570Z" />
<glyph unicode="&#xec;" horiz-adv-x="500" d="M234 0V402H74V520H374V0H234ZM234 570L114 790H284L364 570H234Z" />
<glyph unicode="&#xed;" horiz-adv-x="500" d="M234 0V402H74V520H374V0H234ZM369 570H239L319 790H489L369 570Z" />
<glyph unicode="&#xee;" horiz-adv-x="500" d="M234 0V402H74V520H374V0H234ZM84 570L199 790H409L524 570H364L306 720H302L244 570H84Z" />
<glyph unicode="&#xef;" horiz-adv-x="500" d="M234 0V402H74V520H374V0H234ZM195 570Q151 570 125 594T99 660Q99 702 125 726T194 750Q238 750 263 726T289 660Q289 618 264 594T195 570ZM415 570Q371 570 345 594T319 660Q319 702 345 726T414 750Q458 750
483 726T509 660Q509 618 484 594T415 570Z" />
<glyph unicode="&#xf0;" horiz-adv-x="500" d="M257 -10Q180 -10 133 14T65 93T44 235Q44 317 63 366T124 438T236 460Q276 460 314 452T386 426L347 310Q313 327 292 333T250 340Q224 340 209 331T188 298T182 232Q182 184 188 157T210 119T254 108Q276 108 289
125T309 176T316 265Q316 439 262 533T89 655V770Q277 738 365 614T454 260Q454 168 433 108T369 19T257 -10ZM64 476V596L434 765V645L64 476Z" />
<glyph unicode="&#xf1;" horiz-adv-x="500" d="M46 498Q87 515 134 522T240 530Q322 530 368 513T434 455T454 340V0H316V332Q316 362 309 379T286 403T240 410Q224 410 211 408T181 398T136 376L184 462V0H46V498ZM340 575Q317 575 291 585T231 622Q217 633 207
639T191 645Q180 645 175 631T170 585H50Q50 680 77 727T160 775Q183 775 209 765T269 728Q283 717 293 711T309 705Q320 705 325 719T330 765H450Q450 671 423 623T340 575Z" />
<glyph unicode="&#xf2;" horiz-adv-x="500" d="M250 -10Q139 -10 87 50T35 240V280Q35 409 87 469T250 530Q361 530 413 470T465 280V240Q465 111 413 51T250 -10ZM250 112Q291 112 308 143T325 250V270Q325 346 308 377T250 408Q209 408 192 377T175 270V250Q175
174 192 143T250 112ZM180 570L60 790H230L310 570H180Z" />
<glyph unicode="&#xf3;" horiz-adv-x="500" d="M250 -10Q139 -10 87 50T35 240V280Q35 409 87 469T250 530Q361 530 413 470T465 280V240Q465 111 413 51T250 -10ZM250 112Q291 112 308 143T325 250V270Q325 346 308 377T250 408Q209 408 192 377T175 270V250Q175
174 192 143T250 112ZM315 570H185L265 790H435L315 570Z" />
<glyph unicode="&#xf4;" horiz-adv-x="500" d="M250 -10Q139 -10 87 50T35 240V280Q35 409 87 469T250 530Q361 530 413 470T465 280V240Q465 111 413 51T250 -10ZM250 112Q291 112 308 143T325 250V270Q325 346 308 377T250 408Q209 408 192 377T175 270V250Q175
174 192 143T250 112ZM30 570L145 790H355L470 570H310L252 720H248L190 570H30Z" />
<glyph unicode="&#xf5;" horiz-adv-x="500" d="M250 -10Q139 -10 87 50T35 240V280Q35 409 87 469T250 530Q361 530 413 470T465 280V240Q465 111 413 51T250 -10ZM250 112Q291 112 308 143T325 250V270Q325 346 308 377T250 408Q209 408 192 377T175 270V250Q175
174 192 143T250 112ZM340 575Q317 575 291 585T231 622Q217 633 207 639T191 645Q180 645 175 631T170 585H50Q50 680 77 727T160 775Q183 775 209 765T269 728Q283 717 293 711T309 705Q320 705 325 719T330 765H450Q450 671 423 623T340 575Z" />
<glyph unicode="&#xf6;" horiz-adv-x="500" d="M250 -10Q139 -10 87 50T35 240V280Q35 409 87 469T250 530Q361 530 413 470T465 280V240Q465 111 413 51T250 -10ZM250 112Q291 112 308 143T325 250V270Q325 346 308 377T250 408Q209 408 192 377T175 270V250Q175
174 192 143T250 112ZM141 570Q97 570 71 594T45 660Q45 702 71 726T140 750Q184 750 209 726T235 660Q235 618 210 594T141 570ZM361 570Q317 570 291 594T265 660Q265 702 291 726T360 750Q404 750 429 726T455 660Q455 618 430 594T361 570Z" />
<glyph unicode="&#xf7;" horiz-adv-x="500" d="M250 -10Q206 -10 180 15T153 85Q153 128 179 153T250 179Q294 179 320 154T347 85Q347 41 321 16T250 -10ZM250 401Q206 401 180 426T153 496Q153 539 179 564T250 590Q294 590 320 565T347 496Q347 452 321 427T250
401ZM20 228V352H480V228H20Z" />
<glyph unicode="&#xf8;" horiz-adv-x="500" d="M24 -10L376 530H476L124 -10H24ZM250 -10Q139 -10 87 50T35 240V280Q35 409 87 469T250 530Q361 530 413 470T465 280V240Q465 111 413 51T250 -10ZM250 112Q291 112 308 143T325 250V270Q325 346 308 377T250 408Q209
408 192 377T175 270V250Q175 174 192 143T250 112Z" />
<glyph unicode="&#xf9;" horiz-adv-x="500" d="M260 -10Q180 -10 134 7T69 65T50 180V520H188V188Q188 158 194 141T217 117T262 110Q279 110 292 112T321 122T364 144L312 58V520H450V22Q371 -10 260 -10ZM180 570L60 790H230L310 570H180Z" />
<glyph unicode="&#xfa;" horiz-adv-x="500" d="M260 -10Q180 -10 134 7T69 65T50 180V520H188V188Q188 158 194 141T217 117T262 110Q279 110 292 112T321 122T364 144L312 58V520H450V22Q371 -10 260 -10ZM315 570H185L265 790H435L315 570Z" />
<glyph unicode="&#xfb;" horiz-adv-x="500" d="M260 -10Q180 -10 134 7T69 65T50 180V520H188V188Q188 158 194 141T217 117T262 110Q279 110 292 112T321 122T364 144L312 58V520H450V22Q371 -10 260 -10ZM30 570L145 790H355L470 570H310L252 720H248L190 570H30Z" />
<glyph unicode="&#xfc;" horiz-adv-x="500" d="M260 -10Q180 -10 134 7T69 65T50 180V520H188V188Q188 158 194 141T217 117T262 110Q279 110 292 112T321 122T364 144L312 58V520H450V22Q371 -10 260 -10ZM141 570Q97 570 71 594T45 660Q45 702 71 726T140 750Q184
750 209 726T235 660Q235 618 210 594T141 570ZM361 570Q317 570 291 594T265 660Q265 702 291 726T360 750Q404 750 429 726T455 660Q455 618 430 594T361 570Z" />
<glyph unicode="&#xfd;" horiz-adv-x="500" d="M50 -98Q101 -98 133 -85T179 -42T194 34L202 -29L10 520H156L254 185H258L344 520H490L310 -61Q293 -115 260 -150T174 -203T50 -220V-98ZM315 570H185L265 790H435L315 570Z" />
<glyph unicode="&#xfe;" horiz-adv-x="500" d="M233 -10Q177 -10 125 1L159 124Q188 115 207 112T244 108Q277 108 295 121T321 167T328 260Q328 320 321 353T296 399T244 412Q227 412 208 409T159 396L125 519Q177 530 233 530Q317 530 368 503T443 417T466 260Q466
163 443 104T369 17T233 -10ZM56 -210V730H194V-210H56Z" />
<glyph unicode="&#xff;" horiz-adv-x="500" d="M50 -98Q101 -98 133 -85T179 -42T194 34L202 -29L10 520H156L254 185H258L344 520H490L310 -61Q293 -115 260 -150T174 -203T50 -220V-98ZM141 570Q97 570 71 594T45 660Q45 702 71 726T140 750Q184 750 209 726T235
660Q235 618 210 594T141 570ZM361 570Q317 570 291 594T265 660Q265 702 291 726T360 750Q404 750 429 726T455 660Q455 618 430 594T361 570Z" />
<glyph unicode="&#x2013;" horiz-adv-x="500" d="M60 228V352H440V228H60Z" />
<glyph unicode="&#x2014;" horiz-adv-x="500" d="M0 228V352H500V228H0Z" />
<glyph unicode="&#x2018;" horiz-adv-x="500" d="M375 770L295 470H125L245 770H375Z" />
<glyph unicode="&#x2019;" horiz-adv-x="500" d="M125 470L205 770H375L255 470H125Z" />
<glyph unicode="&#x201a;" horiz-adv-x="500" d="M125 -100L205 200H375L255 -100H125Z" />
<glyph unicode="&#x201c;" horiz-adv-x="500" d="M265 770L191 470H35L145 770H265ZM465 770L391 470H235L345 770H465Z" />
<glyph unicode="&#x201d;" horiz-adv-x="500" d="M235 470L309 770H465L355 470H235ZM35 470L109 770H265L155 470H35Z" />
<glyph unicode="&#x201e;" horiz-adv-x="500" d="M235 -100L309 200H465L355 -100H235ZM35 -100L109 200H265L155 -100H35Z" />
<glyph unicode="&#x2022;" horiz-adv-x="500" d="M251 139Q183 139 143 178T103 283Q103 349 143 388T250 427Q318 427 357 388T397 283Q397 217 358 178T251 139Z" />
<glyph unicode="&#x2039;" horiz-adv-x="500" d="M257 0L98 260L257 520H386L223 260L386 0H257Z" />
<glyph unicode="&#x203a;" horiz-adv-x="500" d="M243 0H114L277 260L114 520H243L402 260L243 0Z" />
</font>
</defs>
</svg>
